<?xml version="1.0" encoding="utf-8"?>
<!-- Generator: Adobe Illustrator 16.0.0, SVG Export Plug-In . SVG Version: 6.00 Build 0)  -->
<!DOCTYPE svg PUBLIC "-//W3C//DTD SVG 1.1//EN" "http://www.w3.org/Graphics/SVG/1.1/DTD/svg11.dtd">
<svg version="1.1" id="Layer_1" xmlns="http://www.w3.org/2000/svg" xmlns:xlink="http://www.w3.org/1999/xlink" x="0px" y="0px"
	 width="202.896px" height="31px" viewBox="0 0 202.896 31" enable-background="new 0 0 202.896 31" xml:space="preserve">
<g>
	<g>
		<g>
			<polygon fill="#FFFFFF" points="42.988,3.226 40.635,5.632 38.228,3.334 40.635,0.762 			"/>
			<path fill="#FFFFFF" d="M57.235,9.072c-0.125,1.632-1.374,3.276-3.109,3.276c-1.619,0-2.617-0.983-3.161-2.139l-0.216,0.136
				v11.29l3.16,1.896l1.733-1.787l0.27,0.247l-4.137,4.3l-5.758-3.492v-0.106c0.594-0.189,0.837-0.787,0.837-1.734v-8.743
				c2.434-1.275,5.071-2.922,6.68-4.089c0.309,0.518,1.029,1.165,1.946,1.165c0.758,0,1.352-0.174,1.647-0.382L57.235,9.072z"/>
			<path fill="#FFFFFF" d="M45.529,22.717l-3.46,3.603c-1.947-0.679-3.055-1.626-3.055-4.064v-10.61l-1.054-0.762l-0.973,1.005
				l-0.246-0.244l3.381-3.52l3.593,2.383v0.051c-0.553,0.338-0.81,0.624-0.81,1.789v9.476c0,0.797,0.501,1.584,1.354,1.706
				l1.026-1.056L45.529,22.717z"/>
			<path fill="#FFFFFF" d="M37.473,22.825l-3.433,3.494c-1.813-0.544-3.003-1.688-3.003-3.925v-9.993l-2.188-1.487l-1.218,1.27
				v10.885l1.271,0.784l-2.839,2.466l-3.217-2.683v-0.054c0.533-0.148,0.863-0.597,0.863-1.868V3.197
				c0-1.352-0.243-1.759-0.513-2.221l0.19-0.08c0.593,0.517,0.962,0.953,1.108,1.866h0.053c0.871-1.453,1.954-2.41,4.055-2.679
				l0.054,0.105c-0.584,0.722-1.027,1.505-1.027,2.71v8.773l3.352-3.547c1.224,0.833,3.502,2.492,4.841,3.304v0.08
				c-0.471,0.204-0.84,0.57-0.84,1.762v8.202c0,1.2,0.297,1.627,1.272,2.11l0.975-1.002L37.473,22.825z"/>
			<path fill="#FFFFFF" d="M98.602,11.508c-0.541,0.247-0.837,0.57-0.837,1.871v8.743c-1.608,0.7-5.248,2.756-7.085,4.225
				c-1.974-1.329-3.002-2.06-5.031-3.332v-0.083c0.569-0.27,0.838-0.566,0.838-1.918v-8.666c2.463-1.191,5.139-2.87,7.035-4.251
				c1.201,0.802,3.701,2.437,5.081,3.332V11.508z M93.818,23.8V12.594c-0.917-0.572-2.406-1.71-3.03-2.169l-0.377,0.216v11.264
				c0.456,0.324,1.999,1.382,2.947,2.112L93.818,23.8z"/>
			<path fill="#FFFFFF" d="M84.463,25.046c0,1.051-1.476,2.163-3.083,3.468c-2.106,1.7-3.19,2.516-3.19,2.516
				c-1.046-0.588-1.646-0.757-3.191-0.757c-1.95,0-3.057,0.202-4.435,0.757l-0.081-0.028c1.109-2.069,3.311-3.789,6.41-3.789
				c1.378,0,2.937,0.571,3.943,1.248c0.27-0.171,1.113-0.807,1.113-1.276c0-1.382-2.596-1.215-2.977-3.79l-2.891,2.953
				c-3.392-2.208-5.325-3.415-5.325-3.415v-0.106c0.665-0.284,0.836-0.622,0.836-2.301v-8.176c2.862-1.508,5.51-3.021,7.111-4.251
				l5.027,3.332v0.08c-0.622,0.327-0.839,0.596-0.839,2.083v7.747C82.892,23.19,84.463,23.363,84.463,25.046z M78.919,22.905V12.483
				c-1.517-0.936-3.002-2.11-3.002-2.11l-0.405,0.244v11.152l2.73,1.868L78.919,22.905z"/>
			<path fill="#FFFFFF" d="M70.025,22.825l-3.436,3.494c-1.562-0.518-2.878-1.341-3-3.521l-3.867,3.521
				c-1.894-0.814-3.244-2.524-3.244-4.685c0-2.901,2.337-4.396,4.489-5.173v-0.026c-1.848-0.899-3.369-2.601-3.787-4.656
				l5.948-3.683l5.328,3.575v0.083c-0.649,0.267-0.918,0.593-0.918,1.811v7.933c0,0.891,0.373,1.834,1.27,2.084l0.974-1.002
				L70.025,22.825z M63.589,15.84v-3.218l-3.352-2.305l-0.433,0.273c0.133,1.908,0.4,4.404,1.676,5.684
				C61.944,16.114,63.03,15.903,63.589,15.84z M63.589,22.284v-6.093c-2.354,0.279-3.677,1.948-3.677,4.033
				c0,1.734,0.62,2.79,2.191,3.412L63.589,22.284z"/>
			<path fill="#FFFFFF" d="M22.631,0.923c-0.101,2.356-1.757,4.55-4.709,4.55c-0.369,0-0.711-0.032-1.024-0.109v18.629
				c1.894-0.242,3.609-1.062,5.189-2.169l0.136,0.404c-1.75,2.047-5.056,5.392-10.164,5.392C5.104,27.62,0,22.891,0,14.811
				C0,7.404,6.102,3.294,10.056,1.761l0.328,0.164C6.651,4.403,4.649,7.399,4.649,12.622c0,4.601,1.648,7.875,4.135,9.8l0.842-0.572
				V7.556c0-1.311-0.19-1.758-0.812-1.924V5.526C11.3,4.28,15.248,2.14,17.442,0.408c0.673,0.789,1.513,1.135,2.564,1.135
				c1.151,0,1.922-0.404,2.434-0.781L22.631,0.923z M16.467,24.044V5.228c-0.987-0.376-1.677-1.149-2.3-2.058l-0.135,0.056v16.19
				l-4.918,3.275c1.681,1.165,4.136,1.38,6.649,1.38C16,24.071,16.233,24.064,16.467,24.044z"/>
		</g>
		<path fill="#FFFFFF" d="M42.988,3.226l-2.353,2.407l-2.407-2.298l2.407-2.572L42.988,3.226z M57.128,8.908
			C56.832,9.116,56.239,9.29,55.48,9.29c-0.917,0-1.637-0.647-1.946-1.165c-1.609,1.167-4.246,2.814-6.68,4.089v8.743
			c0,0.947-0.243,1.545-0.837,1.734v0.106l5.758,3.492l4.137-4.3l-0.27-0.247l-1.733,1.787l-3.16-1.896v-11.29l0.216-0.136
			c0.544,1.156,1.542,2.139,3.161,2.139c1.735,0,2.984-1.644,3.109-3.276L57.128,8.908z M45.285,22.475l-1.026,1.056
			c-0.853-0.122-1.354-0.909-1.354-1.706v-9.476c0-1.165,0.257-1.451,0.81-1.789v-0.051l-3.593-2.383l-3.381,3.52l0.246,0.244
			l0.973-1.005l1.054,0.762v10.61c0,2.438,1.108,3.386,3.055,4.064l3.46-3.603L45.285,22.475z M37.23,22.581l-0.975,1.002
			c-0.975-0.483-1.272-0.91-1.272-2.11v-8.202c0-1.192,0.369-1.559,0.84-1.762v-0.08c-1.339-0.812-3.617-2.471-4.841-3.304
			l-3.352,3.547V2.899c0-1.205,0.442-1.989,1.027-2.71l-0.054-0.105c-2.101,0.269-3.184,1.226-4.055,2.679h-0.053
			c-0.146-0.913-0.515-1.349-1.108-1.866l-0.19,0.08c0.27,0.461,0.513,0.869,0.513,2.221v18.518c0,1.271-0.331,1.72-0.863,1.868
			v0.054l3.217,2.683l2.839-2.466l-1.271-0.784V12.185l1.218-1.27l2.188,1.487v9.993c0,2.236,1.191,3.381,3.003,3.925l3.433-3.494
			L37.23,22.581z M98.602,11.429c-1.379-0.895-3.88-2.529-5.081-3.332c-1.896,1.381-4.572,3.06-7.035,4.251v8.666
			c0,1.352-0.269,1.648-0.838,1.918v0.083c2.029,1.272,3.058,2.003,5.031,3.332c1.837-1.469,5.477-3.524,7.085-4.225v-8.743
			c0-1.3,0.297-1.624,0.837-1.871V11.429z M93.358,24.017c-0.949-0.73-2.492-1.788-2.947-2.112V10.641l0.377-0.216
			c0.624,0.458,2.113,1.597,3.03,2.169V23.8L93.358,24.017z M82.892,21.338v-7.747c0-1.487,0.217-1.756,0.839-2.083v-0.08
			l-5.027-3.332c-1.602,1.229-4.25,2.743-7.111,4.251v8.176c0,1.679-0.171,2.017-0.836,2.301v0.106c0,0,1.933,1.207,5.325,3.415
			l2.891-2.953c0.381,2.575,2.977,2.408,2.977,3.79c0,0.47-0.843,1.105-1.113,1.276c-1.006-0.677-2.565-1.248-3.943-1.248
			c-3.099,0-5.3,1.72-6.41,3.789l0.081,0.028c1.378-0.555,2.485-0.757,4.435-0.757c1.546,0,2.146,0.169,3.191,0.757
			c0,0,1.083-0.815,3.19-2.516c1.607-1.305,3.083-2.417,3.083-3.468C84.463,23.363,82.892,23.19,82.892,21.338z M78.242,23.637
			l-2.73-1.868V10.617l0.405-0.244c0,0,1.485,1.174,3.002,2.11v10.422L78.242,23.637z M69.781,22.581l-0.974,1.002
			c-0.897-0.25-1.27-1.193-1.27-2.084v-7.933c0-1.218,0.269-1.544,0.918-1.811v-0.083l-5.328-3.575L57.18,11.78
			c0.418,2.055,1.939,3.757,3.787,4.656v0.026c-2.151,0.776-4.489,2.271-4.489,5.173c0,2.16,1.35,3.87,3.244,4.685l3.867-3.521
			c0.122,2.181,1.438,3.004,3,3.521l3.436-3.494L69.781,22.581z M61.481,16.273c-1.276-1.28-1.543-3.776-1.676-5.684l0.433-0.273
			l3.352,2.305v3.218C63.03,15.903,61.944,16.114,61.481,16.273z M62.103,23.637c-1.571-0.622-2.191-1.678-2.191-3.412
			c0-2.085,1.324-3.754,3.677-4.033v6.093L62.103,23.637z M22.439,0.762c-0.511,0.377-1.282,0.781-2.434,0.781
			c-1.051,0-1.891-0.346-2.564-1.135C15.248,2.14,11.3,4.28,8.814,5.526v0.106c0.622,0.166,0.812,0.613,0.812,1.924V21.85
			l-0.842,0.572c-2.487-1.925-4.135-5.199-4.135-9.8c0-5.222,2.002-8.218,5.734-10.697l-0.328-0.164C6.102,3.294,0,7.404,0,14.811
			c0,8.08,5.104,12.809,12.06,12.809c5.108,0,8.414-3.345,10.164-5.392l-0.136-0.404c-1.58,1.107-3.295,1.927-5.189,2.169V5.364
			c0.313,0.077,0.655,0.109,1.024,0.109c2.952,0,4.608-2.194,4.709-4.55L22.439,0.762z M15.763,24.071
			c-2.513,0-4.968-0.215-6.649-1.38l4.918-3.275V3.226l0.135-0.056c0.623,0.909,1.313,1.682,2.3,2.058v18.816
			C16.233,24.064,16,24.071,15.763,24.071z"/>
		<path fill="#FFFFFF" d="M24.632,2.735l-0.093,0.157h-0.51L23.985,2.62c-0.046-0.288-0.125-0.513-0.222-0.718
			c0.046,0.292,0.077,0.643,0.077,1.102v18.519c0,0.997-0.208,1.617-0.647,1.95c0.496,0.414,2.347,1.958,2.674,2.229
			c0.311-0.27,1.827-1.585,2.301-1.998c-0.372-0.229-1.05-0.648-1.05-0.648V2.707c0-1.021,0.308-1.763,0.688-2.353
			C26.414,0.673,25.445,1.378,24.632,2.735z M14.158,2.675c0.041,0.059,0.082,0.119,0.082,0.119c0.515,0.75,1.171,1.567,2.149,1.938
			l0.208,0.079v0.002c0.091,0.022,0.184,0.045,0.184,0.045c0.275,0.067,0.585,0.099,0.949,0.099c2.729,0,4.122-1.961,4.344-3.901
			c-0.677,0.407-1.417,0.617-2.261,0.617c-1.06,0-1.903-0.353-2.586-1.036C16.35,1.307,15.268,2.009,14.158,2.675z M38.489,3.129
			c0.338,0.322,1.609,1.537,1.946,1.857c0.327-0.335,1.591-1.627,1.912-1.956c-0.316-0.332-1.56-1.634-1.902-1.993
			C40.103,1.403,38.812,2.785,38.489,3.129z M0.13,14.618c0,7.584,4.606,12.484,11.737,12.484c4.767,0,7.968-3.084,9.424-4.708
			c-1.531,0.948-3.027,1.53-4.544,1.726c0,0-0.078,0.009-0.149,0.018c0,0.004,0,0.023,0,0.023L15.571,24.2
			c-2.354,0-5.005-0.17-6.833-1.437l-0.391-0.271c0,0,0.028-0.018,0.033-0.021C6.44,20.965,4.135,18,4.135,12.43
			c0-4.379,1.383-7.449,4.551-9.992C4.341,4.521,0.13,8.627,0.13,14.618z M9.226,5.388C9.657,5.75,9.755,6.401,9.755,7.363
			c0,0,0,13.994,0,14.193c1.23-0.819,3.549-2.363,3.762-2.505c0-0.339,0-15.953,0-15.995C11.831,4.039,10.187,4.899,9.226,5.388z
			 M60.306,9.911c0.149,0.103,3.412,2.348,3.412,2.348v9.973c0,0-0.013,0.013-0.019,0.018c0.009,0.169,0.019,0.337,0.019,0.337
			c0.11,1.976,1.291,2.707,2.594,3.166c0.167-0.171,1.124-1.145,2.073-2.11c-0.995-0.365-1.363-1.427-1.363-2.336v-7.934
			c0-1.001,0.191-1.521,0.696-1.87c-0.611-0.411-4.49-3.015-4.79-3.215C62.777,8.381,61.612,9.102,60.306,9.911z M90.81,9.989
			c0.04,0.03,0.439,0.328,0.439,0.328c0.726,0.54,1.823,1.359,2.549,1.81l0.15,0.095c0,0,0,11.002,0,11.256
			c1.269-0.743,2.49-1.386,3.302-1.753c0-0.394,0-8.538,0-8.538c0-1.01,0.177-1.554,0.63-1.913c-0.59-0.387-4.223-2.769-4.544-2.979
			C92.632,8.8,91.767,9.385,90.81,9.989z M75.979,9.97c0.259,0.202,1.58,1.221,2.916,2.045l0.153,0.095c0,0,0,10.678,0,10.708
			c0.025,0.167,0.05,0.335,0.05,0.335c0.193,1.31,1.021,1.828,1.753,2.288c0.604,0.379,1.227,0.771,1.227,1.549
			c0,0.074-0.02,0.148-0.042,0.223c1.052-0.872,1.912-1.688,1.912-2.358c0-0.708-0.317-1.1-0.685-1.554
			c-0.415-0.514-0.886-1.094-0.886-2.156v-7.747c0-1.267,0.17-1.769,0.633-2.126c-0.583-0.387-4.169-2.761-4.491-2.975
			C77.857,8.791,77.017,9.346,75.979,9.97z M37.97,10.438c0.027,0.019,1.173,0.847,1.173,0.847v10.778
			c0,2.23,0.973,3.067,2.649,3.684c0.168-0.174,1.102-1.146,2.052-2.136c-0.952-0.231-1.454-1.142-1.454-1.979v-9.478
			c0-1.001,0.191-1.455,0.603-1.803c-0.533-0.354-2.665-1.768-3.018-2.001C39.767,8.568,38.885,9.487,37.97,10.438z M28.845,10.461
			c0.017,0.011,2.321,1.577,2.321,1.577v10.164c0,1.835,0.833,2.965,2.596,3.552c0.168-0.172,1.134-1.153,2.083-2.12
			c-1.042-0.537-1.376-1.102-1.376-2.353v-8.204c0-0.882,0.198-1.444,0.626-1.799c-0.895-0.568-2.04-1.369-3.079-2.099
			c0,0-0.865-0.601-1.182-0.821C30.62,8.582,29.75,9.503,28.845,10.461z M51.05,9.851c0.002,0.004,0.013,0.027,0.013,0.027
			c0.421,0.892,1.26,1.955,2.871,1.955c1.455,0,2.489-1.309,2.732-2.634c-0.381,0.138-0.859,0.221-1.378,0.221
			c-0.85,0-1.57-0.492-2.011-1.047C52.673,8.802,51.911,9.31,51.05,9.851z M46.983,12.214c0,0.369,0,8.549,0,8.549
			c0,0.351-0.009,1.289-0.62,1.792c0.627,0.381,4.785,2.902,5.165,3.133c0.167-0.173,1.006-1.045,2.005-2.085
			c-0.034-0.02-3.299-1.978-3.299-1.978s0-10.868,0-11.267C49.209,10.983,48.098,11.625,46.983,12.214z M57.36,11.735
			c0.413,1.675,1.613,3.161,3.276,4.062c-0.917-1.308-1.193-3.28-1.336-5.262C58.406,11.088,57.489,11.656,57.36,11.735z
			 M71.722,12.349c0,0.368,0,7.982,0,7.982c0,1.349-0.104,1.972-0.629,2.365c0.598,0.383,4.37,2.801,4.75,3.044
			c0.237-0.242,1.265-1.292,2.002-2.047c-0.046-0.031-2.847-1.946-2.847-1.946s0-10.956,0-11.2
			C74.043,11.098,72.952,11.698,71.722,12.349z M86.616,12.353c0,0.38,0,8.465,0,8.465c0,1.059-0.167,1.595-0.628,1.959
			c1.335,0.844,2.27,1.476,3.402,2.244c0,0,0.813,0.55,1.088,0.736c0.688-0.532,1.558-1.117,2.479-1.687
			c-0.715-0.55-1.788-1.301-2.431-1.749l-0.631-0.445l0.001-0.167c0,0,0-10.959,0-11.16C88.846,11.184,87.727,11.808,86.616,12.353z
			 M61.203,16.45l-0.004-0.003c-0.156,0.061-0.315,0.125-0.315,0.125c-2.837,1.024-4.276,2.663-4.276,4.87
			c0,1.835,1.098,3.458,2.87,4.295c0.181-0.165,1.18-1.074,2.232-2.032c-1.595-0.66-2.312-1.795-2.312-3.674
			c0-1.563,0.693-2.83,1.854-3.597C61.233,16.44,61.203,16.45,61.203,16.45z M71.005,30.271c1.129-0.369,2.195-0.515,3.801-0.515
			c1.46,0,2.132,0.145,3.161,0.696c0.323-0.246,1.153-0.888,2.463-1.938c-0.888-0.587-2.375-1.174-3.73-1.174
			C74.358,27.341,72.287,28.426,71.005,30.271z"/>
	</g>
	<g>
		<path fill="#FFFFFF" d="M190.675,22.906l-3.404,3.493c-2.192-0.704-3.032-1.976-3.032-3.952V12.32l-1.811-1.297l-1.592,1.65
			v10.453l1.27,0.812l-2.842,2.463l-3.187-2.656v-0.078c0.676-0.327,0.839-0.662,0.839-1.897v-8.988c0-1.001-0.518-1.73-1.436-1.84
			l-1.027,1.057l-0.271-0.274l3.461-3.544c2.026,0.514,3.192,1.845,3.192,3.898l3.729-3.898c1.243,0.921,3.04,2.198,4.38,3.005
			v0.082c-0.568,0.217-0.756,0.651-0.756,1.788v8.553c0,1.182,0.402,1.653,1.269,2.06l0.975-1.004L190.675,22.906z"/>
		<path fill="#FFFFFF" d="M174.966,22.931l-3.323,3.469c-1.649-0.297-3.085-1.87-3.085-3.545l-3.945,3.545
			c-1.547-1.061-2.943-2.032-4.272-2.817v-0.081c0.723-0.391,0.863-0.605,0.863-1.975v-8.881c0-0.942-0.456-1.463-1.217-1.734
			l-0.942,0.974l-0.272-0.244l3.326-3.464c1.649,0.567,3.027,1.842,3.027,3.898v10.372l1.865,1.271l1.542-1.409V11.454l-1.135-0.784
			l2.732-2.493l3.159,2.573v0.052c-0.598,0.282-0.811,0.596-0.811,1.708v8.798c0,1.383,0.19,1.895,1.324,2.355l0.896-0.973
			L174.966,22.931z"/>
		<polygon fill="#FFFFFF" points="142.228,3.303 139.876,5.716 137.469,3.413 139.876,0.84 		"/>
		<path fill="#FFFFFF" d="M144.766,22.801l-3.459,3.599c-1.946-0.678-3.055-1.624-3.055-4.06V11.722l-1.056-0.756l-0.975,1.003
			l-0.244-0.247l3.383-3.518l3.597,2.382v0.055c-0.555,0.337-0.813,0.573-0.813,1.381v9.882c0,0.796,0.5,1.585,1.354,1.706
			l1.026-1.056L144.766,22.801z"/>
		<path fill="#FFFFFF" d="M136.333,9.315c-0.189,1.355-1.216,3.168-3.004,3.168c-1.145,0-1.97-0.649-2.429-1.383l-0.299,0.298
			c0.014,0.157,0.025,0.486,0.025,0.653v9.907l2.974,1.677l1-1.029l0.271,0.248l-3.513,3.571l-5.411-3.439v-0.08
			c0.625-0.271,0.812-0.625,0.812-1.571v-8.258c0-1.382-0.295-2.001-1.404-2.22l-1.054,1.084l-0.271-0.246l3.433-3.518
			c1.68,0.453,2.759,1.435,3.055,2.817l2.648-2.791c0.516,0.677,1.14,1.194,1.868,1.194c0.484,0,0.838-0.083,1.187-0.246
			L136.333,9.315z"/>
		<path fill="#FFFFFF" d="M126.121,0.789c-0.384,2.991-1.614,5.656-4.786,5.656c-0.375,0-0.944-0.055-1.185-0.08v17.76
			c1.918-0.271,4.126-1.204,5.054-1.95l0.134,0.353c-1.447,2.077-5.439,5.253-10.38,5.253c-6.251,0-11.085-4.123-11.085-10.776
			c0-5.735,4.727-9.87,7.813-10.963l0.271,0.107c-2.153,1.964-3.677,4.641-3.677,8.851c0,3.517,1.352,5.715,3.436,7.421l1.162-0.594
			V11.049c0-1.167-0.381-1.545-0.813-1.625V9.315l5.22-2.762v13.483l-5.245,2.656c1.405,1.082,3.649,1.648,5.783,1.648
			c0.732,0,1.073-0.034,1.892-0.161V6.365c-3.892-0.324-8.033-1.977-11.219-1.977c-2.232,0-3.92,0.92-3.92,2.628
			c0,1.027,0.81,1.47,1.326,1.705l-0.431,0.243c-0.949-0.43-2.137-1.468-2.137-3.655c0-3.188,2.562-5.279,6.001-5.279
			c4.76,0,9.23,2.517,13.436,2.517c1.296,0,2.497-0.689,3.107-1.95L126.121,0.789z"/>
		<path fill="#FFFFFF" d="M202.896,13.348c-2.252,1.381-4.929,3.157-6.974,4.631v3.816l3.324,1.841l1.838-1.894l0.244,0.217
			l-4.3,4.44l-5.949-3.629v-0.078c0.591-0.168,0.921-0.546,0.921-1.898v-8.392c2.404-1.085,4.948-2.871,6.788-4.249L202.896,13.348z
			 M199.272,15.215c-0.558-0.787-2.362-3.452-3.135-4.681l-0.216,0.137v6.795L199.272,15.215z"/>
		<path fill="#FFFFFF" d="M158.314,11.591c-0.665,0.272-0.813,0.776-0.813,1.649v8.99c-1.63,0.697-5.275,2.683-7.111,4.17
			c-1.304-0.912-3.378-2.333-5.057-3.329v-0.084c0.731-0.294,0.895-0.709,0.895-2.192V3.385c0-1.22-0.218-1.84-0.487-2.329
			l0.16-0.081c0.569,0.486,0.948,1.056,1.111,1.843h0.052c0.871-1.455,1.953-2.386,4.056-2.655l0.026,0.162
			c-0.584,0.719-0.999,1.367-0.999,2.762v8.635l3.354-3.544c1.164,0.847,3.519,2.532,4.813,3.33V11.591z M153.554,23.854V12.483
			l-2.189-1.488l-1.217,1.246v9.639l2.999,2.191L153.554,23.854z"/>
		<path fill="#FFFFFF" d="M190.432,22.661l-0.975,1.004c-0.866-0.406-1.269-0.878-1.269-2.06v-8.553
			c0-1.137,0.188-1.571,0.756-1.788v-0.082c-1.34-0.807-3.137-2.084-4.38-3.005l-3.729,3.898c0-2.053-1.166-3.384-3.192-3.898
			l-3.461,3.544l0.271,0.274l1.027-1.057c0.918,0.109,1.436,0.839,1.436,1.84v8.988c0,1.235-0.163,1.57-0.839,1.897v0.078
			l3.187,2.656l2.842-2.463l-1.27-0.812V12.672l1.592-1.65l1.811,1.297v10.127c0,1.977,0.84,3.248,3.032,3.952l3.404-3.493
			L190.432,22.661z M174.699,22.692l-0.896,0.973c-1.134-0.461-1.324-0.973-1.324-2.355v-8.798c0-1.113,0.213-1.426,0.811-1.708
			v-0.052l-3.159-2.573l-2.732,2.493l1.135,0.784V22.31l-1.542,1.409l-1.865-1.271V12.076c0-2.056-1.378-3.331-3.027-3.898
			l-3.326,3.464l0.272,0.244l0.942-0.974c0.761,0.271,1.217,0.792,1.217,1.734v8.881c0,1.369-0.141,1.584-0.863,1.975v0.081
			c1.329,0.785,2.726,1.757,4.272,2.817l3.945-3.545c0,1.675,1.436,3.248,3.085,3.545l3.323-3.469L174.699,22.692z M139.876,0.84
			l-2.407,2.573l2.407,2.303l2.352-2.413L139.876,0.84z M144.524,22.555l-1.026,1.056c-0.854-0.121-1.354-0.91-1.354-1.706v-9.882
			c0-0.808,0.258-1.044,0.813-1.381v-0.055l-3.597-2.382l-3.383,3.518l0.244,0.247l0.975-1.003l1.056,0.756V22.34
			c0,2.436,1.108,3.382,3.055,4.06l3.459-3.599L144.524,22.555z M136.222,9.152c-0.349,0.163-0.702,0.246-1.187,0.246
			c-0.729,0-1.353-0.517-1.868-1.194l-2.648,2.791c-0.296-1.382-1.375-2.365-3.055-2.817l-3.433,3.518l0.271,0.246l1.054-1.084
			c1.109,0.219,1.404,0.838,1.404,2.22v8.258c0,0.946-0.187,1.301-0.812,1.571v0.08l5.411,3.439l3.513-3.571l-0.271-0.248l-1,1.029
			l-2.974-1.677v-9.907c0-0.167-0.012-0.496-0.025-0.653l0.299-0.298c0.459,0.734,1.284,1.383,2.429,1.383
			c1.788,0,2.814-1.813,3.004-3.168L136.222,9.152z M125.878,0.597c-0.61,1.26-1.812,1.95-3.107,1.95
			c-4.205,0-8.676-2.517-13.436-2.517c-3.439,0-6.001,2.091-6.001,5.279c0,2.188,1.188,3.225,2.137,3.655l0.431-0.243
			c-0.517-0.234-1.326-0.677-1.326-1.705c0-1.708,1.688-2.628,3.92-2.628c3.186,0,7.327,1.653,11.219,1.977V24.18
			c-0.818,0.127-1.159,0.161-1.892,0.161c-2.134,0-4.378-0.566-5.783-1.648l5.245-2.656V6.553l-5.22,2.762v0.109
			c0.433,0.08,0.813,0.458,0.813,1.625v10.777l-1.162,0.594c-2.084-1.706-3.436-3.904-3.436-7.421c0-4.21,1.523-6.887,3.677-8.851
			l-0.271-0.107c-3.087,1.093-7.813,5.229-7.813,10.963c0,6.653,4.834,10.776,11.085,10.776c4.94,0,8.933-3.176,10.38-5.253
			l-0.134-0.353c-0.928,0.746-3.136,1.68-5.054,1.95V6.365c0.24,0.024,0.81,0.08,1.185,0.08c3.172,0,4.402-2.665,4.786-5.656
			L125.878,0.597z M198.788,8.153c-1.84,1.378-4.384,3.164-6.788,4.249v8.392c0,1.353-0.33,1.73-0.921,1.898v0.078l5.949,3.629
			l4.3-4.44l-0.244-0.217l-1.838,1.894l-3.324-1.841v-3.816c2.045-1.474,4.722-3.25,6.974-4.631L198.788,8.153z M195.922,17.466
			V10.67l0.216-0.137c0.772,1.229,2.577,3.895,3.135,4.681L195.922,17.466z M158.314,11.507c-1.295-0.798-3.649-2.483-4.813-3.33
			l-3.354,3.544V3.087c0-1.395,0.415-2.042,0.999-2.762l-0.026-0.162c-2.103,0.269-3.185,1.2-4.056,2.655h-0.052
			c-0.163-0.787-0.542-1.357-1.111-1.843l-0.16,0.081c0.27,0.489,0.487,1.109,0.487,2.329v17.409c0,1.483-0.163,1.898-0.895,2.192
			v0.084c1.679,0.996,3.753,2.417,5.057,3.329c1.836-1.487,5.481-3.473,7.111-4.17v-8.99c0-0.873,0.147-1.377,0.813-1.649V11.507z
			 M153.146,24.071l-2.999-2.191v-9.639l1.217-1.246l2.189,1.488v11.371L153.146,24.071z"/>
		<path fill="#FFFFFF" d="M103.463,5.116c0,1.096,0.317,1.86,0.723,2.39c-0.073-0.2-0.126-0.422-0.126-0.683
			c0-1.793,1.666-2.951,4.242-2.951c1.724,0,3.681,0.464,5.755,0.955c1.811,0.43,3.683,0.874,5.491,1.024
			c0,0,0.504,0.044,0.875,0.067c0.461,0.028,0.719,0.011,0.719,0.011c2.322,0,3.771-1.572,4.337-4.637
			c-0.703,0.87-1.729,1.385-2.9,1.385c-2.082,0-4.175-0.589-6.39-1.213c-2.279-0.641-4.637-1.305-7.047-1.305
			C105.798,0.159,103.463,2.196,103.463,5.116z M147.147,2.791l-0.095,0.157h-0.495l-0.054-0.257
			c-0.054-0.259-0.141-0.488-0.248-0.706c0.059,0.335,0.102,0.713,0.102,1.207v17.408c0,1.226-0.116,1.851-0.651,2.244
			c1.491,0.91,3.196,2.065,4.483,2.965c0.689-0.537,1.579-1.129,2.53-1.702c-0.088-0.063-3.086-2.257-3.086-2.257V2.894
			c0-1.196,0.301-1.897,0.714-2.492C148.688,0.764,147.848,1.624,147.147,2.791z M137.729,3.207c0.338,0.324,1.61,1.54,1.946,1.862
			c0.328-0.335,1.591-1.632,1.911-1.961c-0.315-0.33-1.559-1.632-1.901-1.991C139.344,1.482,138.052,2.862,137.729,3.207z
			 M104.002,16.812c0,6.154,4.426,10.455,10.764,10.455c4.348,0,7.913-2.497,9.619-4.497c-1.122,0.623-2.817,1.261-4.383,1.481
			l-0.366,0.053v-0.009c-0.023,0.003-0.064,0.009-0.064,0.009c-0.823,0.13-1.178,0.167-1.942,0.167
			c-2.347,0-4.583-0.642-5.979-1.717l-0.405-0.312c0,0,0.021-0.011,0.022-0.012c-2.387-1.977-3.502-4.401-3.502-7.625
			c0-3.423,0.957-6.086,2.986-8.291C107.705,7.99,104.002,11.792,104.002,16.812z M112.457,9.176
			c0.359,0.31,0.551,0.863,0.551,1.679c0,0,0,10.529,0,10.694c1.406-0.712,3.517-1.78,3.762-1.903c0-0.371,0-11.779,0-12.752
			C116.059,7.271,113.117,8.829,112.457,9.176z M175.473,10.472c0.966,0.187,1.571,0.97,1.571,2.114v8.988
			c0,1.045-0.134,1.57-0.674,1.962c0.433,0.359,2.365,1.97,2.697,2.247c0.312-0.271,1.838-1.595,2.308-2
			c-0.37-0.238-1.055-0.674-1.055-0.674V11.882c0-1.798-0.965-3.012-2.778-3.531C177.384,8.515,176.428,9.493,175.473,10.472z
			 M125.375,10.39c1.247,0.31,1.515,1.184,1.515,2.495v8.256c0,0.741-0.121,1.25-0.593,1.613c0.611,0.39,4.447,2.826,4.822,3.066
			c0.206-0.21,1.132-1.152,2.087-2.122c-0.085-0.049-3.095-1.744-3.095-1.744V11.858c0,0-0.024-0.633-0.024-0.634
			c-0.037-0.171-0.076-0.355-0.076-0.355c-0.259-1.209-1.185-2.066-2.655-2.51C127.194,8.524,126.308,9.433,125.375,10.39z
			 M159.98,10.454c0.891,0.35,1.353,1.017,1.353,1.999v8.882c0,1.18-0.118,1.628-0.646,2.014c1.119,0.682,2.288,1.475,3.529,2.326
			c0,0,0.09,0.062,0.177,0.121c0.203-0.181,1.17-1.052,2.228-2.001l-2.01-1.37V11.882c0-2.217-1.707-3.167-2.622-3.52
			C161.818,8.541,160.896,9.5,159.98,10.454z M196.158,10.076c0.026,0.042,0.06,0.093,0.06,0.093
			c0.768,1.222,2.566,3.879,3.125,4.667c0,0,0.026,0.038,0.039,0.056c0.964-0.634,1.929-1.253,2.845-1.819
			c-0.38-0.48-3.366-4.255-3.692-4.67C197.696,9.024,196.911,9.573,196.158,10.076z M167.721,10.442
			c0.333,0.229,0.941,0.649,0.941,0.649s0,10.565,0,10.871c0.002-0.004,0.025-0.024,0.025-0.024v0.724
			c0,1.422,1.205,2.837,2.662,3.185c0.155-0.164,1.112-1.16,2.035-2.124c-1.213-0.527-1.421-1.213-1.421-2.604v-8.799
			c0-0.942,0.164-1.423,0.618-1.764c-0.468-0.381-2.301-1.874-2.634-2.145C169.638,8.692,168.156,10.044,167.721,10.442z
			 M151.344,10.53c0.001,0,2.339,1.589,2.339,1.589s0,11.182,0,11.419c1.246-0.713,2.46-1.334,3.306-1.709c0-0.396,0-8.783,0-8.783
			c0-0.607,0.061-1.265,0.592-1.693c-1.355-0.871-3.355-2.306-4.233-2.941C153.129,8.642,152.249,9.573,151.344,10.53z
			 M182.378,10.535c0.014,0.009,1.99,1.426,1.99,1.426v10.292c0,1.861,0.796,2.938,2.625,3.579c0.17-0.176,1.116-1.146,2.055-2.108
			c-0.849-0.416-1.375-0.965-1.375-2.311V12.86c0-0.854,0.108-1.455,0.538-1.827c-1.376-0.861-2.97-2.009-3.802-2.621
			C184.208,8.623,183.354,9.514,182.378,10.535z M137.202,10.52c0.022,0.017,1.179,0.842,1.179,0.842v10.783
			c0,2.229,0.973,3.065,2.648,3.683c0.168-0.175,1.103-1.147,2.054-2.136c-0.951-0.232-1.453-1.143-1.453-1.981V11.83
			c0-0.763,0.229-1.12,0.597-1.406c-0.542-0.359-2.663-1.762-3.014-1.995C139.004,8.646,138.117,9.567,137.202,10.52z
			 M130.921,10.643c0.023,0.038,0.059,0.094,0.059,0.094c0.232,0.369,0.906,1.231,2.157,1.231c1.516,0,2.363-1.472,2.62-2.58
			c-0.281,0.084-0.573,0.139-0.914,0.139c-0.651,0-1.281-0.363-1.877-1.04C132.628,8.844,131.403,10.134,130.921,10.643z
			 M192.129,12.409c0,0.38,0,8.192,0,8.192c0,1.029-0.189,1.629-0.645,1.964c0.711,0.434,4.922,3.002,5.3,3.231
			c0.163-0.168,1.021-1.056,2.043-2.109c-0.135-0.075-3.421-1.894-3.421-1.894s0-11.033,0-11.221
			C194.214,11.334,193.125,11.946,192.129,12.409z"/>
	</g>
</g>
</svg>
