<?xml version="1.0" encoding="utf-8"?>
<!-- Generator: Adobe Illustrator 16.0.0, SVG Export Plug-In . SVG Version: 6.00 Build 0)  -->
<!DOCTYPE svg PUBLIC "-//W3C//DTD SVG 1.1//EN" "http://www.w3.org/Graphics/SVG/1.1/DTD/svg11.dtd">
<svg version="1.1" id="Layer_1" xmlns="http://www.w3.org/2000/svg" xmlns:xlink="http://www.w3.org/1999/xlink" x="0px" y="0px"
	 width="202.9px" height="31px" viewBox="0 0 202.9 31" enable-background="new 0 0 202.9 31" xml:space="preserve">
<g>
	<g>
		<g>
			<polygon fill="#FFFFFF" points="43,3.2 40.6,5.6 38.2,3.3 40.6,0.7 			"/>
			<path fill="#FFFFFF" d="M57.2,9c-0.1,1.6-1.4,3.3-3.1,3.3c-1.6,0-2.6-1-3.2-2.1l-0.2,0.1v11.3l3.2,1.9l1.7-1.8l0.3,0.2l-4.1,4.3
				L46,22.8v-0.1c0.6-0.2,0.8-0.8,0.8-1.7v-8.7c2.4-1.3,5.1-2.9,6.7-4.1c0.3,0.5,1,1.2,1.9,1.2c0.8,0,1.4-0.2,1.6-0.4L57.2,9z"/>
			<path fill="#FFFFFF" d="M45.5,22.7l-3.5,3.6c-1.9-0.7-3.1-1.6-3.1-4.1V11.6L38,10.9l-1,1l-0.2-0.2l3.4-3.5l3.6,2.4v0.1
				c-0.6,0.3-0.8,0.6-0.8,1.8v9.5c0,0.8,0.5,1.6,1.4,1.7l1-1.1L45.5,22.7z"/>
			<path fill="#FFFFFF" d="M37.5,22.8L34,26.3c-1.8-0.5-3-1.7-3-3.9v-10l-2.2-1.5l-1.2,1.3V23l1.3,0.8l-2.8,2.5l-3.2-2.7v-0.1
				c0.5-0.1,0.9-0.6,0.9-1.9V3.2c0-1.4-0.2-1.8-0.5-2.2l0.2-0.1c0.6,0.5,1,1,1.1,1.9h0.1c0.9-1.5,2-2.4,4.1-2.7l0.1,0.1
				c-0.6,0.7-1,1.5-1,2.7v8.8L31,8.1c1.2,0.8,3.5,2.5,4.8,3.3v0.1C35.4,11.7,35,12,35,13.2v8.2c0,1.2,0.3,1.6,1.3,2.1l1-1L37.5,22.8
				z"/>
			<path fill="#FFFFFF" d="M98.6,11.5c-0.5,0.2-0.8,0.6-0.8,1.9v8.7c-1.6,0.7-5.2,2.8-7.1,4.2c-2-1.3-3-2.1-5-3.3v-0.1
				c0.6-0.3,0.8-0.6,0.8-1.9v-8.7c2.5-1.2,5.1-2.9,7-4.3C94.7,8.9,97.2,10.5,98.6,11.5L98.6,11.5z M93.8,23.8V12.6
				c-0.9-0.6-2.4-1.7-3-2.2l-0.4,0.2v11.3c0.5,0.3,2,1.4,2.9,2.1L93.8,23.8z"/>
			<path fill="#FFFFFF" d="M84.5,25c0,1.1-1.5,2.2-3.1,3.5c-2.1,1.7-3.2,2.5-3.2,2.5c-1-0.6-1.6-0.8-3.2-0.8c-1.9,0-3.1,0.2-4.4,0.8
				l-0.1,0c1.1-2.1,3.3-3.8,6.4-3.8c1.4,0,2.9,0.6,3.9,1.2c0.3-0.2,1.1-0.8,1.1-1.3c0-1.4-2.6-1.2-3-3.8l-2.9,3
				c-3.4-2.2-5.3-3.4-5.3-3.4v-0.1c0.7-0.3,0.8-0.6,0.8-2.3v-8.2c2.9-1.5,5.5-3,7.1-4.3l5,3.3v0.1c-0.6,0.3-0.8,0.6-0.8,2.1v7.7
				C82.9,23.2,84.5,23.3,84.5,25z M78.9,22.9V12.5c-1.5-0.9-3-2.1-3-2.1l-0.4,0.2v11.2l2.7,1.9L78.9,22.9z"/>
			<path fill="#FFFFFF" d="M70,22.8l-3.4,3.5c-1.6-0.5-2.9-1.3-3-3.5l-3.9,3.5c-1.9-0.8-3.2-2.5-3.2-4.7c0-2.9,2.3-4.4,4.5-5.2v0
				c-1.8-0.9-3.4-2.6-3.8-4.7l5.9-3.7l5.3,3.6v0.1c-0.6,0.3-0.9,0.6-0.9,1.8v7.9c0,0.9,0.4,1.8,1.3,2.1l1-1L70,22.8z M63.6,15.8
				v-3.2l-3.4-2.3l-0.4,0.3c0.1,1.9,0.4,4.4,1.7,5.7C61.9,16.1,63,15.9,63.6,15.8z M63.6,22.3v-6.1c-2.4,0.3-3.7,1.9-3.7,4
				c0,1.7,0.6,2.8,2.2,3.4L63.6,22.3z"/>
			<path fill="#FFFFFF" d="M22.6,0.9c-0.1,2.4-1.8,4.6-4.7,4.6c-0.4,0-0.7,0-1-0.1V24c1.9-0.2,3.6-1.1,5.2-2.2l0.1,0.4
				c-1.8,2-5.1,5.4-10.2,5.4C5.1,27.6,0,22.9,0,14.8c0-7.4,6.1-11.5,10.1-13l0.3,0.2C6.7,4.4,4.6,7.4,4.6,12.6
				c0,4.6,1.6,7.9,4.1,9.8l0.8-0.6V7.5c0-1.3-0.2-1.8-0.8-1.9V5.5c2.5-1.2,6.4-3.4,8.6-5.1C18.1,1.2,19,1.5,20,1.5
				c1.2,0,1.9-0.4,2.4-0.8L22.6,0.9z M16.5,24V5.2c-1-0.4-1.7-1.1-2.3-2.1L14,3.2v16.2l-4.9,3.3c1.7,1.2,4.1,1.4,6.6,1.4
				C16,24,16.2,24,16.5,24z"/>
		</g>
		<path fill="#FFFFFF" d="M43,3.2l-2.4,2.4l-2.4-2.3l2.4-2.6L43,3.2z M57.1,8.9c-0.3,0.2-0.9,0.4-1.6,0.4c-0.9,0-1.6-0.6-1.9-1.2
			c-1.6,1.2-4.2,2.8-6.7,4.1v8.7c0,0.9-0.2,1.5-0.8,1.7v0.1l5.8,3.5l4.1-4.3l-0.3-0.2l-1.7,1.8l-3.2-1.9V10.3l0.2-0.1
			c0.5,1.2,1.5,2.1,3.2,2.1c1.7,0,3-1.6,3.1-3.3L57.1,8.9z M45.3,22.4l-1,1.1c-0.9-0.1-1.4-0.9-1.4-1.7v-9.5c0-1.2,0.3-1.5,0.8-1.8
			v-0.1l-3.6-2.4l-3.4,3.5l0.2,0.2l1-1l1.1,0.8v10.6c0,2.4,1.1,3.4,3.1,4.1l3.5-3.6L45.3,22.4z M37.2,22.6l-1,1
			c-1-0.5-1.3-0.9-1.3-2.1v-8.2c0-1.2,0.4-1.6,0.8-1.8v-0.1c-1.3-0.8-3.6-2.5-4.8-3.3l-3.4,3.5V2.9c0-1.2,0.4-2,1-2.7l-0.1-0.1
			c-2.1,0.3-3.2,1.2-4.1,2.7h-0.1c-0.1-0.9-0.5-1.3-1.1-1.9l-0.2,0.1c0.3,0.5,0.5,0.9,0.5,2.2v18.5c0,1.3-0.3,1.7-0.9,1.9v0.1
			l3.2,2.7l2.8-2.5L27.6,23V12.2l1.2-1.3l2.2,1.5v10c0,2.2,1.2,3.4,3,3.9l3.4-3.5L37.2,22.6z M98.6,11.4c-1.4-0.9-3.9-2.5-5.1-3.3
			c-1.9,1.4-4.6,3.1-7,4.3V21c0,1.4-0.3,1.6-0.8,1.9V23c2,1.3,3.1,2,5,3.3c1.8-1.5,5.5-3.5,7.1-4.2v-8.7
			C97.8,12,98.1,11.7,98.6,11.4L98.6,11.4z M93.4,24c-0.9-0.7-2.5-1.8-2.9-2.1V10.6l0.4-0.2c0.6,0.5,2.1,1.6,3,2.2v11.2L93.4,24z
			 M82.9,21.3v-7.7c0-1.5,0.2-1.8,0.8-2.1v-0.1l-5-3.3c-1.6,1.2-4.2,2.7-7.1,4.3v8.2c0,1.7-0.2,2-0.8,2.3v0.1c0,0,1.9,1.2,5.3,3.4
			l2.9-3c0.4,2.6,3,2.4,3,3.8c0,0.5-0.8,1.1-1.1,1.3c-1-0.7-2.6-1.2-3.9-1.2c-3.1,0-5.3,1.7-6.4,3.8l0.1,0c1.4-0.6,2.5-0.8,4.4-0.8
			c1.5,0,2.1,0.2,3.2,0.8c0,0,1.1-0.8,3.2-2.5c1.6-1.3,3.1-2.4,3.1-3.5C84.5,23.3,82.9,23.2,82.9,21.3z M78.2,23.6l-2.7-1.9V10.6
			l0.4-0.2c0,0,1.5,1.2,3,2.1v10.4L78.2,23.6z M69.8,22.6l-1,1c-0.9-0.3-1.3-1.2-1.3-2.1v-7.9c0-1.2,0.3-1.5,0.9-1.8v-0.1l-5.3-3.6
			l-5.9,3.7c0.4,2.1,1.9,3.8,3.8,4.7v0c-2.2,0.8-4.5,2.3-4.5,5.2c0,2.2,1.4,3.9,3.2,4.7l3.9-3.5c0.1,2.2,1.4,3,3,3.5l3.4-3.5
			L69.8,22.6z M61.5,16.2c-1.3-1.3-1.5-3.8-1.7-5.7l0.4-0.3l3.4,2.3v3.2C63,15.9,61.9,16.1,61.5,16.2z M62.1,23.6
			c-1.6-0.6-2.2-1.7-2.2-3.4c0-2.1,1.3-3.8,3.7-4v6.1L62.1,23.6z M22.4,0.7c-0.5,0.4-1.3,0.8-2.4,0.8c-1.1,0-1.9-0.3-2.6-1.1
			c-2.2,1.7-6.1,3.9-8.6,5.1v0.1c0.6,0.2,0.8,0.6,0.8,1.9v14.3l-0.8,0.6c-2.5-1.9-4.1-5.2-4.1-9.8c0-5.2,2-8.2,5.7-10.7l-0.3-0.2
			C6.1,3.3,0,7.4,0,14.8c0,8.1,5.1,12.8,12.1,12.8c5.1,0,8.4-3.3,10.2-5.4l-0.1-0.4c-1.6,1.1-3.3,1.9-5.2,2.2V5.3
			c0.3,0.1,0.7,0.1,1,0.1c3,0,4.6-2.2,4.7-4.6L22.4,0.7z M15.8,24c-2.5,0-5-0.2-6.6-1.4l4.9-3.3V3.2l0.1-0.1
			c0.6,0.9,1.3,1.7,2.3,2.1V24C16.2,24,16,24,15.8,24z"/>
		<path fill="#FFFFFF" d="M24.6,2.7l-0.1,0.2H24l0-0.3c0-0.3-0.1-0.5-0.2-0.7c0,0.3,0.1,0.6,0.1,1.1v18.5c0,1-0.2,1.6-0.6,2
			c0.5,0.4,2.3,2,2.7,2.2c0.3-0.3,1.8-1.6,2.3-2c-0.4-0.2-1-0.6-1-0.6V2.7c0-1,0.3-1.8,0.7-2.4C26.4,0.6,25.4,1.3,24.6,2.7z
			 M14.2,2.6c0,0.1,0.1,0.1,0.1,0.1c0.5,0.8,1.2,1.6,2.1,1.9l0.2,0.1v0c0.1,0,0.2,0,0.2,0c0.3,0.1,0.6,0.1,0.9,0.1
			c2.7,0,4.1-2,4.3-3.9c-0.7,0.4-1.4,0.6-2.3,0.6c-1.1,0-1.9-0.4-2.6-1C16.4,1.3,15.3,2,14.2,2.6z M38.5,3.1
			c0.3,0.3,1.6,1.5,1.9,1.9c0.3-0.3,1.6-1.6,1.9-2c-0.3-0.3-1.6-1.6-1.9-2C40.1,1.4,38.8,2.8,38.5,3.1z M0.1,14.6
			c0,7.6,4.6,12.5,11.7,12.5c4.8,0,8-3.1,9.4-4.7c-1.5,0.9-3,1.5-4.5,1.7c0,0-0.1,0-0.1,0c0,0,0,0,0,0l-1,0c-2.4,0-5-0.2-6.8-1.4
			l-0.4-0.3c0,0,0,0,0,0c-1.9-1.5-4.2-4.5-4.2-10C4.1,8,5.5,5,8.7,2.4C4.3,4.5,0.1,8.6,0.1,14.6z M9.2,5.4c0.4,0.4,0.5,1,0.5,2
			c0,0,0,14,0,14.2c1.2-0.8,3.5-2.4,3.8-2.5c0-0.3,0-16,0-16C11.8,4,10.2,4.9,9.2,5.4z M60.3,9.9c0.1,0.1,3.4,2.3,3.4,2.3v10
			c0,0,0,0,0,0c0,0.2,0,0.3,0,0.3c0.1,2,1.3,2.7,2.6,3.2c0.2-0.2,1.1-1.1,2.1-2.1c-1-0.4-1.4-1.4-1.4-2.3v-7.9c0-1,0.2-1.5,0.7-1.9
			c-0.6-0.4-4.5-3-4.8-3.2C62.8,8.4,61.6,9.1,60.3,9.9z M90.8,10c0,0,0.4,0.3,0.4,0.3c0.7,0.5,1.8,1.4,2.5,1.8l0.2,0.1
			c0,0,0,11,0,11.3c1.3-0.7,2.5-1.4,3.3-1.8c0-0.4,0-8.5,0-8.5c0-1,0.2-1.6,0.6-1.9c-0.6-0.4-4.2-2.8-4.5-3
			C92.6,8.8,91.8,9.4,90.8,10z M76,9.9c0.3,0.2,1.6,1.2,2.9,2l0.2,0.1c0,0,0,10.7,0,10.7c0,0.2,0,0.3,0,0.3c0.2,1.3,1,1.8,1.8,2.3
			c0.6,0.4,1.2,0.8,1.2,1.5c0,0.1,0,0.1,0,0.2c1.1-0.9,1.9-1.7,1.9-2.4c0-0.7-0.3-1.1-0.7-1.6c-0.4-0.5-0.9-1.1-0.9-2.2v-7.7
			c0-1.3,0.2-1.8,0.6-2.1c-0.6-0.4-4.2-2.8-4.5-3C77.9,8.8,77,9.3,76,9.9z M38,10.4c0,0,1.2,0.8,1.2,0.8V22c0,2.2,1,3.1,2.6,3.7
			c0.2-0.2,1.1-1.1,2.1-2.1c-1-0.2-1.5-1.1-1.5-2v-9.5c0-1,0.2-1.5,0.6-1.8c-0.5-0.4-2.7-1.8-3-2C39.8,8.5,38.9,9.5,38,10.4z
			 M28.8,10.4c0,0,2.3,1.6,2.3,1.6v10.2c0,1.8,0.8,3,2.6,3.6c0.2-0.2,1.1-1.2,2.1-2.1c-1-0.5-1.4-1.1-1.4-2.4V13
			c0-0.9,0.2-1.4,0.6-1.8c-0.9-0.6-2-1.4-3.1-2.1c0,0-0.9-0.6-1.2-0.8C30.6,8.6,29.8,9.5,28.8,10.4z M51.1,9.8
			C51.1,9.8,51.1,9.8,51.1,9.8c0.4,0.9,1.3,2,2.9,2c1.5,0,2.5-1.3,2.7-2.6c-0.4,0.1-0.9,0.2-1.4,0.2c-0.9,0-1.6-0.5-2-1
			C52.7,8.8,51.9,9.3,51.1,9.8z M47,12.2c0,0.4,0,8.5,0,8.5c0,0.4,0,1.3-0.6,1.8c0.6,0.4,4.8,2.9,5.2,3.1c0.2-0.2,1-1,2-2.1
			c0,0-3.3-2-3.3-2s0-10.9,0-11.3C49.2,11,48.1,11.6,47,12.2z M57.4,11.7c0.4,1.7,1.6,3.2,3.3,4.1c-0.9-1.3-1.2-3.3-1.3-5.3
			C58.4,11.1,57.5,11.6,57.4,11.7z M71.7,12.3c0,0.4,0,8,0,8c0,1.3-0.1,2-0.6,2.4c0.6,0.4,4.4,2.8,4.7,3c0.2-0.2,1.3-1.3,2-2
			c0,0-2.8-1.9-2.8-1.9s0-11,0-11.2C74,11.1,73,11.7,71.7,12.3z M86.6,12.3c0,0.4,0,8.5,0,8.5c0,1.1-0.2,1.6-0.6,2
			c1.3,0.8,2.3,1.5,3.4,2.2c0,0,0.8,0.5,1.1,0.7c0.7-0.5,1.6-1.1,2.5-1.7c-0.7-0.5-1.8-1.3-2.4-1.7l-0.6-0.4l0-0.2c0,0,0-11,0-11.2
			C88.8,11.2,87.7,11.8,86.6,12.3z M61.2,16.4L61.2,16.4c-0.2,0.1-0.3,0.1-0.3,0.1c-2.8,1-4.3,2.7-4.3,4.9c0,1.8,1.1,3.5,2.9,4.3
			c0.2-0.2,1.2-1.1,2.2-2c-1.6-0.7-2.3-1.8-2.3-3.7C59.4,18.4,60.1,17.2,61.2,16.4C61.2,16.4,61.2,16.4,61.2,16.4z M71,30.2
			c1.1-0.4,2.2-0.5,3.8-0.5c1.5,0,2.1,0.1,3.2,0.7c0.3-0.2,1.2-0.9,2.5-1.9c-0.9-0.6-2.4-1.2-3.7-1.2C74.4,27.3,72.3,28.4,71,30.2z"
			/>
	</g>
	<g>
		<path fill="#FFFFFF" d="M190.7,22.9l-3.4,3.5c-2.2-0.7-3-2-3-4V12.3l-1.8-1.3l-1.6,1.6v10.5l1.3,0.8l-2.8,2.5l-3.2-2.7v-0.1
			c0.7-0.3,0.8-0.7,0.8-1.9v-9c0-1-0.5-1.7-1.4-1.8l-1,1.1l-0.3-0.3l3.5-3.5c2,0.5,3.2,1.8,3.2,3.9l3.7-3.9c1.2,0.9,3,2.2,4.4,3v0.1
			c-0.6,0.2-0.8,0.7-0.8,1.8v8.6c0,1.2,0.4,1.7,1.3,2.1l1-1L190.7,22.9z"/>
		<path fill="#FFFFFF" d="M175,22.9l-3.3,3.5c-1.6-0.3-3.1-1.9-3.1-3.5l-3.9,3.5c-1.5-1.1-2.9-2-4.3-2.8v-0.1c0.7-0.4,0.9-0.6,0.9-2
			v-8.9c0-0.9-0.5-1.5-1.2-1.7l-0.9,1l-0.3-0.2l3.3-3.5c1.6,0.6,3,1.8,3,3.9v10.4l1.9,1.3l1.5-1.4V11.4l-1.1-0.8l2.7-2.5l3.2,2.6
			v0.1c-0.6,0.3-0.8,0.6-0.8,1.7v8.8c0,1.4,0.2,1.9,1.3,2.4l0.9-1L175,22.9z"/>
		<polygon fill="#FFFFFF" points="142.2,3.3 139.9,5.7 137.5,3.4 139.9,0.8 		"/>
		<path fill="#FFFFFF" d="M144.8,22.8l-3.5,3.6c-1.9-0.7-3.1-1.6-3.1-4.1V11.7l-1.1-0.8l-1,1l-0.2-0.2l3.4-3.5l3.6,2.4v0.1
			c-0.6,0.3-0.8,0.6-0.8,1.4v9.9c0,0.8,0.5,1.6,1.4,1.7l1-1.1L144.8,22.8z"/>
		<path fill="#FFFFFF" d="M136.3,9.3c-0.2,1.4-1.2,3.2-3,3.2c-1.1,0-2-0.6-2.4-1.4l-0.3,0.3c0,0.2,0,0.5,0,0.7v9.9l3,1.7l1-1
			l0.3,0.2l-3.5,3.6l-5.4-3.4v-0.1c0.6-0.3,0.8-0.6,0.8-1.6V13c0-1.4-0.3-2-1.4-2.2l-1.1,1.1l-0.3-0.2l3.4-3.5
			c1.7,0.5,2.8,1.4,3.1,2.8l2.6-2.8c0.5,0.7,1.1,1.2,1.9,1.2c0.5,0,0.8-0.1,1.2-0.2L136.3,9.3z"/>
		<path fill="#FFFFFF" d="M126.1,0.8c-0.4,3-1.6,5.7-4.8,5.7c-0.4,0-0.9-0.1-1.2-0.1v17.8c1.9-0.3,4.1-1.2,5.1-2l0.1,0.4
			c-1.4,2.1-5.4,5.3-10.4,5.3c-6.3,0-11.1-4.1-11.1-10.8c0-5.7,4.7-9.9,7.8-11l0.3,0.1c-2.2,2-3.7,4.6-3.7,8.9
			c0,3.5,1.4,5.7,3.4,7.4l1.2-0.6V11c0-1.2-0.4-1.5-0.8-1.6V9.3l5.2-2.8V20l-5.2,2.7c1.4,1.1,3.6,1.6,5.8,1.6c0.7,0,1.1,0,1.9-0.2
			V6.3c-3.9-0.3-8-2-11.2-2c-2.2,0-3.9,0.9-3.9,2.6c0,1,0.8,1.5,1.3,1.7l-0.4,0.2c-0.9-0.4-2.1-1.5-2.1-3.7c0-3.2,2.6-5.3,6-5.3
			c4.8,0,9.2,2.5,13.4,2.5c1.3,0,2.5-0.7,3.1-1.9L126.1,0.8z"/>
		<path fill="#FFFFFF" d="M202.9,13.3c-2.3,1.4-4.9,3.2-7,4.6v3.8l3.3,1.8l1.8-1.9l0.2,0.2l-4.3,4.4l-5.9-3.6v-0.1
			c0.6-0.2,0.9-0.5,0.9-1.9v-8.4c2.4-1.1,4.9-2.9,6.8-4.2L202.9,13.3z M199.3,15.2c-0.6-0.8-2.4-3.5-3.1-4.7l-0.2,0.1v6.8
			L199.3,15.2z"/>
		<path fill="#FFFFFF" d="M158.3,11.6c-0.7,0.3-0.8,0.8-0.8,1.6v9c-1.6,0.7-5.3,2.7-7.1,4.2c-1.3-0.9-3.4-2.3-5.1-3.3V23
			c0.7-0.3,0.9-0.7,0.9-2.2V3.4c0-1.2-0.2-1.8-0.5-2.3l0.2-0.1c0.6,0.5,0.9,1.1,1.1,1.8h0.1c0.9-1.5,2-2.4,4.1-2.7l0,0.2
			c-0.6,0.7-1,1.4-1,2.8v8.6l3.4-3.5C154.7,9,157,10.7,158.3,11.6L158.3,11.6z M153.6,23.8V12.5l-2.2-1.5l-1.2,1.2v9.6l3,2.2
			L153.6,23.8z"/>
		<path fill="#FFFFFF" d="M190.4,22.6l-1,1c-0.9-0.4-1.3-0.9-1.3-2.1V13c0-1.1,0.2-1.6,0.8-1.8v-0.1c-1.3-0.8-3.1-2.1-4.4-3
			l-3.7,3.9c0-2.1-1.2-3.4-3.2-3.9l-3.5,3.5l0.3,0.3l1-1.1c0.9,0.1,1.4,0.8,1.4,1.8v9c0,1.2-0.2,1.6-0.8,1.9v0.1l3.2,2.7l2.8-2.5
			l-1.3-0.8V12.6l1.6-1.6l1.8,1.3v10.1c0,2,0.8,3.2,3,4l3.4-3.5L190.4,22.6z M174.7,22.7l-0.9,1c-1.1-0.5-1.3-1-1.3-2.4v-8.8
			c0-1.1,0.2-1.4,0.8-1.7v-0.1l-3.2-2.6l-2.7,2.5l1.1,0.8v10.9l-1.5,1.4l-1.9-1.3V12c0-2.1-1.4-3.3-3-3.9l-3.3,3.5l0.3,0.2l0.9-1
			c0.8,0.3,1.2,0.8,1.2,1.7v8.9c0,1.4-0.1,1.6-0.9,2v0.1c1.3,0.8,2.7,1.8,4.3,2.8l3.9-3.5c0,1.7,1.4,3.2,3.1,3.5l3.3-3.5L174.7,22.7
			z M139.9,0.8l-2.4,2.6l2.4,2.3l2.4-2.4L139.9,0.8z M144.5,22.5l-1,1.1c-0.9-0.1-1.4-0.9-1.4-1.7V12c0-0.8,0.3-1,0.8-1.4v-0.1
			l-3.6-2.4l-3.4,3.5l0.2,0.2l1-1l1.1,0.8v10.6c0,2.4,1.1,3.4,3.1,4.1l3.5-3.6L144.5,22.5z M136.2,9.1c-0.3,0.2-0.7,0.2-1.2,0.2
			c-0.7,0-1.4-0.5-1.9-1.2l-2.6,2.8c-0.3-1.4-1.4-2.4-3.1-2.8l-3.4,3.5l0.3,0.2l1.1-1.1c1.1,0.2,1.4,0.8,1.4,2.2v8.3
			c0,0.9-0.2,1.3-0.8,1.6V23l5.4,3.4l3.5-3.6l-0.3-0.2l-1,1l-3-1.7V12c0-0.2,0-0.5,0-0.7l0.3-0.3c0.5,0.7,1.3,1.4,2.4,1.4
			c1.8,0,2.8-1.8,3-3.2L136.2,9.1z M125.9,0.6c-0.6,1.3-1.8,1.9-3.1,1.9c-4.2,0-8.7-2.5-13.4-2.5c-3.4,0-6,2.1-6,5.3
			c0,2.2,1.2,3.2,2.1,3.7l0.4-0.2c-0.5-0.2-1.3-0.7-1.3-1.7c0-1.7,1.7-2.6,3.9-2.6c3.2,0,7.3,1.7,11.2,2v17.8
			c-0.8,0.1-1.2,0.2-1.9,0.2c-2.1,0-4.4-0.6-5.8-1.6l5.2-2.7V6.5l-5.2,2.8v0.1c0.4,0.1,0.8,0.5,0.8,1.6v10.8l-1.2,0.6
			c-2.1-1.7-3.4-3.9-3.4-7.4c0-4.2,1.5-6.9,3.7-8.9L111.7,6c-3.1,1.1-7.8,5.2-7.8,11c0,6.7,4.8,10.8,11.1,10.8
			c4.9,0,8.9-3.2,10.4-5.3l-0.1-0.4c-0.9,0.7-3.1,1.7-5.1,2V6.3c0.2,0,0.8,0.1,1.2,0.1c3.2,0,4.4-2.7,4.8-5.7L125.9,0.6z M198.8,8.1
			c-1.8,1.4-4.4,3.2-6.8,4.2v8.4c0,1.4-0.3,1.7-0.9,1.9v0.1l5.9,3.6l4.3-4.4l-0.2-0.2l-1.8,1.9l-3.3-1.8v-3.8c2-1.5,4.7-3.2,7-4.6
			L198.8,8.1z M195.9,17.4v-6.8l0.2-0.1c0.8,1.2,2.6,3.9,3.1,4.7L195.9,17.4z M158.3,11.5c-1.3-0.8-3.6-2.5-4.8-3.3l-3.4,3.5V3.1
			c0-1.4,0.4-2,1-2.8l0-0.2c-2.1,0.3-3.2,1.2-4.1,2.7H147c-0.2-0.8-0.5-1.4-1.1-1.8L145.7,1c0.3,0.5,0.5,1.1,0.5,2.3v17.4
			c0,1.5-0.2,1.9-0.9,2.2V23c1.7,1,3.8,2.4,5.1,3.3c1.8-1.5,5.5-3.5,7.1-4.2v-9C157.5,12.3,157.6,11.8,158.3,11.5L158.3,11.5z
			 M153.1,24l-3-2.2v-9.6l1.2-1.2l2.2,1.5v11.4L153.1,24z"/>
		<path fill="#FFFFFF" d="M103.5,5.1c0,1.1,0.3,1.9,0.7,2.4c-0.1-0.2-0.1-0.4-0.1-0.7c0-1.8,1.7-3,4.2-3c1.7,0,3.7,0.5,5.8,1
			c1.8,0.4,3.7,0.9,5.5,1c0,0,0.5,0,0.9,0.1c0.5,0,0.7,0,0.7,0c2.3,0,3.8-1.6,4.3-4.6c-0.7,0.9-1.7,1.4-2.9,1.4
			c-2.1,0-4.2-0.6-6.4-1.2c-2.3-0.6-4.6-1.3-7-1.3C105.8,0.1,103.5,2.2,103.5,5.1z M147.1,2.8l-0.1,0.2h-0.5l-0.1-0.3
			c-0.1-0.3-0.1-0.5-0.2-0.7c0.1,0.3,0.1,0.7,0.1,1.2v17.4c0,1.2-0.1,1.9-0.7,2.2c1.5,0.9,3.2,2.1,4.5,3c0.7-0.5,1.6-1.1,2.5-1.7
			c-0.1-0.1-3.1-2.3-3.1-2.3v-19c0-1.2,0.3-1.9,0.7-2.5C148.7,0.7,147.8,1.6,147.1,2.8z M137.7,3.2c0.3,0.3,1.6,1.5,1.9,1.9
			c0.3-0.3,1.6-1.6,1.9-2c-0.3-0.3-1.6-1.6-1.9-2C139.3,1.5,138.1,2.8,137.7,3.2z M104,16.8c0,6.2,4.4,10.5,10.8,10.5
			c4.3,0,7.9-2.5,9.6-4.5c-1.1,0.6-2.8,1.3-4.4,1.5l-0.4,0.1v0c0,0-0.1,0-0.1,0c-0.8,0.1-1.2,0.2-1.9,0.2c-2.3,0-4.6-0.6-6-1.7
			l-0.4-0.3c0,0,0,0,0,0c-2.4-2-3.5-4.4-3.5-7.6c0-3.4,1-6.1,3-8.3C107.7,8,104,11.8,104,16.8z M112.5,9.1c0.4,0.3,0.6,0.9,0.6,1.7
			c0,0,0,10.5,0,10.7c1.4-0.7,3.5-1.8,3.8-1.9c0-0.4,0-11.8,0-12.8C116.1,7.2,113.1,8.8,112.5,9.1z M175.5,10.4c1,0.2,1.6,1,1.6,2.1
			v9c0,1-0.1,1.6-0.7,2c0.4,0.4,2.4,2,2.7,2.2c0.3-0.3,1.8-1.6,2.3-2c-0.4-0.2-1.1-0.7-1.1-0.7V11.9c0-1.8-1-3-2.8-3.5
			C177.4,8.5,176.4,9.5,175.5,10.4z M125.4,10.4c1.2,0.3,1.5,1.2,1.5,2.5v8.3c0,0.7-0.1,1.3-0.6,1.6c0.6,0.4,4.4,2.8,4.8,3.1
			c0.2-0.2,1.1-1.2,2.1-2.1c-0.1,0-3.1-1.7-3.1-1.7V11.8c0,0,0-0.6,0-0.6c0-0.2-0.1-0.4-0.1-0.4c-0.3-1.2-1.2-2.1-2.7-2.5
			C127.2,8.5,126.3,9.4,125.4,10.4z M160,10.4c0.9,0.3,1.4,1,1.4,2v8.9c0,1.2-0.1,1.6-0.6,2c1.1,0.7,2.3,1.5,3.5,2.3
			c0,0,0.1,0.1,0.2,0.1c0.2-0.2,1.2-1.1,2.2-2l-2-1.4V11.9c0-2.2-1.7-3.2-2.6-3.5C161.8,8.5,160.9,9.5,160,10.4z M196.2,10
			C196.2,10.1,196.2,10.1,196.2,10c0.8,1.3,2.6,4,3.2,4.8c0,0,0,0,0,0.1c1-0.6,1.9-1.3,2.8-1.8c-0.4-0.5-3.4-4.3-3.7-4.7
			C197.7,9,196.9,9.5,196.2,10z M167.7,10.4c0.3,0.2,0.9,0.6,0.9,0.6s0,10.6,0,10.9c0,0,0,0,0,0v0.7c0,1.4,1.2,2.8,2.7,3.2
			c0.2-0.2,1.1-1.2,2-2.1c-1.2-0.5-1.4-1.2-1.4-2.6v-8.8c0-0.9,0.2-1.4,0.6-1.8c-0.5-0.4-2.3-1.9-2.6-2.1
			C169.6,8.7,168.2,10,167.7,10.4z M151.3,10.5c0,0,2.3,1.6,2.3,1.6s0,11.2,0,11.4c1.2-0.7,2.5-1.3,3.3-1.7c0-0.4,0-8.8,0-8.8
			c0-0.6,0.1-1.3,0.6-1.7c-1.4-0.9-3.4-2.3-4.2-2.9C153.1,8.6,152.2,9.5,151.3,10.5z M182.4,10.5c0,0,2,1.4,2,1.4v10.3
			c0,1.9,0.8,2.9,2.6,3.6c0.2-0.2,1.1-1.1,2.1-2.1c-0.8-0.4-1.4-1-1.4-2.3v-8.6c0-0.9,0.1-1.5,0.5-1.8c-1.4-0.9-3-2-3.8-2.6
			C184.2,8.6,183.4,9.5,182.4,10.5z M137.2,10.5c0,0,1.2,0.8,1.2,0.8v10.8c0,2.2,1,3.1,2.6,3.7c0.2-0.2,1.1-1.1,2.1-2.1
			c-1-0.2-1.5-1.1-1.5-2v-9.9c0-0.8,0.2-1.1,0.6-1.4c-0.5-0.4-2.7-1.8-3-2C139,8.6,138.1,9.5,137.2,10.5z M130.9,10.6
			C130.9,10.7,131,10.7,130.9,10.6c0.3,0.5,1,1.3,2.2,1.3c1.5,0,2.4-1.5,2.6-2.6c-0.3,0.1-0.6,0.1-0.9,0.1c-0.7,0-1.3-0.4-1.9-1
			C132.6,8.8,131.4,10.1,130.9,10.6z M192.1,12.4c0,0.4,0,8.2,0,8.2c0,1-0.2,1.6-0.6,2c0.7,0.4,4.9,3,5.3,3.2c0.2-0.2,1-1.1,2-2.1
			c-0.1-0.1-3.4-1.9-3.4-1.9s0-11,0-11.2C194.2,11.3,193.1,11.9,192.1,12.4z"/>
	</g>
</g>
</svg>
