<?xml version="1.0" encoding="utf-8"?>
<!-- Generator: Adobe Illustrator 16.0.0, SVG Export Plug-In . SVG Version: 6.00 Build 0)  -->
<!DOCTYPE svg PUBLIC "-//W3C//DTD SVG 1.1//EN" "http://www.w3.org/Graphics/SVG/1.1/DTD/svg11.dtd">
<svg version="1.1" id="Layer_1" xmlns="http://www.w3.org/2000/svg" xmlns:xlink="http://www.w3.org/1999/xlink" x="0px" y="0px"
	 width="182.4px" height="31px" viewBox="0 0 182.4 31" enable-background="new 0 0 182.4 31" xml:space="preserve">
<polygon fill-rule="evenodd" clip-rule="evenodd" fill="#FFFFFF" points="125.4,1.2 139,31 145,18.8 151,31 164.4,1.2 157.6,1.2 
	150.4,17.5 147.8,12 152.8,1.3 146.4,1.2 145,5.1 143.1,1.2 137,1.2 141.9,11.7 139.4,17.3 131.7,1.2 125.4,1.2 125.4,1.2 "/>
<polygon fill-rule="evenodd" clip-rule="evenodd" fill="#FFFFFF" points="0,0 17.8,16.8 17.8,1.1 23.5,1.1 23.5,30.2 5.8,13.1 
	5.8,29.2 0,29.2 0,0 0,0 "/>
<path fill-rule="evenodd" clip-rule="evenodd" fill="#FFFFFF" d="M26.8,1.1h12.1c1.9,0,7.1,1.4,7.3,7.1c0.1,4.2-3.3,6.2-3.3,6.2
	c1.9,0.9,4.8,3.1,4.8,7.5c0,4.3-3.8,7.5-7.1,7.5H26.8V1.1L26.8,1.1L26.8,1.1L26.8,1.1z M32.6,12.6H37c1.7-0.2,3.1-1.6,3.1-3.5
	c0-2-1.7-3.1-3.2-3.2h-4.3V12.6L32.6,12.6L32.6,12.6L32.6,12.6z M32.6,25c0.9,0,5.1,0,5.1,0c1.3-0.1,3.5-1.2,3.5-3.8
	c0-2.5-2.2-3.7-3.4-3.7h-5.3L32.6,25L32.6,25L32.6,25z"/>
<path fill-rule="evenodd" clip-rule="evenodd" fill="#FFFFFF" d="M69.7,7.2c-6.1-4.1-14.3,0.1-14.9,7.6c-0.2,9.1,8.8,12.9,14.9,8.9
	c0,0.1,0,5.8,0,5.8C58.9,33.6,49,26,49,15C49,5.7,59.3-2.6,69.7,1.5V7.2L69.7,7.2z"/>
<path fill-rule="evenodd" clip-rule="evenodd" fill="#FFFFFF" d="M174.9,19c-8.6-5.7-7.9-5.1-8.5-6.1c-0.6-1-2.4-6.1,1.7-10.5
	c4.1-4.4,12.5-0.6,12.5-0.6v5.7c0,0-7.1-4.1-9.1-0.4c-2,3.8,5.4,6,5.4,6s4.9,2.9,5.4,6c0.4,3.1,0.1,9.4-4.9,10.6
	c0,0-4.9,2.7-11.4-0.7l0.1-6.4c0,0,2.8,3.1,6.7,2.9C176.7,25.2,177.8,20.9,174.9,19L174.9,19L174.9,19z"/>
<polygon fill-rule="evenodd" clip-rule="evenodd" fill="#FFFFFF" points="108.1,0.9 108.1,29.5 123.8,29.5 123.9,24.7 114.3,24.7 
	114.3,17.9 123.9,17.9 123.9,12.6 114.3,12.6 114.3,6.2 123.9,6.2 123.9,0.9 108.1,0.9 108.1,0.9 "/>
<polygon fill-rule="evenodd" clip-rule="evenodd" fill="#FFFFFF" points="81.8,0.1 99.6,17 99.6,1.1 105.4,1.1 105.4,30.5 
	87.6,13.2 87.6,29.6 81.8,29.6 81.8,0.1 "/>
</svg>
