<?xml version="1.0" encoding="utf-8"?>
<!-- Generator: Adobe Illustrator 16.0.0, SVG Export Plug-In . SVG Version: 6.00 Build 0)  -->
<!DOCTYPE svg PUBLIC "-//W3C//DTD SVG 1.1//EN" "http://www.w3.org/Graphics/SVG/1.1/DTD/svg11.dtd">
<svg version="1.1" id="Layer_1" xmlns="http://www.w3.org/2000/svg" xmlns:xlink="http://www.w3.org/1999/xlink" x="0px" y="0px"
	 width="240.84px" height="31px" viewBox="0 0 240.84 31" enable-background="new 0 0 240.84 31" xml:space="preserve">
<polygon fill-rule="evenodd" clip-rule="evenodd" fill="#FFFFFF" points="183.811,1.176 197.464,30.995 203.452,18.78 
	209.439,30.995 222.854,1.176 216.027,1.176 208.841,17.463 206.205,11.954 211.236,1.293 204.889,1.173 203.449,5.126 
	201.535,1.173 195.426,1.173 200.336,11.713 197.82,17.343 190.154,1.176 183.808,1.176 183.811,1.176 "/>
<polygon fill-rule="evenodd" clip-rule="evenodd" fill="#FFFFFF" points="58.453,0.002 76.245,16.778 76.245,1.069 82.002,1.069 
	82.002,30.167 64.249,13.061 64.249,29.211 58.453,29.211 58.453,0 58.453,0.002 "/>
<path fill-rule="evenodd" clip-rule="evenodd" fill="#FFFFFF" d="M85.228,1.146h12.145c1.857,0,7.134,1.412,7.318,7.095
	c0.149,4.232-3.34,6.203-3.34,6.203c1.892,0.891,4.79,3.083,4.79,7.54c0,4.345-3.826,7.54-7.096,7.54H85.228V1.144V1.146
	L85.228,1.146L85.228,1.146z M91.06,12.587h4.42c1.747-0.225,3.083-1.562,3.083-3.455c0-2.007-1.747-3.121-3.194-3.233h-4.31V12.587
	L91.06,12.587L91.06,12.587L91.06,12.587z M91.096,24.954c0.933,0,5.126,0,5.126,0c1.301-0.112,3.526-1.224,3.526-3.788
	c0-2.487-2.192-3.677-3.38-3.714h-5.275v7.502H91.096L91.096,24.954z"/>
<path fill-rule="evenodd" clip-rule="evenodd" fill="#FFFFFF" d="M128.131,7.219c-6.093-4.05-14.338,0.075-14.858,7.577
	c-0.224,9.103,8.764,12.854,14.858,8.916c0,0.147,0,5.83,0,5.83c-10.772,4.013-20.654-3.564-20.69-14.559
	c0.036-9.322,10.326-17.568,20.69-13.447V7.219L128.131,7.219z"/>
<path fill-rule="evenodd" clip-rule="evenodd" fill="#FFFFFF" d="M233.332,18.962c-8.59-5.727-7.903-5.12-8.532-6.111
	c-0.628-0.987-2.425-6.107,1.706-10.511c4.131-4.4,12.485-0.628,12.485-0.628v5.659c0,0-7.097-4.131-9.072-0.358
	c-1.976,3.771,5.392,6.017,5.392,6.017s4.938,2.872,5.388,6.017c0.449,3.145,0.09,9.432-4.94,10.6c0,0-4.851,2.695-11.408-0.719
	l0.091-6.375c0,0,2.785,3.054,6.738,2.875c3.953-0.182,5.119-4.491,2.156-6.466H233.332L233.332,18.962z"/>
<polygon fill-rule="evenodd" clip-rule="evenodd" fill="#FFFFFF" points="166.597,0.943 166.597,29.507 182.225,29.507 
	182.315,24.746 172.772,24.746 172.772,17.92 182.315,17.92 182.315,12.62 172.772,12.62 172.772,6.244 182.315,6.244 
	182.315,0.943 166.598,0.943 166.597,0.943 "/>
<polygon fill-rule="evenodd" clip-rule="evenodd" fill="#FFFFFF" points="140.301,0.06 158.092,17.001 158.092,1.137 163.85,1.137 
	163.85,30.518 146.093,13.247 146.093,29.556 140.301,29.556 140.301,0.06 "/>
<path fill-rule="evenodd" clip-rule="evenodd" fill="#FFFFFF" d="M47.362,29.234c-0.823,0.366-1.736,0.529-2.712,0.529L5.666,29.729
	c-2.204-0.168-4.37-1.987-4.983-4.162c-0.655-2.175-0.02-4.422,1.419-6.006c1.389-1.433,3.177-2.031,5.162-1.807
	c-1.867-1.271-2.652-3.375-2.382-5.629c0.249-1.961,1.667-3.872,3.486-4.651c2.076-0.935,4.698-0.428,6.326,1.146
	c-0.337-1.146-0.516-2.794-0.051-3.973c0.556-1.859,2.364-3.513,4.198-3.9c2.453-0.529,4.788,0.396,6.196,2.5
	c0.268,0.394,0.427,0.842,0.636,1.258c0.706-2.012,2.742-3.679,4.808-3.893c2.135-0.275,4.151,0.641,5.491,2.438
	c1.042,1.494,1.399,3.719,0.725,5.516h0.08c1.549-1.392,3.893-1.9,5.887-1.127c1.906,0.63,3.524,2.662,3.782,4.665
	c0.29,2.215-0.467,4.155-2.144,5.586c2.542-0.149,4.956,1.203,5.999,3.567c0.913,2.065,0.646,4.828-0.903,6.503
	c-0.624,0.631-1.291,1.159-2.036,1.475H47.362L47.362,29.234z"/>
<path fill-rule="evenodd" clip-rule="evenodd" fill="#FFFFFF" d="M43.231,17.754l-14.417,9.64l4.856-11.542l2.303-5.373
	c0.932-1.736,2.691-2.845,4.608-2.876c1.835,0,3.464,0.883,4.497,2.469c1.062,1.586,1.123,4.177,0.061,5.78
	c-0.477,0.754-1.181,1.424-1.905,1.902H43.231L43.231,17.754z"/>
<path fill-rule="evenodd" clip-rule="evenodd" fill="#DBDBDB" d="M36.052,8.65l-7.13,16.855l-0.318-1.838L26.46,9.851
	c-0.089-0.845,0.258-1.555,0.933-2.023l1.023-0.609c0.061-0.212-0.238-0.283-0.378-0.357l-2.006-0.019
	c-0.127-1.992,0.744-3.798,2.433-4.888c1.31-0.852,3.307-1.077,4.767-0.385c1.895,0.772,3.216,2.795,3.247,4.856
	c-0.009,0.762-0.14,1.544-0.426,2.227V8.65L36.052,8.65z"/>
<path fill-rule="evenodd" clip-rule="evenodd" fill="#C1C1C1" d="M22.359,25.566L15.34,8.67c-0.753-1.809-0.435-4.187,0.856-5.648
	c1.38-1.537,3.326-2.186,5.331-1.667c1.698,0.417,3.286,2.042,3.705,3.778c0.197,0.652,0.168,1.435,0.13,2.146l-2.999,18.289H22.359
	L22.359,25.566z"/>
<path fill-rule="evenodd" clip-rule="evenodd" fill="#F4F4F4" d="M7.355,17.145c-1.441-1.25-2.083-2.917-1.876-4.846
	c0.209-1.953,1.749-3.862,3.584-4.45c1.887-0.59,3.941-0.123,5.312,1.292c0.576,0.548,0.933,1.198,1.231,1.869l6.784,16.419
	L7.355,17.147V17.145L7.355,17.145z"/>
<path fill-rule="evenodd" clip-rule="evenodd" fill="#FFFFFF" d="M5.815,29.139c-1.876-0.214-3.321-1.224-4.203-2.944
	c-0.893-1.737-0.662-4.2,0.54-5.739c1.308-1.568,3.202-2.356,5.109-1.972c0.778,0.126,1.429,0.46,2.043,0.847l14.595,9.813
	L5.815,29.139L5.815,29.139z"/>
<path fill-rule="evenodd" clip-rule="evenodd" fill="#FFFFFF" d="M45.439,29.139c1.876-0.214,3.322-1.224,4.204-2.944
	c0.894-1.737,0.66-4.2-0.54-5.739c-1.308-1.568-3.202-2.356-5.109-1.972c-0.777,0.126-1.429,0.46-2.042,0.847l-14.595,9.813
	l18.081-0.005H45.439L45.439,29.139z"/>
</svg>
