<?xml version="1.0" encoding="utf-8"?>
<!-- Generator: Adobe Illustrator 16.0.0, SVG Export Plug-In . SVG Version: 6.00 Build 0)  -->
<!DOCTYPE svg PUBLIC "-//W3C//DTD SVG 1.1//EN" "http://www.w3.org/Graphics/SVG/1.1/DTD/svg11.dtd">
<svg version="1.1" id="Layer_1" xmlns="http://www.w3.org/2000/svg" xmlns:xlink="http://www.w3.org/1999/xlink" x="0px" y="0px"
	 width="182.031px" height="31px" viewBox="0 0 182.031 31" enable-background="new 0 0 182.031 31" xml:space="preserve">
<g>
	<path fill-rule="evenodd" clip-rule="evenodd" fill="#F2F2F2" d="M60.878,26.282c-0.299-0.516-0.167-1.067-0.144-1.609
		c0.53-0.457,1.177-0.3,1.784-0.322c0.693-0.024,1.389,0.02,2.075-0.115c1.316-0.172,2.64-0.092,3.959-0.079
		c0.782,0.008,1.139-0.278,1.191-1.057c0.037-0.539,0.324-0.855,0.858-0.404c2.453,2.076,5.132,2.046,7.945,0.879
		c0.066-0.027,0.143-0.033,0.216-0.048c2.484-0.17,4.973,0.023,7.456-0.127c0.225,0,0.442,0.058,0.627,0.181
		c1.815,1.201,3.632,0.938,5.453,0.021c0.297-0.148,0.584-0.313,0.888-0.448c0.379-0.166,0.764-0.197,0.915,0.263
		c0.24,0.735,0.801,0.75,1.417,0.738c0.738-0.015,1.478-0.023,2.215,0.002c0.583,0.021,1.091-0.126,1.536-0.498
		c0.379-0.16,0.752-0.147,1.119,0.03c0.336,0.229,0.684,0.432,1.11,0.428c1.838-0.019,3.676,0.106,5.507-0.076
		c0.623-0.303,0.155-1.116,0.691-1.457c0.313-0.142,0.611-0.129,0.894,0.073c0.582,1.475,0.582,1.475,2.253,1.475
		c1.212,0,2.425-0.009,3.638,0.004c0.567,0.005,1.098-0.073,1.546-0.452c0.738-0.326,1.521-0.187,2.286-0.204
		c0.698-0.017,1.398,0.005,2.073-0.218c0.51-0.077,0.927,0.185,1.356,0.384c2.396,1.118,4.691,1.029,6.895-0.508
		c0.973-0.68,1.056-0.642,1.487,0.441c0.102,0.253,0.206,0.504,0.497,0.518c1.32,0.062,2.646,0.173,3.959-0.07
		c0.249-0.047,0.414-0.299,0.653-0.406c1.374-0.301,2.763-0.125,4.146-0.118c0.757,0.044,1.376,0.494,2.077,0.707
		c2.1,0.636,4.144,0.429,6.152-0.375c0.441-0.176,0.854-0.437,1.347-0.471c1.218,0.229,2.484-0.09,3.688,0.314
		c0.453,0.366,0.98,0.457,1.553,0.454c1.879-0.009,3.759-0.03,5.638,0.009c0.75,0.016,1.274-0.227,1.621-0.875
		c1.254-0.423,2.524-0.277,3.795-0.114c0.446,0.14,0.391,0.707,0.777,0.896c0.394,0.146,0.867,0.232,1.185,0.057
		c1.036-0.576,1.973-0.124,2.958,0.096c1.459,0.323,2.908,0.273,4.313-0.308c0.37-0.154,0.739-0.319,1.146-0.373
		c1.759-0.125,3.518-0.053,5.276-0.055c0.402,0,0.812,0.017,1.126,0.333c-0.006,0.83,0.203,1.675-0.144,2.486
		C141.551,26.388,101.215,26.385,60.878,26.282z"/>
	<path fill-rule="evenodd" clip-rule="evenodd" fill="#FFFFFF" d="M61.193,3.374c0.214-0.668,0.525-1.278,1.061-1.756
		c0.553-0.375,1.184-0.359,1.813-0.359c3.137,0,6.274,0,9.411,0c34.911,0,69.822,0,104.733,0.004c0.765,0,1.562-0.133,2.253,0.355
		c0.541,0.479,0.919,1.058,1.107,1.756c-0.276,0.301-0.652,0.316-1.02,0.34c-0.405,0.027-0.812,0.017-1.218,0.017
		c-38.635,0-77.27,0.001-115.905-0.009C62.677,3.721,61.868,3.926,61.193,3.374z"/>
	<path fill-rule="evenodd" clip-rule="evenodd" fill="#EBEBEB" d="M181.478,27.774c-0.298,0.514-0.441,1.119-0.922,1.523
		c-0.71,0.409-1.495,0.343-2.268,0.343c-17.529,0.001-35.059,0.001-52.588,0.001c-20.407,0-40.815,0-61.223-0.001
		c-0.773,0-1.557,0.066-2.268-0.343c-0.466-0.412-0.767-0.924-0.92-1.522c0.219-0.478,0.666-0.533,1.11-0.577
		c0.441-0.044,0.885-0.028,1.327-0.028c38.438-0.001,76.874-0.003,115.311,0.015C179.873,27.185,180.842,26.869,181.478,27.774z"/>
	<path fill-rule="evenodd" clip-rule="evenodd" fill="#EAEAEA" d="M62.209,29.298c0.812-0.006,1.624-0.014,2.436-0.014
		c38.083-0.001,76.166-0.001,114.25,0c0.553,0,1.106,0.008,1.66,0.014c-0.91,1.283-2.2,1.703-3.728,1.702
		c-18.925-0.01-37.85-0.007-56.773-0.007c-18.039,0-36.078-0.003-54.117,0.007C64.41,31.001,63.12,30.581,62.209,29.298z"/>
	<path fill-rule="evenodd" clip-rule="evenodd" fill="#EEEEEE" d="M181.478,27.774c-0.434-0.251-0.91-0.25-1.394-0.25
		c-39.134,0.003-78.269,0.003-117.402,0c-0.483,0-0.959-0.004-1.392,0.251c-0.304-0.452-0.429-0.954-0.412-1.493
		c0.157-0.319,0.373-0.578,0.771-0.452c1.014,0.319,2.051,0.15,3.075,0.15c38.14,0.011,76.282,0.01,114.422,0.003
		c0.621,0,1.254,0.114,1.862-0.126c0.438-0.171,0.699,0.05,0.879,0.424C181.905,26.82,181.778,27.322,181.478,27.774z"/>
	<path fill-rule="evenodd" clip-rule="evenodd" fill="#FFFFFF" d="M180.465,1.618c-39.404,0-78.807,0-118.21,0
		c0.73-1.025,1.754-1.515,2.995-1.599c0.294-0.02,0.59-0.011,0.885-0.011c36.828,0,73.655,0.001,110.482-0.007
		C178.15,0,179.549,0.222,180.465,1.618z"/>
	<path fill-rule="evenodd" clip-rule="evenodd" fill="#FFFFFF" d="M61.193,3.374c40.126,0,80.253,0,120.379,0
		c0.163,0.348,0.339,0.693,0.274,1.097c-0.6,0.519-1.331,0.347-2.012,0.347c-14.919,0.011-29.838,0.009-44.756,0.007
		c-0.774,0-1.548,0.007-2.319,0.056c-1.87-0.14-3.744-0.033-5.616-0.091c-3.754,0.042-7.51,0.012-11.265,0.014
		c-0.814,0.001-1.493,0.106-1.48,1.134c0.004,0.595,0.023,1.19-0.009,1.785c0.012,0.588,0.021,1.176-0.002,1.764
		c0.014,0.453,0.017,0.907,0,1.36c0.017,0.645,0.02,1.289,0,1.934c0.011,0.514,0.02,1.025-0.002,1.537
		c0.009,0.446,0.017,0.892-0.001,1.337c0.013,0.444,0.014,0.889,0,1.332c0.014,0.504,0.016,1.011,0.001,1.516
		c0.01,0.494,0.015,0.989-0.004,1.482c0.008,0.406-0.018,0.813,0.072,1.213c0.233,0.476,0.715,0.242,1.065,0.371
		c0.293,0.108,0.836,0.104,0.36,0.646c-0.386,0.163-0.79,0.155-1.195,0.139c-0.692-0.027-1.091-0.357-1.146-1.065
		c-0.033-0.438-0.033-0.875-0.033-1.313c-0.001-4.521,0.004-9.043-0.003-13.563c-0.003-1.529-0.072-1.588-1.624-1.598
		c-1.066-0.006-2.132-0.006-3.197,0.056c-1.183-0.127-2.372-0.033-3.557-0.112c-0.94-0.287-1.872-0.086-2.807,0.057
		C91.58,4.79,80.843,4.807,70.107,4.789c-1.79,0.055-3.583-0.039-5.373,0.083c-0.865-0.077-1.732-0.062-2.599-0.078
		c-0.428-0.008-0.879,0.03-1.217-0.323C60.855,4.067,61.03,3.722,61.193,3.374z"/>
	<path fill-rule="evenodd" clip-rule="evenodd" fill="#FFFFFF" d="M182.031,7.766c0,0.585,0,1.17,0,1.756
		c-0.418,0.402-0.954,0.35-1.464,0.35c-12.065-0.007-24.131,0.031-36.196-0.014c-3.321-0.013-6.642,0.026-9.962,0.016
		c-0.585-0.002-1.188,0.07-1.725-0.264c-0.451-0.628-0.437-1.265-0.038-1.91c0.488-0.341,1.054-0.288,1.602-0.288
		c15.404-0.006,30.808-0.006,46.211,0.001C181.003,7.414,181.578,7.338,182.031,7.766z"/>
	<path fill-rule="evenodd" clip-rule="evenodd" fill="#FFFFFF" d="M182.031,7.766c-16.457,0-32.912-0.001-49.368-0.001
		c-0.43-0.626-0.415-1.243,0.032-1.854c0.501-0.312,1.065-0.256,1.614-0.256c15.347-0.005,30.694-0.005,46.041,0.002
		c0.579,0,1.193-0.097,1.686,0.352C182.034,6.593,182.032,7.18,182.031,7.766z"/>
	<path fill-rule="evenodd" clip-rule="evenodd" fill="#FFFFFF" d="M182.036,6.009c-16.459,0-32.917,0-49.374-0.001
		c-0.33-0.42-0.333-0.842-0.01-1.268c0.372-0.457,0.892-0.261,1.343-0.261c15.95-0.011,31.901-0.009,47.852-0.009
		C182.137,4.956,182.082,5.483,182.036,6.009z"/>
	<path fill-rule="evenodd" clip-rule="evenodd" fill="#FFFFFF" d="M132.661,9.521c16.457,0,32.913,0,49.37,0
		c0,0.438,0,0.878,0,1.318c-0.35,0.342-0.803,0.333-1.239,0.329c-1.356-0.013-2.714,0.085-4.066-0.067
		c-0.901-0.199-1.805-0.275-2.707-0.012c-0.292,0.084-0.584,0.078-0.865-0.012c-1.729-0.548-3.448-0.523-5.164,0.053
		c-0.173,0.06-0.359,0.063-0.544,0.042c-1.064-0.431-2.206-0.116-3.294-0.331c-1.425-0.326-2.822-0.035-4.224,0.18
		c-0.702-0.142-1.415-0.058-2.122-0.089c-1.705,0.04-3.409,0.042-5.112,0.005c-1.821,0.104-3.657-0.192-5.468,0.199
		c-0.418,0.112-0.804-0.025-1.183-0.168c-1.78-0.671-3.536-0.627-5.276,0.145c-0.369,0.162-0.738,0.35-1.169,0.234
		c-1.74-0.367-3.502-0.092-5.252-0.179c-0.577-0.028-1.18,0.084-1.705-0.274C132.336,10.433,132.301,9.974,132.661,9.521z"/>
	<path fill-rule="evenodd" clip-rule="evenodd" fill="#FFFFFF" d="M60.734,7.766c0-0.586,0-1.172,0-1.756
		c1.322-0.577,2.658-0.454,4-0.076c0.383,0.619,0.956,0.853,1.673,0.853c0.867-0.001,1.261,0.482,1.267,1.318
		c0.031,4.313,0.023,8.626,0.004,12.94c-0.004,0.914-0.461,1.335-1.367,1.327c-0.479-0.004-0.96,0.034-1.418-0.143
		c-0.302-0.175-0.313-0.372-0.008-0.542c0.323-0.18,0.693-0.15,1.049-0.183c0.336-0.03,0.757,0.092,0.851-0.422
		c0.015-0.355,0.028-0.709,0.028-1.064c-0.018-0.496-0.014-0.99-0.004-1.486c-0.013-0.44-0.014-0.882,0-1.323
		c-0.014-0.509-0.015-1.016,0-1.522c-0.014-0.447-0.015-0.893-0.001-1.339c-0.017-0.514-0.014-1.026-0.001-1.54
		c-0.019-0.584-0.017-1.166-0.002-1.749c-0.022-0.52-0.016-1.039-0.002-1.558c-0.091-1.371-0.107-1.392-1.454-1.405
		c-1.091-0.011-2.183,0.007-3.274-0.008C61.607,8.081,61.119,8.127,60.734,7.766z"/>
	<path fill-rule="evenodd" clip-rule="evenodd" fill="#FFFFFF" d="M182.031,14.572c0,0.365,0,0.731,0,1.098
		c-0.455,0.421-1.028,0.337-1.569,0.338c-2.388,0.002-4.774,0.027-7.162-0.014c-0.438-0.008-0.882-0.053-1.309,0.102
		c-0.893,0.209-1.745-0.029-2.593-0.256c-0.354-0.095-0.698-0.253-0.757-0.689c0.06-0.598,0.536-0.655,0.969-0.664
		c1.353-0.027,2.708-0.139,4.055,0.078c1.056,0.531,2.075,0.512,3.051-0.201c1.5-0.252,3.009-0.109,4.515-0.104
		C181.527,14.262,181.813,14.345,182.031,14.572z"/>
	<path fill-rule="evenodd" clip-rule="evenodd" fill="#FFFFFF" d="M171.846,15.99c0.293-0.487,0.779-0.313,1.191-0.313
		c2.998-0.014,5.995-0.007,8.994-0.007c0,0.439,0,0.878,0,1.317c-0.46,0.414-1.032,0.297-1.572,0.322
		c-1.461,0.07-2.935-0.156-4.383,0.184C174.642,17.062,173.187,16.683,171.846,15.99z"/>
	<path fill-rule="evenodd" clip-rule="evenodd" fill="#FFFFFF" d="M60.734,7.766c1.546-0.001,3.092-0.001,4.639-0.001
		c1.782,0,1.782,0,1.72,1.763c-0.253,0.252-0.58,0.312-0.915,0.319c-1.51,0.036-3.021,0.037-4.532,0
		c-0.334-0.009-0.663-0.064-0.912-0.325C60.734,8.936,60.734,8.351,60.734,7.766z"/>
	<path fill-rule="evenodd" clip-rule="evenodd" fill="#FFFFFF" d="M67.09,11.063c0,0.586-0.001,1.172-0.002,1.758
		c-0.251,0.256-0.579,0.313-0.914,0.32c-1.509,0.035-3.02,0.037-4.529,0c-0.334-0.01-0.662-0.064-0.911-0.326
		c0-0.584,0-1.17,0-1.756c0.216-0.23,0.503-0.307,0.801-0.316c1.585-0.052,3.17-0.053,4.754,0
		C66.588,10.752,66.872,10.837,67.09,11.063z"/>
	<path fill-rule="evenodd" clip-rule="evenodd" fill="#FFFFFF" d="M176.517,10.84c1.838,0,3.676,0,5.515,0
		c0,0.658,0,1.316-0.001,1.976c-0.28,0.29-0.655,0.346-1.021,0.326c-1.496-0.083-3.019,0.29-4.489-0.247
		C176.096,12.211,176.062,11.525,176.517,10.84z"/>
	<path fill-rule="evenodd" clip-rule="evenodd" fill="#F8F8F8" d="M67.082,21.163c0.097,0.592-0.269,0.61-0.725,0.658
		c-0.543,0.058-1.18-0.315-1.624,0.291c0.308,0.47,0.302,0.921-0.086,1.351c-1.313,0.307-2.624,0.474-3.913-0.107
		c0-0.732,0-1.463,0-2.195c0.216-0.23,0.502-0.308,0.8-0.317c1.583-0.052,3.166-0.052,4.749,0.001
		C66.581,20.854,66.867,20.932,67.082,21.163z"/>
	<path fill-rule="evenodd" clip-rule="evenodd" fill="#FFFFFF" d="M67.085,15.674c0,0.512,0,1.024-0.001,1.537
		c-0.217,0.229-0.504,0.302-0.801,0.313c-1.583,0.05-3.166,0.051-4.748-0.001c-0.297-0.01-0.584-0.085-0.8-0.315
		c0-0.513,0-1.024,0-1.537c0.216-0.23,0.503-0.308,0.801-0.316c1.583-0.052,3.167-0.053,4.75,0
		C66.583,15.363,66.869,15.444,67.085,15.674z"/>
	<path fill-rule="evenodd" clip-rule="evenodd" fill="#FDFDFD" d="M67.082,18.527c0,0.513,0.001,1.024,0.001,1.535
		c-0.217,0.231-0.503,0.306-0.8,0.314c-1.583,0.051-3.166,0.051-4.748,0c-0.297-0.01-0.584-0.085-0.8-0.315c0-0.513,0-1.024,0-1.537
		c0.216-0.23,0.502-0.307,0.8-0.316c1.583-0.051,3.166-0.052,4.749,0C66.581,18.218,66.867,18.297,67.082,18.527z"/>
	<path fill-rule="evenodd" clip-rule="evenodd" fill="#FFFFFF" d="M60.734,12.814c2.118,0.002,4.236,0.004,6.354,0.006
		c0,0.512-0.001,1.024-0.001,1.535c-0.25,0.259-0.579,0.314-0.913,0.322c-1.51,0.035-3.019,0.037-4.529,0
		c-0.334-0.01-0.662-0.064-0.911-0.326C60.734,13.84,60.734,13.328,60.734,12.814z"/>
	<path fill-rule="evenodd" clip-rule="evenodd" fill="#FFFFFF" d="M67.09,11.063c-2.118-0.002-4.237-0.002-6.355-0.004
		c0-0.513,0-1.025,0-1.537c2.12,0.002,4.239,0.004,6.359,0.006C67.092,10.039,67.091,10.551,67.09,11.063z"/>
	<path fill-rule="evenodd" clip-rule="evenodd" fill="#FDFDFD" d="M182.03,18.524c0,0.659,0,1.318,0.001,1.977
		c-1.575,0.61-3.172,0.396-4.772,0.128c-0.497-0.504-0.586-1.107-0.445-1.771c0.106-0.241,0.275-0.474,0.531-0.503
		C178.913,18.169,180.49,17.904,182.03,18.524z"/>
	<path fill-rule="evenodd" clip-rule="evenodd" fill="#FFFFFF" d="M176.517,12.815c1.838,0,3.676,0,5.514,0
		c0.001,0.585,0.001,1.171,0.001,1.757c-1.839,0-3.677,0-5.515,0C176.106,13.986,176.106,13.4,176.517,12.815z"/>
	<path fill-rule="evenodd" clip-rule="evenodd" fill="#FFFFFF" d="M182.03,18.524c-1.313,0-2.626,0-3.938-0.002
		c-0.437,0-0.897-0.058-1.124,0.454c-0.709-0.288-1.055-0.825-1.096-1.571c0.247-0.497,0.711-0.418,1.142-0.418
		c1.673-0.001,3.346,0,5.018,0C182.03,17.499,182.03,18.012,182.03,18.524z"/>
	<path fill-rule="evenodd" clip-rule="evenodd" fill="#F6F6F6" d="M182.031,23.795c-2.204-0.001-4.407-0.001-6.611-0.001
		c0.319-0.793,0.824-1.418,1.624-1.783c1.356-0.169,2.717-0.072,4.075-0.069c0.333,0,0.661,0.061,0.912,0.316
		C182.031,22.771,182.031,23.281,182.031,23.795z"/>
	<path fill-rule="evenodd" clip-rule="evenodd" fill="#F9F9F9" d="M182.031,22.258c-1.747,0-3.493,0-5.239,0
		c-0.219-0.671,0.025-1.232,0.425-1.757c1.604,0,3.209,0,4.814,0C182.031,21.086,182.031,21.671,182.031,22.258z"/>
	<path fill-rule="evenodd" clip-rule="evenodd" fill="#FFFFFF" d="M67.082,18.527c-2.116-0.001-4.231-0.002-6.347-0.003
		c0-0.439,0-0.878,0-1.317c2.117,0.001,4.233,0.003,6.35,0.003C67.083,17.649,67.083,18.089,67.082,18.527z"/>
	<path fill-rule="evenodd" clip-rule="evenodd" fill="#FFFFFF" d="M60.734,14.352c2.118,0.002,4.235,0.003,6.353,0.004
		c0,0.44-0.001,0.879-0.001,1.318c-2.117-0.001-4.234-0.002-6.351-0.004C60.734,15.23,60.734,14.792,60.734,14.352z"/>
	<path fill-rule="evenodd" clip-rule="evenodd" fill="#FCFCFC" d="M60.734,20.062c2.117,0,4.233,0,6.349,0.001
		c0,0.367,0,0.733-0.001,1.101c-2.116-0.001-4.232-0.003-6.348-0.003C60.734,20.794,60.734,20.427,60.734,20.062z"/>
	<path fill-rule="evenodd" clip-rule="evenodd" fill="#FFFFFF" d="M64.7,6.008c-1.322,0.001-2.644,0.001-3.966,0.001
		c-0.052-0.527-0.107-1.053,0.185-1.539c0.936,0,1.871-0.007,2.806,0.003c0.346,0.004,0.734-0.101,0.985,0.266
		C65.033,5.166,65.03,5.588,64.7,6.008z"/>
	<path fill-rule="evenodd" clip-rule="evenodd" fill="#F3F3F3" d="M60.734,23.355c1.321,0,2.642,0,3.963,0
		c0.281,0.335,0.285,0.676,0.022,1.022c-0.71,0.604-1.552,0.191-2.328,0.282c-0.545,0.063-1.104,0.013-1.657,0.013
		C60.734,24.233,60.734,23.795,60.734,23.355z"/>
	<path fill-rule="evenodd" clip-rule="evenodd" fill="#F9F9F9" d="M161.457,23.355c-0.099-0.407-0.09-0.813-0.005-1.221
		c-0.536-0.442-1.166-0.112-1.746-0.207c-0.424-0.068-0.871,0.104-1.284-0.111c-0.12-0.288-0.086-0.583-0.031-0.877
		c0.057-0.047,0.109-0.126,0.172-0.133c2.295-0.274,4.589-0.389,6.878,0.061c0.193,0.834,0.22,1.667-0.017,2.499
		C164.101,23.362,162.779,23.359,161.457,23.355z"/>
	<path fill-rule="evenodd" clip-rule="evenodd" fill="#FCFCFC" d="M105.462,21.817c-0.178-0.581-0.118-1.169-0.04-1.756
		c0.322-0.278,0.716-0.359,1.118-0.333c1.469,0.092,2.966-0.294,4.407,0.251c0.051,0.093,0.115,0.173,0.124,0.29
		c0.127,1.648,0.127,1.634-1.531,1.666c-0.319,0.007-0.723-0.226-0.966,0.198c-0.008,0.188-0.017,0.374-0.023,0.562
		c-0.288,0.006-0.577,0.012-0.864,0.017c-0.118-0.582-0.4-0.895-1.072-0.805C106.243,21.957,105.83,22.023,105.462,21.817z"/>
	<path fill-rule="evenodd" clip-rule="evenodd" fill="#F8F8F8" d="M116.104,23.795c-0.017-0.582-0.032-1.163-0.048-1.744
		c-0.296-0.422-0.74-0.177-1.115-0.244c-0.32-0.058-0.791,0.175-0.83-0.424c0.416-0.392,0.946-0.354,1.443-0.321
		c1.041,0.067,2.094-0.227,3.125,0.099c0.419,0.879,1.188,1.467,1.832,2.157c-0.214,0.521-0.671,0.479-1.113,0.478
		C118.3,23.793,117.202,23.795,116.104,23.795z"/>
	<path fill-rule="evenodd" clip-rule="evenodd" fill="#F8F8F8" d="M152.634,22.128c0.077,0.557,0.094,1.112-0.009,1.666
		c-1.261-0.068-2.541,0.179-3.783-0.221c0.813-0.723,1.756-1.33,2.183-2.396c0.075-0.174,0.183-0.352,0.367-0.383
		c1.367-0.234,2.739-0.463,4.078,0.146c-0.011,0.292-0.021,0.584-0.031,0.875c-0.671,0.231-1.365,0.038-2.043,0.116
		C153.138,21.961,152.803,21.757,152.634,22.128z"/>
	<path fill-rule="evenodd" clip-rule="evenodd" fill="#F7F7F7" d="M137.077,21.38c0.688,0.955,1.599,1.682,2.523,2.392
		c-1.488,0.009-2.978,0.016-4.466,0.023c-0.009-0.573-0.02-1.147-0.029-1.721c-0.765-0.396-1.624,0.067-2.397-0.258
		c-0.014-0.146-0.028-0.292-0.044-0.438C134.135,20.84,135.606,20.835,137.077,21.38z"/>
	<path fill-rule="evenodd" clip-rule="evenodd" fill="#F6F6F6" d="M85.717,22.477c0.224,0.366,0.447,0.732,0.67,1.1
		c-0.54,0.328-1.139,0.212-1.718,0.214c-2.014,0.01-4.029,0.001-6.043,0c0.511-0.441,1.022-0.882,1.534-1.323
		c0.707-0.385,1.453-0.102,2.171-0.08C83.46,22.421,84.599,22.153,85.717,22.477z"/>
	<path fill-rule="evenodd" clip-rule="evenodd" fill="#FDFDFD" d="M165.424,23.366c0.001-0.808,0.004-1.615,0.005-2.424
		c-0.281-0.382-0.696-0.333-1.096-0.335c-1.532-0.007-3.064,0.002-4.598-0.006c-0.471-0.001-0.958,0.036-1.345-0.32
		c0-0.294,0-0.586,0-0.879c0.161-0.157,0.357-0.271,0.577-0.284c2.002-0.115,4.004-0.097,6.005-0.008
		c0.306,0.014,0.686,0.057,0.707,0.514c0.002,1.607,0.004,3.218,0.006,4.827C165.281,24.164,165.525,23.725,165.424,23.366z"/>
	<path fill-rule="evenodd" clip-rule="evenodd" fill="#F7F7F7" d="M100.352,22.073c-0.01,0.573-0.021,1.147-0.03,1.722
		c-0.354,0-0.71,0-1.065,0c-0.01-0.573-0.02-1.147-0.029-1.721c-0.754-0.396-1.604,0.07-2.365-0.26
		c-0.009-0.145-0.018-0.29-0.025-0.435c0.247-0.261,0.575-0.315,0.909-0.325c1.288-0.038,2.577-0.038,3.865,0
		c0.334,0.01,0.661,0.064,0.91,0.325c-0.009,0.145-0.018,0.289-0.026,0.435C101.808,22.127,101.03,21.7,100.352,22.073z"/>
	<path fill-rule="evenodd" clip-rule="evenodd" fill="#FEFEFE" d="M105.462,21.817c0.429,0,0.861,0.036,1.284-0.01
		c0.71-0.076,0.985,0.235,0.939,0.904c-0.157,0.569,0.227,1.22-0.266,1.739c0.017-0.179,0.046-0.354,0.05-0.531
		c0.03-1.771,0.029-1.77-1.762-1.941C105.621,21.97,105.543,21.873,105.462,21.817z"/>
	<path fill-rule="evenodd" clip-rule="evenodd" fill="#FFFFFF" d="M129.762,7.766c0,0.585,0,1.17,0,1.756
		c-0.418,0.402-0.955,0.35-1.464,0.348c-4.242-0.029-8.484,0.029-12.727,0c-0.51-0.004-1.045,0.053-1.467-0.344
		c-0.001-0.584-0.002-1.17-0.003-1.755c0.419-0.399,0.953-0.354,1.464-0.354c4.317,0,8.635-0.031,12.952,0.023
		C128.959,7.444,129.413,7.409,129.762,7.766z"/>
	<path fill-rule="evenodd" clip-rule="evenodd" fill="#FFFFFF" d="M129.762,7.766c-5.22,0.001-10.439,0.003-15.66,0.005
		c0-0.585-0.001-1.171-0.003-1.757c0.42-0.397,0.954-0.352,1.465-0.354c3.359-0.009,6.718-0.01,10.077,0.001
		c0.508,0.002,1.045-0.055,1.463,0.348c-0.111,0.856,0.289,1.149,1.113,1.031c0.32-0.046,0.654,0.013,0.979-0.011
		C129.786,6.983,129.865,7.3,129.762,7.766z"/>
	<path fill-rule="evenodd" clip-rule="evenodd" fill="#FFFFFF" d="M70.037,5.129c-0.028-0.214-0.056-0.428-0.083-0.642
		c10.584-0.006,21.17-0.012,31.756-0.016c0.288,0,0.596-0.063,0.839,0.171c0.147,0.535-0.219,0.735-0.608,0.922
		c-2.024,0.207-4.05,0.173-6.077,0.021c-0.572-0.188-1.163-0.147-1.75-0.147C86.65,5.438,79.187,5.442,71.724,5.432
		C71.151,5.432,70.535,5.574,70.037,5.129z"/>
	<path fill-rule="evenodd" clip-rule="evenodd" fill="#FFFFFF" d="M127.104,6.009c-4.335,0.002-8.67,0.003-13.005,0.005
		c-0.044-1.541-0.044-1.543,1.476-1.542c3.871,0.003,7.742,0.01,11.612,0.016C127.159,4.995,127.132,5.501,127.104,6.009z"/>
	<path fill-rule="evenodd" clip-rule="evenodd" fill="#FFFFFF" d="M114.104,9.525c5.22-0.001,10.438-0.002,15.657-0.004
		c0.011,0.072,0.034,0.145,0.03,0.215c-0.043,0.783,0.339,1.814-0.171,2.268c-0.336,0.3-1.042-0.75-1.683-1.061
		c-2.329-1.127-4.576-0.922-6.777,0.336c-1.824-0.201-3.656-0.064-5.484-0.111c-0.54-0.014-1.111,0.086-1.569-0.326
		C114.106,10.404,114.105,9.965,114.104,9.525z"/>
	<path fill-rule="evenodd" clip-rule="evenodd" fill="#FFFFFF" d="M114.107,10.842c1.974-0.001,3.947-0.002,5.921-0.004
		c0.436,0,0.9-0.07,1.133,0.441c-0.653,0.605-1.307,1.209-1.96,1.813c-1.393,0.132-2.787,0.038-4.181,0.038
		c-0.333,0-0.661-0.058-0.913-0.311C114.107,12.16,114.107,11.502,114.107,10.842z"/>
	<path fill-rule="evenodd" clip-rule="evenodd" fill="#FFFFFF" d="M114.107,12.82c1.362-0.003,2.726-0.01,4.087-0.002
		c0.354,0.002,0.752-0.105,1.007,0.274c-0.235,0.419-0.471,0.839-0.706,1.259c-1.462,0.511-2.924,0.564-4.386,0.004
		C114.108,13.844,114.108,13.332,114.107,12.82z"/>
	<path fill-rule="evenodd" clip-rule="evenodd" fill="#FEFEFE" d="M118.002,18.736c0.081,0.441,0.161,0.884,0.242,1.325
		c-1.378,0.534-2.756,0.532-4.135,0.001c0-0.511,0.001-1.022,0.002-1.534C115.435,18.094,116.752,17.807,118.002,18.736z"/>
	<path fill-rule="evenodd" clip-rule="evenodd" fill="#FFFFFF" d="M118.002,18.736c-1.276-0.452-2.596-0.104-3.892-0.208
		c0-0.513,0-1.026,0-1.538c1.088-0.604,2.239-0.368,3.373-0.217c0.361,0.048,0.563,0.318,0.379,0.718
		C118.033,17.894,118.031,18.313,118.002,18.736z"/>
	<path fill-rule="evenodd" clip-rule="evenodd" fill="#FBFBFB" d="M114.109,20.063c1.378-0.001,2.757-0.001,4.135-0.001
		c0.145,0.366,0.289,0.732,0.435,1.099c-1.505,0.44-3.048,0.121-4.569,0.223C114.11,20.942,114.109,20.503,114.109,20.063z"/>
	<path fill-rule="evenodd" clip-rule="evenodd" fill="#FFFFFF" d="M114.109,14.355c1.461-0.001,2.924-0.002,4.386-0.004
		c-0.143,0.44-0.284,0.879-0.427,1.318c-1.318,0.527-2.639,0.529-3.959,0.003C114.109,15.234,114.109,14.795,114.109,14.355z"/>
	<path fill-rule="evenodd" clip-rule="evenodd" fill="#FFFFFF" d="M114.109,15.673c1.32-0.001,2.641-0.003,3.959-0.003
		c-0.04,0.61,0.054,1.236-0.206,1.821c-0.07-0.579-0.516-0.502-0.91-0.504c-0.948-0.001-1.896,0.002-2.843,0.003
		C114.109,16.551,114.109,16.112,114.109,15.673z"/>
	<path fill-rule="evenodd" clip-rule="evenodd" fill="#FFFFFF" d="M105.502,6.218c0.034-0.649-0.15-1.226-0.581-1.721
		c1.214,0.097,2.461-0.329,3.644,0.235c-0.004,0.426-0.008,0.851-0.012,1.275C107.568,6.543,106.531,6.335,105.502,6.218z"/>
	<path fill-rule="evenodd" clip-rule="evenodd" fill="#FFFFFF" d="M139.753,11.217c-0.884,0.44-1.418,1.281-2.174,1.869
		c-1.337,0.146-2.675,0.045-4.013,0.045c-0.334,0-0.643-0.097-0.903-0.316c-0.097-0.658-0.089-1.316,0.001-1.975
		c1.971-0.002,3.942-0.004,5.914,0C139.008,10.841,139.474,10.747,139.753,11.217z"/>
	<path fill-rule="evenodd" clip-rule="evenodd" fill="#FFFFFF" d="M152.677,10.643c-0.017,0.725-0.034,1.448-0.051,2.172
		c-1.003,0.557-2.062,0.318-3.111,0.212c-0.734-0.757-1.572-1.39-2.436-1.989c0.218-0.441,0.624-0.423,1.029-0.42
		C149.631,10.629,151.154,10.635,152.677,10.643z"/>
	<path fill-rule="evenodd" clip-rule="evenodd" fill="#FFFFFF" d="M164.147,12.816c0-0.732,0.001-1.465,0.001-2.197
		c0.755,0,1.509,0.004,2.263-0.002c0.4-0.003,0.804-0.025,1.031,0.401c-0.743,0.63-1.338,1.375-1.757,2.253
		C165.177,13.108,164.594,13.19,164.147,12.816z"/>
	<path fill-rule="evenodd" clip-rule="evenodd" fill="#FFFFFF" d="M159.915,10.814c-0.691,0.627-1.395,1.244-2.055,2.041
		c0-0.737,0-1.475,0-2.213C158.546,10.688,159.258,10.431,159.915,10.814z"/>
	<path fill-rule="evenodd" clip-rule="evenodd" fill="#FFFFFF" d="M173.234,13.635c0.216,0.381,0.701,0.619,0.618,1.157
		c-1.384,0-2.768-0.007-4.15,0.003c-0.376,0.002-0.847-0.133-0.934,0.463c-0.587-0.313-0.564-0.809-0.41-1.344
		c1.363-0.658,2.814-0.212,4.22-0.324C172.795,13.572,173.014,13.656,173.234,13.635z"/>
	<path fill-rule="evenodd" clip-rule="evenodd" fill="#FFFFFF" d="M129.762,16.987c0.015,0.523,0.166,1.059-0.127,1.558
		c-0.372,0.272-0.802,0.325-1.246,0.327c-2.006,0.011-4.011,0.012-6.017-0.001c-0.441-0.003-0.877-0.042-1.239-0.337
		c-0.214-0.355-0.165-0.738-0.126-1.123c0.067-0.548,0.468-0.721,0.934-0.731c2.378-0.058,4.756-0.073,7.135,0.008
		C129.335,16.695,129.575,16.792,129.762,16.987z"/>
	<path fill-rule="evenodd" clip-rule="evenodd" fill="#FCFCFC" d="M128.914,20.284c-1.863,2.554-5.303,2.573-7.109,0.039
		c-0.056-0.543,0.338-0.717,0.742-0.748c1.858-0.139,3.722-0.119,5.581-0.012C128.538,19.586,128.93,19.747,128.914,20.284z"/>
	<path fill-rule="evenodd" clip-rule="evenodd" fill="#FFFFFF" d="M129.762,16.987c-2.535,0-5.069,0.003-7.604-0.004
		c-0.447-0.001-0.889-0.039-1.15,0.428c-0.013-0.61,0.05-1.205,0.384-1.741c0.325-0.293,0.728-0.337,1.137-0.34
		c1.951-0.018,3.904-0.018,5.855-0.002c0.415,0.004,0.804,0.091,1.143,0.344C129.644,16.103,129.865,16.517,129.762,16.987z"/>
	<path fill-rule="evenodd" clip-rule="evenodd" fill="#FEFEFE" d="M128.914,20.284c-0.182-0.403-0.531-0.446-0.92-0.445
		c-1.765,0.007-3.529,0.008-5.293,0c-0.4-0.002-0.728,0.087-0.896,0.484c-0.467-0.507-0.666-1.112-0.672-1.789
		c2.834,0.003,5.668,0.007,8.502,0.011C129.602,19.208,129.391,19.8,128.914,20.284z"/>
	<path fill-rule="evenodd" clip-rule="evenodd" fill="#FFFFFF" d="M129.525,15.672c-2.711-0.002-5.423-0.002-8.135-0.002
		c0.138-0.677,0.517-1.195,1.071-1.595c1.991-0.042,3.982-0.169,5.97,0.063C129.036,14.481,129.343,15.032,129.525,15.672z"/>
	<path fill-rule="evenodd" clip-rule="evenodd" fill="#FFFFFF" d="M132.663,12.814c1.307,0,2.613-0.006,3.921,0.004
		c0.349,0.002,0.74-0.104,0.995,0.268c-0.299,0.507-0.598,1.014-0.896,1.521c-1.347,0.017-2.715,0.371-4.02-0.256
		C132.567,13.839,132.574,13.328,132.663,12.814z"/>
	<path fill-rule="evenodd" clip-rule="evenodd" fill="#FFFFFF" d="M128.432,14.139c-1.993,0.3-3.984,0.43-5.97-0.063
		C124.134,12.363,126.768,12.392,128.432,14.139z"/>
	<path fill-rule="evenodd" clip-rule="evenodd" fill="#FEFEFE" d="M136.195,18.524c0.073,0.515,0.331,0.998,0.262,1.537
		c-1.265,0.545-2.529,0.533-3.793,0c-0.095-0.513-0.092-1.025,0-1.539C133.841,18.017,135.019,17.991,136.195,18.524z"/>
	<path fill-rule="evenodd" clip-rule="evenodd" fill="#FBFBFB" d="M132.664,20.062c1.264,0,2.528,0,3.793,0
		c0.251,0.419,0.567,0.807,0.62,1.318c-1.471,0-2.942-0.001-4.413-0.002C132.569,20.939,132.573,20.5,132.664,20.062z"/>
	<path fill-rule="evenodd" clip-rule="evenodd" fill="#FFFFFF" d="M136.259,15.964c-0.024,0.414-0.05,0.829-0.074,1.243
		c-1.174,0.537-2.347,0.502-3.521-0.001c-0.094-0.513-0.091-1.024,0.001-1.536c1.024-0.592,2.112-0.361,3.188-0.225
		C136.1,15.478,136.344,15.621,136.259,15.964z"/>
	<path fill-rule="evenodd" clip-rule="evenodd" fill="#FFFFFF" d="M136.259,15.964c-0.736-0.595-1.6-0.18-2.398-0.286
		c-0.392-0.051-0.797-0.009-1.196-0.008c-0.094-0.439-0.089-0.878-0.001-1.318c1.009,0,2.018-0.007,3.026,0.004
		c0.346,0.004,0.734-0.108,0.993,0.252C136.283,14.98,136.636,15.584,136.259,15.964z"/>
	<path fill-rule="evenodd" clip-rule="evenodd" fill="#FFFFFF" d="M132.663,17.206c1.175,0.001,2.349,0.001,3.521,0.001
		c0.005,0.438,0.008,0.878,0.011,1.317c-1.178,0-2.354,0-3.531-0.002C132.572,18.085,132.575,17.646,132.663,17.206z"/>
	<path fill-rule="evenodd" clip-rule="evenodd" fill="#FBFBFB" d="M132.708,21.816c0.797,0.12,1.646-0.271,2.397,0.258
		C134.326,21.815,133.473,22.224,132.708,21.816z"/>
	<path fill-rule="evenodd" clip-rule="evenodd" fill="#FFFFFF" d="M70.036,9.521c0-0.586,0-1.171,0-1.756
		c0.417-0.416,0.955-0.326,1.461-0.326c10.055-0.02,20.111-0.077,30.163,0.047c2.527,0.031,5.042-0.281,7.572-0.076
		c1.959,0.158,1.989,0.082,1.776,2.129c-0.428,0.382-0.961,0.333-1.471,0.331C98.333,9.863,87.127,9.914,75.921,9.848
		c-1.475-0.008-2.948,0.061-4.423,0.025C70.989,9.859,70.454,9.923,70.036,9.521z"/>
	<path fill-rule="evenodd" clip-rule="evenodd" fill="#FFFFFF" d="M70.036,9.521c13.636,0.002,27.273,0.003,40.909,0.004
		c0.212,0.539,0.213,1.08-0.005,1.617c-1.847,0.386-3.688,0.512-5.52-0.084c-0.066-0.252-0.142-0.488-0.482-0.484
		c-1.463,0.02-2.926,0.029-4.39,0.058c-0.076,0.001-0.151,0.136-0.228,0.208c-1.123,0.688-2.284,0.77-3.485,0.219
		c-0.008-0.441-0.289-0.497-0.656-0.49c-1.558,0.028-3.115,0.041-4.673,0.06c-0.992,0.685-2.027,0.745-3.104,0.212
		c-0.486-0.513-1.109-0.234-1.663-0.252c-1.068-0.033-2.138,0.021-3.207,0.04c-0.398,0.458-0.94,0.511-1.5,0.525
		c-1.058,0.028-2.118-0.057-3.172,0.094c-3.137-1.643-6.05-1.415-8.825,1.161C70.036,11.357,70.036,10.439,70.036,9.521z"/>
	<path fill-rule="evenodd" clip-rule="evenodd" fill="#FFFFFF" d="M110.942,11.065c0.002-0.513,0.003-1.026,0.003-1.54
		c0.008-0.183-0.002-0.369,0.027-0.547c0.153-0.95-0.206-1.239-1.202-1.237c-13.245,0.035-26.49,0.024-39.734,0.024
		c0-0.22,0-0.44,0-0.66c0.565-0.491,1.259-0.344,1.907-0.344c9.077-0.01,18.156-0.016,27.233,0.005
		c1.033,0.003,2.056-0.222,3.088-0.086c0.258,0.757,0.875,0.871,1.563,0.864c0.908-0.01,1.389-0.545,1.674-1.327
		c0.991-0.427,2.036-0.113,3.051-0.21c-0.082,0.891,0.391,1.165,1.193,1.022c1.182-0.209,1.446,0.299,1.43,1.419
		c-0.062,4.155-0.037,8.314,0.008,12.471c0.01,0.835-0.175,1.212-1.085,1.105c-0.499-0.059-1.03-0.107-1.524,0.108
		c0.11-0.377,0.428-0.309,0.708-0.325c1.717-0.104,1.717-0.104,1.654-1.747c-0.346-0.456-0.274-0.987-0.274-1.505
		c-0.011-0.446-0.017-0.894,0-1.341c-0.011-0.507-0.015-1.013,0.001-1.521c-0.013-0.383-0.013-0.765-0.001-1.146
		c-0.022-0.518-0.012-1.033-0.003-1.551C110.676,12.342,110.51,11.66,110.942,11.065z"/>
	<path fill-rule="evenodd" clip-rule="evenodd" fill="#FFFFFF" d="M102.104,5.349c0.007,0.366,0.013,0.73,0.019,1.095
		c-0.327,0.247-0.712,0.156-1.069,0.154c-9.704-0.045-19.407,0.001-29.11-0.023c-0.649,0-1.342,0.146-1.907-0.347
		c0-0.292,0-0.584,0-0.878c0.27-0.173,0.572-0.103,0.86-0.103c8.051-0.004,16.104-0.004,24.155,0c0.289,0,0.591-0.069,0.86,0.103
		C97.977,5.349,100.041,5.349,102.104,5.349z"/>
	<path fill-rule="evenodd" clip-rule="evenodd" fill="#FFFFFF" d="M70.037,6.227c10.081,0,20.161,0.003,30.242-0.006
		c0.63-0.001,1.243,0.047,1.845,0.223c0.048,0.079,0.095,0.158,0.142,0.237c-0.633,0.333-1.304,0.433-2.021,0.432
		c-10.069-0.01-20.138-0.007-30.208-0.006C70.037,6.813,70.037,6.521,70.037,6.227z"/>
	<path fill-rule="evenodd" clip-rule="evenodd" fill="#FFFFFF" d="M78.621,15.67c0.293,0.481,0.298,1.004,0.217,1.537
		c-0.316,0.306-0.722,0.337-1.126,0.339c-2.125,0.021-4.25,0.021-6.374,0.002c-0.409-0.004-0.806-0.061-1.131-0.342
		c-0.043-0.534-0.012-1.056,0.265-1.536c0.315-0.301,0.717-0.336,1.121-0.34c1.969-0.02,3.937-0.02,5.905,0
		C77.903,15.334,78.302,15.377,78.621,15.67z"/>
	<path fill-rule="evenodd" clip-rule="evenodd" fill="#FCFCFC" d="M77.987,20.314c-1.849,2.606-5.641,2.482-7.152-0.231
		c0.217-0.483,0.669-0.551,1.112-0.564c1.694-0.052,3.389-0.063,5.082,0.007C77.479,19.544,78.146,19.488,77.987,20.314z"/>
	<path fill-rule="evenodd" clip-rule="evenodd" fill="#FFFFFF" d="M70.207,17.206c2.876,0.001,5.755,0.001,8.631,0.001
		c0.038,0.54,0.156,1.088-0.168,1.59c-2.5,0.157-5.002,0.048-7.504,0.05c-0.336,0-0.659-0.079-0.914-0.322
		C70.145,18.088,70.097,17.649,70.207,17.206z"/>
	<path fill-rule="evenodd" clip-rule="evenodd" fill="#FEFEFE" d="M70.251,18.524c2.432,0,4.865-0.006,7.297,0.004
		c0.386,0.003,0.826-0.139,1.121,0.269c-0.021,0.598-0.278,1.091-0.683,1.518c-0.041-0.286-0.184-0.467-0.498-0.467
		c-2.05,0.008-4.099,0.013-6.148,0.036c-0.169,0.002-0.338,0.129-0.507,0.199C70.445,19.635,70.275,19.106,70.251,18.524z"/>
	<path fill-rule="evenodd" clip-rule="evenodd" fill="#FFFFFF" d="M78.621,15.67c-2.716,0-5.433,0-8.149,0
		c0.109-0.537,0.351-0.998,0.794-1.342c2.215-0.505,4.429-0.557,6.64,0.025C78.293,14.713,78.564,15.134,78.621,15.67z"/>
	<path fill-rule="evenodd" clip-rule="evenodd" fill="#F8F8F8" d="M85.717,22.477c-1.853,0.383-3.705,0.305-5.556-0.01
		c0.33-0.509,0.66-1.018,0.99-1.524c1.453-0.528,2.906-0.539,4.36-0.003C85.629,21.445,85.791,21.945,85.717,22.477z"/>
	<path fill-rule="evenodd" clip-rule="evenodd" fill="#FFFFFF" d="M78.861,11.247c0.132-0.595,0.617-0.384,0.98-0.403
		c1.231-0.066,2.479,0.145,3.692-0.216c-0.014,0.729-0.029,1.459-0.043,2.188c-0.968,0.521-1.94,0.476-2.915,0.019
		C80.004,12.307,79.433,11.776,78.861,11.247z"/>
	<path fill-rule="evenodd" clip-rule="evenodd" fill="#FFFFFF" d="M77.906,14.354c-2.213-0.008-4.426-0.018-6.64-0.025
		C73.18,12.223,76.005,12.234,77.906,14.354z"/>
	<path fill-rule="evenodd" clip-rule="evenodd" fill="#FFFFFF" d="M80.575,12.835c0.972-0.006,1.943-0.013,2.915-0.019
		c0.186,0.318,0.516,0.252,0.769,0.206c1.149-0.206,1.463,0.302,1.224,1.329c-1.293,0.598-2.636,0.313-3.967,0.221
		C81.202,13.994,80.889,13.415,80.575,12.835z"/>
	<path fill-rule="evenodd" clip-rule="evenodd" fill="#FFFFFF" d="M95.912,5.349c-8.625,0-17.25,0-25.875,0c0-0.073,0-0.146,0-0.219
		c8.207,0,16.414-0.003,24.621,0.007C95.078,5.137,95.549,4.97,95.912,5.349z"/>
	<path fill-rule="evenodd" clip-rule="evenodd" fill="#FFFFFF" d="M85.482,16.987c0,0.512,0,1.024,0,1.537
		c-0.492,0.423-1.094,0.32-1.659,0.303c-0.689-0.023-1.359,0.142-2.044,0.13c0.056-0.656,0.111-1.313,0.166-1.971
		C83.124,16.476,84.303,16.457,85.482,16.987z"/>
	<path fill-rule="evenodd" clip-rule="evenodd" fill="#FFFFFF" d="M81.516,14.572c1.298-0.488,2.646-0.096,3.967-0.221
		c0,0.44,0,0.879,0,1.318c-1.238,0.522-2.476,0.523-3.713,0C81.685,15.305,81.601,14.939,81.516,14.572z"/>
	<path fill-rule="evenodd" clip-rule="evenodd" fill="#FEFEFE" d="M81.779,18.957c0.328-0.558,0.878-0.428,1.38-0.432
		c0.774-0.007,1.548-0.001,2.323-0.001c0,0.438,0,0.879,0.001,1.317c-1.292,0.504-2.616,0.451-3.95,0.22
		C81.615,19.693,81.697,19.325,81.779,18.957z"/>
	<path fill-rule="evenodd" clip-rule="evenodd" fill="#FFFFFF" d="M81.77,15.67c1.237,0,2.475,0,3.713,0c0,0.44,0,0.878-0.001,1.317
		c-1.179,0-2.358,0-3.537-0.001C81.887,16.548,81.828,16.109,81.77,15.67z"/>
	<path fill-rule="evenodd" clip-rule="evenodd" fill="#FCFCFC" d="M81.533,20.062c1.301-0.329,2.629-0.198,3.95-0.22
		c0.009,0.365,0.019,0.731,0.028,1.098c-1.454,0.001-2.906,0.002-4.36,0.003C81.278,20.648,81.405,20.355,81.533,20.062z"/>
	<path fill-rule="evenodd" clip-rule="evenodd" fill="#FEFEFE" d="M155.47,18.524c0,0.438,0.001,0.879,0.001,1.317
		c-0.286,0.276-0.651,0.335-1.021,0.332c-1.797-0.013-3.603-0.08-5.391-0.033c-2.961,0.077-5.935-0.227-8.887,0.216
		c-0.532-0.556-0.661-1.264-0.828-2.031c3.871,0,7.686,0,11.498,0c1.197-0.205,2.404-0.127,3.607-0.121
		C154.818,18.206,155.184,18.251,155.47,18.524z"/>
	<path fill-rule="evenodd" clip-rule="evenodd" fill="#FFFFFF" d="M147.159,14.321c0.031,0.021,0.068,0.036,0.09,0.063
		c0.388,0.484,0.945,1.072,0.711,1.612c-0.204,0.47-0.995,0.167-1.52,0.174c-1.907,0.029-3.815,0.013-5.724,0.012
		c-1.364,0-1.446-0.138-0.813-1.392c0.079-0.158,0.21-0.291,0.318-0.436c0.348-0.223,0.728-0.342,1.145-0.347
		c1.583-0.017,3.166-0.019,4.749,0.002C146.493,14.017,146.839,14.129,147.159,14.321z"/>
	<path fill-rule="evenodd" clip-rule="evenodd" fill="#FCFCFC" d="M140.173,20.356c0.13-0.724,0.711-0.506,1.146-0.507
		c4.717-0.013,9.435-0.008,14.152-0.008c-0.001,0.365-0.001,0.731-0.001,1.098c-1.48,0.116-2.986-0.262-4.445,0.237
		c-0.641-0.251-1.299-0.466-1.915-0.766c-0.426-0.208-0.76-0.135-1.11,0.104c-0.298,0.134-0.589,0.301-0.927,0.302
		c-2.218,0.006-4.438,0.129-6.653-0.069C140.217,20.69,140.176,20.535,140.173,20.356z"/>
	<path fill-rule="evenodd" clip-rule="evenodd" fill="#FAFAFA" d="M140.419,20.747c0.232-0.327,0.584-0.244,0.901-0.244
		c2.226,0,4.452,0.008,6.679,0.012C146.531,22.965,142.451,23.091,140.419,20.747z"/>
	<path fill-rule="evenodd" clip-rule="evenodd" fill="#FFFFFF" d="M147.159,14.321c-2.313,0.013-4.625,0.023-6.938,0.034
		C141.974,11.861,145.208,11.846,147.159,14.321z"/>
	<path fill-rule="evenodd" clip-rule="evenodd" fill="#FFFFFF" d="M149.515,13.026c1.012-0.444,2.077-0.106,3.111-0.212
		c0.513,0.428,1.137,0.258,1.676,0.194c1.159-0.138,1.39,0.374,1.168,1.343c-1.706,0.588-3.416,0.512-5.126,0.021
		C150.066,13.924,149.791,13.475,149.515,13.026z"/>
	<path fill-rule="evenodd" clip-rule="evenodd" fill="#FFFFFF" d="M155.47,18.524c-1.54-0.115-3.101,0.237-4.627-0.199
		c0.448-0.387,0.061-0.905,0.215-1.338c1.471-0.543,2.941-0.541,4.412,0C155.47,17.499,155.47,18.012,155.47,18.524z"/>
	<path fill-rule="evenodd" clip-rule="evenodd" fill="#FFFFFF" d="M150.344,14.372c1.708-0.007,3.417-0.013,5.126-0.021
		c0,0.44,0,0.879,0,1.318c-1.552,0.562-3.105,0.533-4.659,0.01C150.569,15.274,150.377,14.85,150.344,14.372z"/>
	<path fill-rule="evenodd" clip-rule="evenodd" fill="#FFFFFF" d="M150.811,15.68c1.554-0.003,3.105-0.006,4.659-0.01
		c0,0.439,0,0.878,0,1.317c-1.471,0-2.941,0-4.412,0C150.866,16.572,150.813,16.131,150.811,15.68z"/>
	<path fill-rule="evenodd" clip-rule="evenodd" fill="#FDFDFD" d="M88.403,20.281c0-0.586,0-1.172,0-1.757
		c0.251-0.246,0.574-0.344,0.902-0.321c1.543,0.103,3.128-0.382,4.628,0.319c0.092,0.587,0.096,1.173,0,1.759
		C92.09,20.78,90.246,20.881,88.403,20.281z"/>
	<path fill-rule="evenodd" clip-rule="evenodd" fill="#FCFCFC" d="M102.521,21.38c-1.896,0-3.79,0-5.685,0c0-0.513,0-1.026,0-1.538
		c0.247-0.26,0.575-0.314,0.91-0.325c1.287-0.036,2.576-0.036,3.864,0c0.333,0.011,0.661,0.065,0.91,0.325
		C102.521,20.354,102.521,20.867,102.521,21.38z"/>
	<path fill-rule="evenodd" clip-rule="evenodd" fill="#FFFFFF" d="M102.521,15.67c0,0.513,0,1.024,0,1.537
		c-0.249,0.26-0.577,0.313-0.911,0.323c-1.287,0.037-2.576,0.037-3.863,0c-0.334-0.01-0.662-0.063-0.91-0.323
		c0-0.513,0-1.024,0-1.537c0.248-0.26,0.576-0.314,0.91-0.324c1.287-0.037,2.576-0.037,3.863,0
		C101.943,15.355,102.271,15.41,102.521,15.67z"/>
	<path fill-rule="evenodd" clip-rule="evenodd" fill="#FFFFFF" d="M93.934,15.67c0.09,0.512,0.095,1.023,0,1.536
		c-1.086,0.649-2.281,0.271-3.425,0.332c-0.707,0.036-1.47,0.184-2.105-0.331c0-0.513,0-1.024,0-1.537
		c0.25-0.246,0.573-0.344,0.902-0.322C90.849,15.451,92.434,14.968,93.934,15.67z"/>
	<path fill-rule="evenodd" clip-rule="evenodd" fill="#FFFFFF" d="M100.321,12.815c0.271,0.379,0.69,0.253,1.013,0.202
		c1.152-0.18,1.403,0.355,1.186,1.334c-0.248,0.26-0.576,0.314-0.91,0.324c-1.287,0.037-2.576,0.037-3.863,0
		c-0.334-0.01-0.662-0.064-0.91-0.324c0-0.512,0-1.023,0-1.536C97.998,12.287,99.16,12.295,100.321,12.815z"/>
	<path fill-rule="evenodd" clip-rule="evenodd" fill="#FFFFFF" d="M91.463,12.815c0.386,0.415,0.901,0.248,1.328,0.198
		c1.13-0.132,1.416,0.344,1.144,1.338c-1.086,0.65-2.281,0.271-3.425,0.331c-0.708,0.038-1.471,0.185-2.106-0.33
		c0-0.513,0-1.024,0-1.537C89.423,12.304,90.443,12.304,91.463,12.815z"/>
	<path fill-rule="evenodd" clip-rule="evenodd" fill="#FBFBFB" d="M88.403,20.281c1.843,0,3.687,0,5.531,0
		c-0.84,1.052-1.975,1.619-3.267,1.902C89.17,22.511,88.397,21.851,88.403,20.281z"/>
	<path fill-rule="evenodd" clip-rule="evenodd" fill="#FFFFFF" d="M96.836,17.207c1.895,0,3.789,0,5.685,0
		c0,0.438,0,0.878-0.001,1.317c-0.248,0.26-0.576,0.313-0.91,0.323c-1.287,0.036-2.576,0.036-3.863,0
		c-0.334-0.01-0.662-0.063-0.91-0.323C96.836,18.085,96.836,17.646,96.836,17.207z"/>
	<path fill-rule="evenodd" clip-rule="evenodd" fill="#FFFFFF" d="M96.836,14.352c1.895,0,3.789,0,5.684,0
		c0,0.44,0,0.879,0.001,1.318c-1.896,0-3.79,0-5.685,0C96.836,15.23,96.836,14.792,96.836,14.352z"/>
	<path fill-rule="evenodd" clip-rule="evenodd" fill="#FEFEFE" d="M96.836,18.524c1.895,0,3.789,0,5.684,0
		c0.001,0.438,0.001,0.879,0.001,1.317c-1.896,0-3.79,0-5.685,0C96.836,19.403,96.836,18.963,96.836,18.524z"/>
	<path fill-rule="evenodd" clip-rule="evenodd" fill="#FFFFFF" d="M88.403,17.207c1.844,0,3.687,0,5.53-0.001
		c0.089,0.439,0.092,0.879,0,1.316c-1.844,0.002-3.687,0.002-5.53,0.002C88.403,18.085,88.403,17.646,88.403,17.207z"/>
	<path fill-rule="evenodd" clip-rule="evenodd" fill="#FFFFFF" d="M88.403,14.353c1.844-0.001,3.688-0.001,5.531-0.001
		c0.089,0.44,0.093,0.879,0,1.318c-1.843,0-3.687,0-5.53,0C88.403,15.23,88.403,14.792,88.403,14.353z"/>
	<path fill-rule="evenodd" clip-rule="evenodd" fill="#FFFFFF" d="M100.321,12.815c-1.161,0-2.323,0-3.485,0
		c0-0.585,0-1.171,0-1.757c1.168,0.025,2.334,0.01,3.485-0.219C100.321,11.498,100.321,12.156,100.321,12.815z"/>
	<path fill-rule="evenodd" clip-rule="evenodd" fill="#FFFFFF" d="M91.463,12.815c-1.02,0-2.04,0-3.06,0c0-0.659,0-1.317,0-1.976
		c1.041,0.022,2.08,0.014,3.104-0.212C91.492,11.357,91.477,12.086,91.463,12.815z"/>
	<path fill-rule="evenodd" clip-rule="evenodd" fill="#FCFCFC" d="M96.861,21.814c0.785,0.121,1.625-0.269,2.365,0.26
		C98.457,21.815,97.613,22.229,96.861,21.814z"/>
	<path fill-rule="evenodd" clip-rule="evenodd" fill="#FFFFFF" d="M158.391,18.524c0.005-0.439,0.009-0.878,0.013-1.317
		c0.281-0.284,0.648-0.321,1.015-0.328c2.195-0.043,4.39,0.021,6.584-0.043c0.188-0.005,0.36,0.055,0.512,0.166
		c0.793,0.717,1.792,1.068,2.742,1.508c-0.373,0.394-0.87,0.357-1.343,0.36c-2.724,0.016-5.447,0.013-8.171,0.001
		C159.268,18.87,158.776,18.888,158.391,18.524z"/>
	<path fill-rule="evenodd" clip-rule="evenodd" fill="#FFFFFF" d="M166.514,17.002c-1.552,0.409-3.134,0.139-4.7,0.196
		c-1.136,0.042-2.273,0.009-3.41,0.009c-0.098-0.541,0.118-1.035,0.236-1.545c0.15-0.324,0.45-0.345,0.746-0.34
		c1.762,0.029,3.523-0.006,5.284,0.023c0.374,0.006,0.731,0.07,1.031,0.314C165.972,16.107,166.243,16.555,166.514,17.002z"/>
	<path fill-rule="evenodd" clip-rule="evenodd" fill="#FEFEFE" d="M158.391,18.524c3.622-0.004,7.243-0.01,10.865-0.015
		c1.02,0.322,2.135,0.195,3.128,0.646c-0.255,0.425-0.688,0.523-1.127,0.537c-1.051,0.033-2.104,0.132-3.153-0.048
		c-0.808-0.007-1.615-0.014-2.424-0.021c-0.322-0.36-0.754-0.213-1.138-0.216c-2.051-0.013-4.101-0.006-6.151-0.006
		C158.391,19.109,158.391,18.817,158.391,18.524z"/>
	<path fill-rule="evenodd" clip-rule="evenodd" fill="#FBFBFB" d="M174.098,20.281c0.227,0.994-0.318,1.477-1.181,1.751
		c-1.685,0.538-3.409,0.125-4.422-1.044c-0.137-0.156-0.175-0.302-0.143-0.488c0.116-0.193,0.282-0.375,0.495-0.396
		C170.604,19.927,172.367,19.651,174.098,20.281z"/>
	<path fill-rule="evenodd" clip-rule="evenodd" fill="#FFFFFF" d="M165.701,15.66c-2.354,0.001-4.707,0.002-7.062,0.002
		c0.111-0.602,0.345-1.137,0.848-1.525c1.689-0.225,3.386-0.085,5.078-0.099c0.648-0.006,1.058,0.255,1.046,0.96
		C165.642,15.219,165.672,15.439,165.701,15.66z"/>
	<path fill-rule="evenodd" clip-rule="evenodd" fill="#FFFFFF" d="M165.611,14.998c-0.167-0.531-0.522-0.681-1.08-0.66
		c-1.288,0.045-2.578,0.01-3.867,0.016c-0.409,0.002-0.813,0.005-1.177-0.217c1.032-0.97,2.352-0.871,3.622-0.959
		c0.374-0.025,0.842,0.175,1.038-0.361c0.513,0.152,1.232-0.383,1.538,0.455C165.661,13.848,165.636,14.423,165.611,14.998z"/>
	<path fill-rule="evenodd" clip-rule="evenodd" fill="#FDFDFD" d="M174.098,20.281c-1.914,0.105-3.846-0.236-5.745,0.219
		c-0.266-0.232-0.243-0.547-0.249-0.855c0.386-0.425,0.895-0.211,1.349-0.235c0.98-0.051,1.979,0.111,2.932-0.254
		C173.008,19.451,173.895,19.355,174.098,20.281z"/>
	<path fill-rule="evenodd" clip-rule="evenodd" fill="#FFFFFF" d="M173.234,13.635c-0.483,0.523-1.111,0.24-1.67,0.264
		c-1.066,0.048-2.137,0.014-3.206,0.016C169.286,12.34,171.573,12.208,173.234,13.635z"/>
	<path fill-rule="evenodd" clip-rule="evenodd" fill="#FBFBFB" d="M158.391,20.281c2.074,0,4.149,0.003,6.224-0.003
		c0.469-0.002,0.916-0.006,0.815,0.664c-2.348,0-4.693-0.001-7.039-0.003C158.391,20.72,158.391,20.5,158.391,20.281z"/>
	<path fill-rule="evenodd" clip-rule="evenodd" fill="#FBFBFB" d="M158.422,21.816c1.003,0.172,2.082-0.371,3.03,0.318
		C160.476,21.713,159.393,22.292,158.422,21.816z"/>
	<path fill-rule="evenodd" clip-rule="evenodd" fill="#FCFCFC" d="M152.634,22.128c0.873-0.646,1.874-0.168,2.805-0.313
		C154.544,22.278,153.536,21.736,152.634,22.128z"/>
	<path fill-rule="evenodd" clip-rule="evenodd" fill="#FFFFFF" d="M110.942,11.065c0,0.659-0.001,1.317-0.003,1.974
		c-0.247,0.254-0.573,0.339-0.899,0.316c-1.54-0.104-3.122,0.379-4.618-0.32c-0.098-0.66-0.091-1.317-0.001-1.977
		C107.262,11.061,109.102,11.063,110.942,11.065z"/>
	<path fill-rule="evenodd" clip-rule="evenodd" fill="#FFFFFF" d="M110.938,15.673c0,0.513,0,1.025-0.001,1.538
		c-0.245,0.256-0.572,0.338-0.899,0.316c-1.538-0.104-3.12,0.38-4.616-0.321c-0.094-0.513-0.09-1.024,0.001-1.536
		c1.084-0.649,2.276-0.272,3.418-0.33C109.543,15.305,110.308,15.146,110.938,15.673z"/>
	<path fill-rule="evenodd" clip-rule="evenodd" fill="#FFFFFF" d="M105.422,13.035c1.84,0.001,3.68,0.004,5.519,0.004
		c-0.001,0.513-0.001,1.025-0.001,1.537c-0.247,0.254-0.574,0.338-0.9,0.316c-1.539-0.104-3.122,0.379-4.618-0.32
		C105.327,14.06,105.332,13.547,105.422,13.035z"/>
	<path fill-rule="evenodd" clip-rule="evenodd" fill="#FDFDFD" d="M110.935,18.528c0.001,0.512,0.002,1.022,0.002,1.533
		c-1.838,0-3.677,0-5.515,0c-0.094-0.513-0.092-1.025,0-1.539c1.084-0.646,2.275-0.271,3.417-0.328
		C109.542,18.159,110.307,18,110.935,18.528z"/>
	<path fill-rule="evenodd" clip-rule="evenodd" fill="#FFFFFF" d="M110.935,18.528c-1.837-0.002-3.675-0.003-5.513-0.006
		c-0.093-0.438-0.089-0.877-0.001-1.316c1.839,0.002,3.679,0.003,5.517,0.005C110.937,17.649,110.936,18.089,110.935,18.528z"/>
	<path fill-rule="evenodd" clip-rule="evenodd" fill="#FFFFFF" d="M105.421,14.572c1.84,0,3.679,0.002,5.519,0.003
		c0,0.366-0.001,0.731-0.002,1.098c-1.838-0.001-3.677-0.003-5.516-0.003C105.422,15.303,105.422,14.938,105.421,14.572z"/>
	<path fill-rule="evenodd" clip-rule="evenodd" fill="#FCFCFC" d="M100.352,22.073c0.658-0.537,1.433-0.138,2.143-0.259
		C101.822,22.248,101.043,21.806,100.352,22.073z"/>
</g>
<g>
	<path fill-rule="evenodd" clip-rule="evenodd" fill="#FFFFFF" d="M45.162,21.612c-0.502,0.561-0.858,1.022-1.278,1.414
		c-3.589,3.354-10.756,2.335-12.799-1.808c-1.482-3.007-0.628-7.012,1.936-9.082c2.72-2.193,6.693-2.307,9.436-0.268
		c1.972,1.465,2.97,3.949,2.678,6.803c-3.364,0-6.743,0-10.167,0c-0.067,1.307,0.398,2.225,1.434,2.832
		c1.239,0.727,2.677,0.957,3.729,0.004c1.333-1.206,2.54-0.856,3.886-0.331C44.32,21.294,44.624,21.407,45.162,21.612z
		 M40.644,16.068c-0.301-1.822-1.339-2.703-3.062-2.643c-1.491,0.053-2.4,0.984-2.529,2.643
		C36.916,16.068,38.775,16.068,40.644,16.068z"/>
	<path fill-rule="evenodd" clip-rule="evenodd" fill="#FFFFFF" d="M28.254,18.683c-3.406,0-6.821,0-10.238,0
		c0.088,2.708,2.912,4.451,4.998,2.876c1.915-1.446,3.352-0.564,5.2,0.03c-0.486,0.562-0.859,1.09-1.326,1.517
		c-2.657,2.438-8.357,2.531-11.092,0.172c-2.364-2.038-2.758-4.683-2.025-7.504c0.723-2.781,2.631-4.559,5.47-5.143
		C24.602,9.53,28.62,13.102,28.254,18.683z M23.661,16.07c-0.127-1.738-1.336-2.745-3.109-2.638
		c-1.473,0.089-2.409,1.132-2.357,2.638C20.015,16.07,21.836,16.07,23.661,16.07z"/>
	<path fill-rule="evenodd" clip-rule="evenodd" fill="#FFFFFF" d="M55.777,13.941c-0.73,0.035-1.383,0.064-2.106,0.1
		c0,2.438,0,4.826,0,7.298c0.687,0.035,1.366,0.068,2.104,0.104c0,1.065,0,2.07,0,3.141c-2.841,0-5.658,0-8.546,0
		c0-1.023,0-2.026,0-3.116c0.604-0.047,1.207-0.094,1.863-0.145c0-2.416,0-4.778,0-7.252c-0.57-0.047-1.141-0.094-1.794-0.148
		c0-1.027,0-2.021,0-3.072c0.581-0.033,1.124-0.064,1.805-0.104c-0.069-2.943,0.585-5.574,4.006-6.189
		c2.253-0.404,4.5-0.257,6.245,1.795c-1.095,0.842-2.153,1.656-2.945,2.264c-0.773-0.44-1.429-1.13-1.949-1.042
		c-0.983,0.168-0.813,1.218-0.858,2.004c-0.021,0.357-0.003,0.719-0.003,1.199c0.761,0,1.44,0,2.179,0
		C55.777,11.869,55.777,12.838,55.777,13.941z"/>
	<path fill-rule="evenodd" clip-rule="evenodd" fill="#FFFFFF" d="M2.41,14c-0.773,0-1.497,0-2.295,0c0-1.086,0-2.057,0-3.113
		c2.111,0,4.227,0,6.447,0c0,0.812,0,1.637,0,2.502c0.851-0.786,1.528-1.674,2.425-2.166c0.881-0.484,1.985-0.568,3.195-0.881
		c0,0.983,0,1.666,0,2.35c0,0.65,0,1.303,0,2.006c-1.591,0.179-3.206,0.133-4.215,1.587c-1.05,1.513-1.058,3.211-0.956,5.079
		c0.901,0,1.761,0,2.674,0c0,1.145,0,2.149,0,3.221c-3.214,0-6.403,0-9.685,0c0-1.005,0-2.005,0-3.148c0.781,0,1.563,0,2.41,0
		C2.41,18.9,2.41,16.509,2.41,14z"/>
</g>
</svg>
