<?xml version="1.0" encoding="utf-8"?>
<!-- Generator: Adobe Illustrator 16.0.0, SVG Export Plug-In . SVG Version: 6.00 Build 0)  -->
<!DOCTYPE svg PUBLIC "-//W3C//DTD SVG 1.1//EN" "http://www.w3.org/Graphics/SVG/1.1/DTD/svg11.dtd">
<svg version="1.1" id="Layer_1" xmlns="http://www.w3.org/2000/svg" xmlns:xlink="http://www.w3.org/1999/xlink" x="0px" y="0px"
	 width="182px" height="31px" viewBox="0 0 182 31" enable-background="new 0 0 182 31" xml:space="preserve">
<g>
	<path fill-rule="evenodd" clip-rule="evenodd" fill="#F2F2F2" d="M60.9,26.3c-0.3-0.5-0.2-1.1-0.1-1.6c0.5-0.5,1.2-0.3,1.8-0.3
		c0.7,0,1.4,0,2.1-0.1c1.3-0.2,2.6-0.1,4-0.1c0.8,0,1.1-0.3,1.2-1.1c0-0.5,0.3-0.9,0.9-0.4c2.5,2.1,5.1,2,7.9,0.9c0.1,0,0.1,0,0.2,0
		c2.5-0.2,5,0,7.5-0.1c0.2,0,0.4,0.1,0.6,0.2c1.8,1.2,3.6,0.9,5.5,0c0.3-0.1,0.6-0.3,0.9-0.4c0.4-0.2,0.8-0.2,0.9,0.3
		c0.2,0.7,0.8,0.8,1.4,0.7c0.7,0,1.5,0,2.2,0c0.6,0,1.1-0.1,1.5-0.5c0.4-0.2,0.8-0.1,1.1,0c0.3,0.2,0.7,0.4,1.1,0.4
		c1.8,0,3.7,0.1,5.5-0.1c0.6-0.3,0.2-1.1,0.7-1.5c0.3-0.1,0.6-0.1,0.9,0.1c0.6,1.5,0.6,1.5,2.3,1.5c1.2,0,2.4,0,3.6,0
		c0.6,0,1.1-0.1,1.5-0.5c0.7-0.3,1.5-0.2,2.3-0.2c0.7,0,1.4,0,2.1-0.2c0.5-0.1,0.9,0.2,1.4,0.4c2.4,1.1,4.7,1,6.9-0.5
		c1-0.7,1.1-0.6,1.5,0.4c0.1,0.3,0.2,0.5,0.5,0.5c1.3,0.1,2.6,0.2,4-0.1c0.2,0,0.4-0.3,0.7-0.4c1.4-0.3,2.8-0.1,4.1-0.1
		c0.8,0,1.4,0.5,2.1,0.7c2.1,0.6,4.1,0.4,6.2-0.4c0.4-0.2,0.9-0.4,1.3-0.5c1.2,0.2,2.5-0.1,3.7,0.3c0.5,0.4,1,0.5,1.6,0.5
		c1.9,0,3.8,0,5.6,0c0.8,0,1.3-0.2,1.6-0.9c1.3-0.4,2.5-0.3,3.8-0.1c0.4,0.1,0.4,0.7,0.8,0.9c0.4,0.1,0.9,0.2,1.2,0.1
		c1-0.6,2-0.1,3,0.1c1.5,0.3,2.9,0.3,4.3-0.3c0.4-0.2,0.7-0.3,1.1-0.4c1.8-0.1,3.5-0.1,5.3-0.1c0.4,0,0.8,0,1.1,0.3
		c0,0.8,0.2,1.7-0.1,2.5C141.6,26.4,101.2,26.4,60.9,26.3z"/>
	<path fill-rule="evenodd" clip-rule="evenodd" fill="#FFFFFF" d="M61.2,3.4c0.2-0.7,0.5-1.3,1.1-1.8c0.6-0.4,1.2-0.4,1.8-0.4
		c3.1,0,6.3,0,9.4,0c34.9,0,69.8,0,104.7,0c0.8,0,1.6-0.1,2.3,0.4c0.5,0.5,0.9,1.1,1.1,1.8c-0.3,0.3-0.7,0.3-1,0.3
		c-0.4,0-0.8,0-1.2,0c-38.6,0-77.3,0-115.9,0C62.7,3.7,61.9,3.9,61.2,3.4z"/>
	<path fill-rule="evenodd" clip-rule="evenodd" fill="#EBEBEB" d="M181.5,27.8c-0.3,0.5-0.4,1.1-0.9,1.5c-0.7,0.4-1.5,0.3-2.3,0.3
		c-17.5,0-35.1,0-52.6,0c-20.4,0-40.8,0-61.2,0c-0.8,0-1.6,0.1-2.3-0.3c-0.5-0.4-0.8-0.9-0.9-1.5c0.2-0.5,0.7-0.5,1.1-0.6
		c0.4,0,0.9,0,1.3,0c38.4,0,76.9,0,115.3,0C179.9,27.2,180.8,26.9,181.5,27.8z"/>
	<path fill-rule="evenodd" clip-rule="evenodd" fill="#EAEAEA" d="M62.2,29.3c0.8,0,1.6,0,2.4,0c38.1,0,76.2,0,114.3,0
		c0.6,0,1.1,0,1.7,0c-0.9,1.3-2.2,1.7-3.7,1.7c-18.9,0-37.8,0-56.8,0c-18,0-36.1,0-54.1,0C64.4,31,63.1,30.6,62.2,29.3z"/>
	<path fill-rule="evenodd" clip-rule="evenodd" fill="#EEEEEE" d="M181.5,27.8c-0.4-0.3-0.9-0.3-1.4-0.3c-39.1,0-78.3,0-117.4,0
		c-0.5,0-1,0-1.4,0.3c-0.3-0.5-0.4-1-0.4-1.5c0.2-0.3,0.4-0.6,0.8-0.5c1,0.3,2.1,0.2,3.1,0.2c38.1,0,76.3,0,114.4,0
		c0.6,0,1.3,0.1,1.9-0.1c0.4-0.2,0.7,0,0.9,0.4C181.9,26.8,181.8,27.3,181.5,27.8z"/>
	<path fill-rule="evenodd" clip-rule="evenodd" fill="#FFFFFF" d="M180.5,1.6c-39.4,0-78.8,0-118.2,0c0.7-1,1.8-1.5,3-1.6
		c0.3,0,0.6,0,0.9,0c36.8,0,73.7,0,110.5,0C178.2,0,179.5,0.2,180.5,1.6z"/>
	<path fill-rule="evenodd" clip-rule="evenodd" fill="#FFFFFF" d="M61.2,3.4c40.1,0,80.3,0,120.4,0c0.2,0.3,0.3,0.7,0.3,1.1
		c-0.6,0.5-1.3,0.3-2,0.3c-14.9,0-29.8,0-44.8,0c-0.8,0-1.5,0-2.3,0.1c-1.9-0.1-3.7,0-5.6-0.1c-3.8,0-7.5,0-11.3,0
		c-0.8,0-1.5,0.1-1.5,1.1c0,0.6,0,1.2,0,1.8c0,0.6,0,1.2,0,1.8c0,0.5,0,0.9,0,1.4c0,0.6,0,1.3,0,1.9c0,0.5,0,1,0,1.5
		c0,0.4,0,0.9,0,1.3c0,0.4,0,0.9,0,1.3c0,0.5,0,1,0,1.5c0,0.5,0,1,0,1.5c0,0.4,0,0.8,0.1,1.2c0.2,0.5,0.7,0.2,1.1,0.4
		c0.3,0.1,0.8,0.1,0.4,0.6c-0.4,0.2-0.8,0.2-1.2,0.1c-0.7,0-1.1-0.4-1.1-1.1c0-0.4,0-0.9,0-1.3c0-4.5,0-9,0-13.6
		c0-1.5-0.1-1.6-1.6-1.6c-1.1,0-2.1,0-3.2,0.1c-1.2-0.1-2.4,0-3.6-0.1c-0.9-0.3-1.9-0.1-2.8,0.1c-10.7,0-21.5,0-32.2,0
		c-1.8,0.1-3.6,0-5.4,0.1c-0.9-0.1-1.7-0.1-2.6-0.1c-0.4,0-0.9,0-1.2-0.3C60.9,4.1,61,3.7,61.2,3.4z"/>
	<path fill-rule="evenodd" clip-rule="evenodd" fill="#FFFFFF" d="M182,7.8c0,0.6,0,1.2,0,1.8c-0.4,0.4-1,0.3-1.5,0.3
		c-12.1,0-24.1,0-36.2,0c-3.3,0-6.6,0-10,0c-0.6,0-1.2,0.1-1.7-0.3c-0.5-0.6-0.4-1.3,0-1.9c0.5-0.3,1.1-0.3,1.6-0.3
		c15.4,0,30.8,0,46.2,0C181,7.4,181.6,7.3,182,7.8z"/>
	<path fill-rule="evenodd" clip-rule="evenodd" fill="#FFFFFF" d="M182,7.8c-16.5,0-32.9,0-49.4,0c-0.4-0.6-0.4-1.2,0-1.9
		c0.5-0.3,1.1-0.3,1.6-0.3c15.3,0,30.7,0,46,0c0.6,0,1.2-0.1,1.7,0.4C182,6.6,182,7.2,182,7.8z"/>
	<path fill-rule="evenodd" clip-rule="evenodd" fill="#FFFFFF" d="M182,6c-16.5,0-32.9,0-49.4,0c-0.3-0.4-0.3-0.8,0-1.3
		c0.4-0.5,0.9-0.3,1.3-0.3c16,0,31.9,0,47.9,0C182.1,5,182.1,5.5,182,6z"/>
	<path fill-rule="evenodd" clip-rule="evenodd" fill="#FFFFFF" d="M132.7,9.5c16.5,0,32.9,0,49.4,0c0,0.4,0,0.9,0,1.3
		c-0.3,0.3-0.8,0.3-1.2,0.3c-1.4,0-2.7,0.1-4.1-0.1c-0.9-0.2-1.8-0.3-2.7,0c-0.3,0.1-0.6,0.1-0.9,0c-1.7-0.5-3.4-0.5-5.2,0.1
		c-0.2,0.1-0.4,0.1-0.5,0c-1.1-0.4-2.2-0.1-3.3-0.3c-1.4-0.3-2.8,0-4.2,0.2c-0.7-0.1-1.4-0.1-2.1-0.1c-1.7,0-3.4,0-5.1,0
		c-1.8,0.1-3.7-0.2-5.5,0.2c-0.4,0.1-0.8,0-1.2-0.2c-1.8-0.7-3.5-0.6-5.3,0.1c-0.4,0.2-0.7,0.3-1.2,0.2c-1.7-0.4-3.5-0.1-5.3-0.2
		c-0.6,0-1.2,0.1-1.7-0.3C132.3,10.4,132.3,10,132.7,9.5z"/>
	<path fill-rule="evenodd" clip-rule="evenodd" fill="#FFFFFF" d="M60.7,7.8c0-0.6,0-1.2,0-1.8c1.3-0.6,2.7-0.5,4-0.1
		c0.4,0.6,1,0.9,1.7,0.9c0.9,0,1.3,0.5,1.3,1.3c0,4.3,0,8.6,0,12.9c0,0.9-0.5,1.3-1.4,1.3c-0.5,0-1,0-1.4-0.1
		c-0.3-0.2-0.3-0.4,0-0.5c0.3-0.2,0.7-0.2,1-0.2c0.3,0,0.8,0.1,0.9-0.4c0-0.4,0-0.7,0-1.1c0-0.5,0-1,0-1.5c0-0.4,0-0.9,0-1.3
		c0-0.5,0-1,0-1.5c0-0.4,0-0.9,0-1.3c0-0.5,0-1,0-1.5c0-0.6,0-1.2,0-1.7c0-0.5,0-1,0-1.6c-0.1-1.4-0.1-1.4-1.5-1.4
		c-1.1,0-2.2,0-3.3,0C61.6,8.1,61.1,8.1,60.7,7.8z"/>
	<path fill-rule="evenodd" clip-rule="evenodd" fill="#FFFFFF" d="M182,14.6c0,0.4,0,0.7,0,1.1c-0.5,0.4-1,0.3-1.6,0.3
		c-2.4,0-4.8,0-7.2,0c-0.4,0-0.9-0.1-1.3,0.1c-0.9,0.2-1.7,0-2.6-0.3c-0.4-0.1-0.7-0.3-0.8-0.7c0.1-0.6,0.5-0.7,1-0.7
		c1.4,0,2.7-0.1,4.1,0.1c1.1,0.5,2.1,0.5,3.1-0.2c1.5-0.3,3-0.1,4.5-0.1C181.5,14.3,181.8,14.3,182,14.6z"/>
	<path fill-rule="evenodd" clip-rule="evenodd" fill="#FFFFFF" d="M171.8,16c0.3-0.5,0.8-0.3,1.2-0.3c3,0,6,0,9,0c0,0.4,0,0.9,0,1.3
		c-0.5,0.4-1,0.3-1.6,0.3c-1.5,0.1-2.9-0.2-4.4,0.2C174.6,17.1,173.2,16.7,171.8,16z"/>
	<path fill-rule="evenodd" clip-rule="evenodd" fill="#FFFFFF" d="M60.7,7.8c1.5,0,3.1,0,4.6,0c1.8,0,1.8,0,1.7,1.8
		c-0.3,0.3-0.6,0.3-0.9,0.3c-1.5,0-3,0-4.5,0c-0.3,0-0.7-0.1-0.9-0.3C60.7,8.9,60.7,8.4,60.7,7.8z"/>
	<path fill-rule="evenodd" clip-rule="evenodd" fill="#FFFFFF" d="M67.1,11.1c0,0.6,0,1.2,0,1.8c-0.3,0.3-0.6,0.3-0.9,0.3
		c-1.5,0-3,0-4.5,0c-0.3,0-0.7-0.1-0.9-0.3c0-0.6,0-1.2,0-1.8c0.2-0.2,0.5-0.3,0.8-0.3c1.6-0.1,3.2-0.1,4.8,0
		C66.6,10.8,66.9,10.8,67.1,11.1z"/>
	<path fill-rule="evenodd" clip-rule="evenodd" fill="#FFFFFF" d="M176.5,10.8c1.8,0,3.7,0,5.5,0c0,0.7,0,1.3,0,2
		c-0.3,0.3-0.7,0.3-1,0.3c-1.5-0.1-3,0.3-4.5-0.2C176.1,12.2,176.1,11.5,176.5,10.8z"/>
	<path fill-rule="evenodd" clip-rule="evenodd" fill="#F8F8F8" d="M67.1,21.2c0.1,0.6-0.3,0.6-0.7,0.7c-0.5,0.1-1.2-0.3-1.6,0.3
		c0.3,0.5,0.3,0.9-0.1,1.4c-1.3,0.3-2.6,0.5-3.9-0.1c0-0.7,0-1.5,0-2.2c0.2-0.2,0.5-0.3,0.8-0.3c1.6-0.1,3.2-0.1,4.7,0
		C66.6,20.9,66.9,20.9,67.1,21.2z"/>
	<path fill-rule="evenodd" clip-rule="evenodd" fill="#FFFFFF" d="M67.1,15.7c0,0.5,0,1,0,1.5c-0.2,0.2-0.5,0.3-0.8,0.3
		c-1.6,0-3.2,0.1-4.7,0c-0.3,0-0.6-0.1-0.8-0.3c0-0.5,0-1,0-1.5c0.2-0.2,0.5-0.3,0.8-0.3c1.6-0.1,3.2-0.1,4.8,0
		C66.6,15.4,66.9,15.4,67.1,15.7z"/>
	<path fill-rule="evenodd" clip-rule="evenodd" fill="#FDFDFD" d="M67.1,18.5c0,0.5,0,1,0,1.5c-0.2,0.2-0.5,0.3-0.8,0.3
		c-1.6,0.1-3.2,0.1-4.7,0c-0.3,0-0.6-0.1-0.8-0.3c0-0.5,0-1,0-1.5c0.2-0.2,0.5-0.3,0.8-0.3c1.6-0.1,3.2-0.1,4.7,0
		C66.6,18.2,66.9,18.3,67.1,18.5z"/>
	<path fill-rule="evenodd" clip-rule="evenodd" fill="#FFFFFF" d="M60.7,12.8c2.1,0,4.2,0,6.4,0c0,0.5,0,1,0,1.5
		c-0.3,0.3-0.6,0.3-0.9,0.3c-1.5,0-3,0-4.5,0c-0.3,0-0.7-0.1-0.9-0.3C60.7,13.8,60.7,13.3,60.7,12.8z"/>
	<path fill-rule="evenodd" clip-rule="evenodd" fill="#FFFFFF" d="M67.1,11.1c-2.1,0-4.2,0-6.4,0c0-0.5,0-1,0-1.5c2.1,0,4.2,0,6.4,0
		C67.1,10,67.1,10.6,67.1,11.1z"/>
	<path fill-rule="evenodd" clip-rule="evenodd" fill="#FDFDFD" d="M182,18.5c0,0.7,0,1.3,0,2c-1.6,0.6-3.2,0.4-4.8,0.1
		c-0.5-0.5-0.6-1.1-0.4-1.8c0.1-0.2,0.3-0.5,0.5-0.5C178.9,18.2,180.5,17.9,182,18.5z"/>
	<path fill-rule="evenodd" clip-rule="evenodd" fill="#FFFFFF" d="M176.5,12.8c1.8,0,3.7,0,5.5,0c0,0.6,0,1.2,0,1.8
		c-1.8,0-3.7,0-5.5,0C176.1,14,176.1,13.4,176.5,12.8z"/>
	<path fill-rule="evenodd" clip-rule="evenodd" fill="#FFFFFF" d="M182,18.5c-1.3,0-2.6,0-3.9,0c-0.4,0-0.9-0.1-1.1,0.5
		c-0.7-0.3-1.1-0.8-1.1-1.6c0.2-0.5,0.7-0.4,1.1-0.4c1.7,0,3.3,0,5,0C182,17.5,182,18,182,18.5z"/>
	<path fill-rule="evenodd" clip-rule="evenodd" fill="#F6F6F6" d="M182,23.8c-2.2,0-4.4,0-6.6,0c0.3-0.8,0.8-1.4,1.6-1.8
		c1.4-0.2,2.7-0.1,4.1-0.1c0.3,0,0.7,0.1,0.9,0.3C182,22.8,182,23.3,182,23.8z"/>
	<path fill-rule="evenodd" clip-rule="evenodd" fill="#F9F9F9" d="M182,22.3c-1.7,0-3.5,0-5.2,0c-0.2-0.7,0-1.2,0.4-1.8
		c1.6,0,3.2,0,4.8,0C182,21.1,182,21.7,182,22.3z"/>
	<path fill-rule="evenodd" clip-rule="evenodd" fill="#FFFFFF" d="M67.1,18.5c-2.1,0-4.2,0-6.3,0c0-0.4,0-0.9,0-1.3
		c2.1,0,4.2,0,6.4,0C67.1,17.6,67.1,18.1,67.1,18.5z"/>
	<path fill-rule="evenodd" clip-rule="evenodd" fill="#FFFFFF" d="M60.7,14.4c2.1,0,4.2,0,6.4,0c0,0.4,0,0.9,0,1.3
		c-2.1,0-4.2,0-6.4,0C60.7,15.2,60.7,14.8,60.7,14.4z"/>
	<path fill-rule="evenodd" clip-rule="evenodd" fill="#FCFCFC" d="M60.7,20.1c2.1,0,4.2,0,6.3,0c0,0.4,0,0.7,0,1.1
		c-2.1,0-4.2,0-6.3,0C60.7,20.8,60.7,20.4,60.7,20.1z"/>
	<path fill-rule="evenodd" clip-rule="evenodd" fill="#FFFFFF" d="M64.7,6c-1.3,0-2.6,0-4,0c-0.1-0.5-0.1-1.1,0.2-1.5
		c0.9,0,1.9,0,2.8,0c0.3,0,0.7-0.1,1,0.3C65,5.2,65,5.6,64.7,6z"/>
	<path fill-rule="evenodd" clip-rule="evenodd" fill="#F3F3F3" d="M60.7,23.4c1.3,0,2.6,0,4,0c0.3,0.3,0.3,0.7,0,1
		c-0.7,0.6-1.6,0.2-2.3,0.3c-0.5,0.1-1.1,0-1.7,0C60.7,24.2,60.7,23.8,60.7,23.4z"/>
	<path fill-rule="evenodd" clip-rule="evenodd" fill="#F9F9F9" d="M161.5,23.4c-0.1-0.4-0.1-0.8,0-1.2c-0.5-0.4-1.2-0.1-1.7-0.2
		c-0.4-0.1-0.9,0.1-1.3-0.1c-0.1-0.3-0.1-0.6,0-0.9c0.1,0,0.1-0.1,0.2-0.1c2.3-0.3,4.6-0.4,6.9,0.1c0.2,0.8,0.2,1.7,0,2.5
		C164.1,23.4,162.8,23.4,161.5,23.4z"/>
	<path fill-rule="evenodd" clip-rule="evenodd" fill="#FCFCFC" d="M105.5,21.8c-0.2-0.6-0.1-1.2,0-1.8c0.3-0.3,0.7-0.4,1.1-0.3
		c1.5,0.1,3-0.3,4.4,0.3c0.1,0.1,0.1,0.2,0.1,0.3c0.1,1.6,0.1,1.6-1.5,1.7c-0.3,0-0.7-0.2-1,0.2c0,0.2,0,0.4,0,0.6
		c-0.3,0-0.6,0-0.9,0c-0.1-0.6-0.4-0.9-1.1-0.8C106.2,22,105.8,22,105.5,21.8z"/>
	<path fill-rule="evenodd" clip-rule="evenodd" fill="#F8F8F8" d="M116.1,23.8c0-0.6,0-1.2,0-1.7c-0.3-0.4-0.7-0.2-1.1-0.2
		c-0.3-0.1-0.8,0.2-0.8-0.4c0.4-0.4,0.9-0.4,1.4-0.3c1,0.1,2.1-0.2,3.1,0.1c0.4,0.9,1.2,1.5,1.8,2.2c-0.2,0.5-0.7,0.5-1.1,0.5
		C118.3,23.8,117.2,23.8,116.1,23.8z"/>
	<path fill-rule="evenodd" clip-rule="evenodd" fill="#F8F8F8" d="M152.6,22.1c0.1,0.6,0.1,1.1,0,1.7c-1.3-0.1-2.5,0.2-3.8-0.2
		c0.8-0.7,1.8-1.3,2.2-2.4c0.1-0.2,0.2-0.4,0.4-0.4c1.4-0.2,2.7-0.5,4.1,0.1c0,0.3,0,0.6,0,0.9c-0.7,0.2-1.4,0-2,0.1
		C153.1,22,152.8,21.8,152.6,22.1z"/>
	<path fill-rule="evenodd" clip-rule="evenodd" fill="#F7F7F7" d="M137.1,21.4c0.7,1,1.6,1.7,2.5,2.4c-1.5,0-3,0-4.5,0
		c0-0.6,0-1.1,0-1.7c-0.8-0.4-1.6,0.1-2.4-0.3c0-0.1,0-0.3,0-0.4C134.1,20.8,135.6,20.8,137.1,21.4z"/>
	<path fill-rule="evenodd" clip-rule="evenodd" fill="#F6F6F6" d="M85.7,22.5c0.2,0.4,0.4,0.7,0.7,1.1c-0.5,0.3-1.1,0.2-1.7,0.2
		c-2,0-4,0-6,0c0.5-0.4,1-0.9,1.5-1.3c0.7-0.4,1.5-0.1,2.2-0.1C83.5,22.4,84.6,22.2,85.7,22.5z"/>
	<path fill-rule="evenodd" clip-rule="evenodd" fill="#FDFDFD" d="M165.4,23.4c0-0.8,0-1.6,0-2.4c-0.3-0.4-0.7-0.3-1.1-0.3
		c-1.5,0-3.1,0-4.6,0c-0.5,0-1,0-1.3-0.3c0-0.3,0-0.6,0-0.9c0.2-0.2,0.4-0.3,0.6-0.3c2-0.1,4-0.1,6,0c0.3,0,0.7,0.1,0.7,0.5
		c0,1.6,0,3.2,0,4.8C165.3,24.2,165.5,23.7,165.4,23.4z"/>
	<path fill-rule="evenodd" clip-rule="evenodd" fill="#F7F7F7" d="M100.4,22.1c0,0.6,0,1.1,0,1.7c-0.4,0-0.7,0-1.1,0
		c0-0.6,0-1.1,0-1.7c-0.8-0.4-1.6,0.1-2.4-0.3c0-0.1,0-0.3,0-0.4c0.2-0.3,0.6-0.3,0.9-0.3c1.3,0,2.6,0,3.9,0c0.3,0,0.7,0.1,0.9,0.3
		c0,0.1,0,0.3,0,0.4C101.8,22.1,101,21.7,100.4,22.1z"/>
	<path fill-rule="evenodd" clip-rule="evenodd" fill="#FEFEFE" d="M105.5,21.8c0.4,0,0.9,0,1.3,0c0.7-0.1,1,0.2,0.9,0.9
		c-0.2,0.6,0.2,1.2-0.3,1.7c0-0.2,0-0.4,0-0.5c0-1.8,0-1.8-1.8-1.9C105.6,22,105.5,21.9,105.5,21.8z"/>
	<path fill-rule="evenodd" clip-rule="evenodd" fill="#FFFFFF" d="M129.8,7.8c0,0.6,0,1.2,0,1.8c-0.4,0.4-1,0.3-1.5,0.3
		c-4.2,0-8.5,0-12.7,0c-0.5,0-1,0.1-1.5-0.3c0-0.6,0-1.2,0-1.8c0.4-0.4,1-0.4,1.5-0.4c4.3,0,8.6,0,13,0C129,7.4,129.4,7.4,129.8,7.8
		z"/>
	<path fill-rule="evenodd" clip-rule="evenodd" fill="#FFFFFF" d="M129.8,7.8c-5.2,0-10.4,0-15.7,0c0-0.6,0-1.2,0-1.8
		c0.4-0.4,1-0.4,1.5-0.4c3.4,0,6.7,0,10.1,0c0.5,0,1-0.1,1.5,0.3c-0.1,0.9,0.3,1.1,1.1,1c0.3,0,0.7,0,1,0
		C129.8,7,129.9,7.3,129.8,7.8z"/>
	<path fill-rule="evenodd" clip-rule="evenodd" fill="#FFFFFF" d="M70,5.1C70,4.9,70,4.7,70,4.5c10.6,0,21.2,0,31.8,0
		c0.3,0,0.6-0.1,0.8,0.2c0.1,0.5-0.2,0.7-0.6,0.9c-2,0.2-4,0.2-6.1,0c-0.6-0.2-1.2-0.1-1.7-0.1c-7.5,0-14.9,0-22.4,0
		C71.2,5.4,70.5,5.6,70,5.1z"/>
	<path fill-rule="evenodd" clip-rule="evenodd" fill="#FFFFFF" d="M127.1,6c-4.3,0-8.7,0-13,0c0-1.5,0-1.5,1.5-1.5
		c3.9,0,7.7,0,11.6,0C127.2,5,127.1,5.5,127.1,6z"/>
	<path fill-rule="evenodd" clip-rule="evenodd" fill="#FFFFFF" d="M114.1,9.5c5.2,0,10.4,0,15.7,0c0,0.1,0,0.1,0,0.2
		c0,0.8,0.3,1.8-0.2,2.3c-0.3,0.3-1-0.8-1.7-1.1c-2.3-1.1-4.6-0.9-6.8,0.3c-1.8-0.2-3.7-0.1-5.5-0.1c-0.5,0-1.1,0.1-1.6-0.3
		C114.1,10.4,114.1,10,114.1,9.5z"/>
	<path fill-rule="evenodd" clip-rule="evenodd" fill="#FFFFFF" d="M114.1,10.8c2,0,3.9,0,5.9,0c0.4,0,0.9-0.1,1.1,0.4
		c-0.7,0.6-1.3,1.2-2,1.8c-1.4,0.1-2.8,0-4.2,0c-0.3,0-0.7-0.1-0.9-0.3C114.1,12.2,114.1,11.5,114.1,10.8z"/>
	<path fill-rule="evenodd" clip-rule="evenodd" fill="#FFFFFF" d="M114.1,12.8c1.4,0,2.7,0,4.1,0c0.4,0,0.8-0.1,1,0.3
		c-0.2,0.4-0.5,0.8-0.7,1.3c-1.5,0.5-2.9,0.6-4.4,0C114.1,13.8,114.1,13.3,114.1,12.8z"/>
	<path fill-rule="evenodd" clip-rule="evenodd" fill="#FEFEFE" d="M118,18.7c0.1,0.4,0.2,0.9,0.2,1.3c-1.4,0.5-2.8,0.5-4.1,0
		c0-0.5,0-1,0-1.5C115.4,18.1,116.8,17.8,118,18.7z"/>
	<path fill-rule="evenodd" clip-rule="evenodd" fill="#FFFFFF" d="M118,18.7c-1.3-0.5-2.6-0.1-3.9-0.2c0-0.5,0-1,0-1.5
		c1.1-0.6,2.2-0.4,3.4-0.2c0.4,0,0.6,0.3,0.4,0.7C118,17.9,118,18.3,118,18.7z"/>
	<path fill-rule="evenodd" clip-rule="evenodd" fill="#FBFBFB" d="M114.1,20.1c1.4,0,2.8,0,4.1,0c0.1,0.4,0.3,0.7,0.4,1.1
		c-1.5,0.4-3,0.1-4.6,0.2C114.1,20.9,114.1,20.5,114.1,20.1z"/>
	<path fill-rule="evenodd" clip-rule="evenodd" fill="#FFFFFF" d="M114.1,14.4c1.5,0,2.9,0,4.4,0c-0.1,0.4-0.3,0.9-0.4,1.3
		c-1.3,0.5-2.6,0.5-4,0C114.1,15.2,114.1,14.8,114.1,14.4z"/>
	<path fill-rule="evenodd" clip-rule="evenodd" fill="#FFFFFF" d="M114.1,15.7c1.3,0,2.6,0,4,0c0,0.6,0.1,1.2-0.2,1.8
		c-0.1-0.6-0.5-0.5-0.9-0.5c-0.9,0-1.9,0-2.8,0C114.1,16.6,114.1,16.1,114.1,15.7z"/>
	<path fill-rule="evenodd" clip-rule="evenodd" fill="#FFFFFF" d="M105.5,6.2c0-0.6-0.2-1.2-0.6-1.7c1.2,0.1,2.5-0.3,3.6,0.2
		c0,0.4,0,0.9,0,1.3C107.6,6.5,106.5,6.3,105.5,6.2z"/>
	<path fill-rule="evenodd" clip-rule="evenodd" fill="#FFFFFF" d="M139.8,11.2c-0.9,0.4-1.4,1.3-2.2,1.9c-1.3,0.1-2.7,0-4,0
		c-0.3,0-0.6-0.1-0.9-0.3c-0.1-0.7-0.1-1.3,0-2c2,0,3.9,0,5.9,0C139,10.8,139.5,10.7,139.8,11.2z"/>
	<path fill-rule="evenodd" clip-rule="evenodd" fill="#FFFFFF" d="M152.7,10.6c0,0.7,0,1.4-0.1,2.2c-1,0.6-2.1,0.3-3.1,0.2
		c-0.7-0.8-1.6-1.4-2.4-2c0.2-0.4,0.6-0.4,1-0.4C149.6,10.6,151.2,10.6,152.7,10.6z"/>
	<path fill-rule="evenodd" clip-rule="evenodd" fill="#FFFFFF" d="M164.1,12.8c0-0.7,0-1.5,0-2.2c0.8,0,1.5,0,2.3,0
		c0.4,0,0.8,0,1,0.4c-0.7,0.6-1.3,1.4-1.8,2.3C165.2,13.1,164.6,13.2,164.1,12.8z"/>
	<path fill-rule="evenodd" clip-rule="evenodd" fill="#FFFFFF" d="M159.9,10.8c-0.7,0.6-1.4,1.2-2.1,2c0-0.7,0-1.5,0-2.2
		C158.5,10.7,159.3,10.4,159.9,10.8z"/>
	<path fill-rule="evenodd" clip-rule="evenodd" fill="#FFFFFF" d="M173.2,13.6c0.2,0.4,0.7,0.6,0.6,1.2c-1.4,0-2.8,0-4.2,0
		c-0.4,0-0.8-0.1-0.9,0.5c-0.6-0.3-0.6-0.8-0.4-1.3c1.4-0.7,2.8-0.2,4.2-0.3C172.8,13.6,173,13.7,173.2,13.6z"/>
	<path fill-rule="evenodd" clip-rule="evenodd" fill="#FFFFFF" d="M129.8,17c0,0.5,0.2,1.1-0.1,1.6c-0.4,0.3-0.8,0.3-1.2,0.3
		c-2,0-4,0-6,0c-0.4,0-0.9,0-1.2-0.3c-0.2-0.4-0.2-0.7-0.1-1.1c0.1-0.5,0.5-0.7,0.9-0.7c2.4-0.1,4.8-0.1,7.1,0
		C129.3,16.7,129.6,16.8,129.8,17z"/>
	<path fill-rule="evenodd" clip-rule="evenodd" fill="#FCFCFC" d="M128.9,20.3c-1.9,2.6-5.3,2.6-7.1,0c-0.1-0.5,0.3-0.7,0.7-0.7
		c1.9-0.1,3.7-0.1,5.6,0C128.5,19.6,128.9,19.7,128.9,20.3z"/>
	<path fill-rule="evenodd" clip-rule="evenodd" fill="#FFFFFF" d="M129.8,17c-2.5,0-5.1,0-7.6,0c-0.4,0-0.9,0-1.2,0.4
		c0-0.6,0-1.2,0.4-1.7c0.3-0.3,0.7-0.3,1.1-0.3c2,0,3.9,0,5.9,0c0.4,0,0.8,0.1,1.1,0.3C129.6,16.1,129.9,16.5,129.8,17z"/>
	<path fill-rule="evenodd" clip-rule="evenodd" fill="#FEFEFE" d="M128.9,20.3c-0.2-0.4-0.5-0.4-0.9-0.4c-1.8,0-3.5,0-5.3,0
		c-0.4,0-0.7,0.1-0.9,0.5c-0.5-0.5-0.7-1.1-0.7-1.8c2.8,0,5.7,0,8.5,0C129.6,19.2,129.4,19.8,128.9,20.3z"/>
	<path fill-rule="evenodd" clip-rule="evenodd" fill="#FFFFFF" d="M129.5,15.7c-2.7,0-5.4,0-8.1,0c0.1-0.7,0.5-1.2,1.1-1.6
		c2,0,4-0.2,6,0.1C129,14.5,129.3,15,129.5,15.7z"/>
	<path fill-rule="evenodd" clip-rule="evenodd" fill="#FFFFFF" d="M132.7,12.8c1.3,0,2.6,0,3.9,0c0.3,0,0.7-0.1,1,0.3
		c-0.3,0.5-0.6,1-0.9,1.5c-1.3,0-2.7,0.4-4-0.3C132.6,13.8,132.6,13.3,132.7,12.8z"/>
	<path fill-rule="evenodd" clip-rule="evenodd" fill="#FFFFFF" d="M128.4,14.1c-2,0.3-4,0.4-6-0.1C124.1,12.4,126.8,12.4,128.4,14.1
		z"/>
	<path fill-rule="evenodd" clip-rule="evenodd" fill="#FEFEFE" d="M136.2,18.5c0.1,0.5,0.3,1,0.3,1.5c-1.3,0.5-2.5,0.5-3.8,0
		c-0.1-0.5-0.1-1,0-1.5C133.8,18,135,18,136.2,18.5z"/>
	<path fill-rule="evenodd" clip-rule="evenodd" fill="#FBFBFB" d="M132.7,20.1c1.3,0,2.5,0,3.8,0c0.3,0.4,0.6,0.8,0.6,1.3
		c-1.5,0-2.9,0-4.4,0C132.6,20.9,132.6,20.5,132.7,20.1z"/>
	<path fill-rule="evenodd" clip-rule="evenodd" fill="#FFFFFF" d="M136.3,16c0,0.4,0,0.8-0.1,1.2c-1.2,0.5-2.3,0.5-3.5,0
		c-0.1-0.5-0.1-1,0-1.5c1-0.6,2.1-0.4,3.2-0.2C136.1,15.5,136.3,15.6,136.3,16z"/>
	<path fill-rule="evenodd" clip-rule="evenodd" fill="#FFFFFF" d="M136.3,16c-0.7-0.6-1.6-0.2-2.4-0.3c-0.4-0.1-0.8,0-1.2,0
		c-0.1-0.4-0.1-0.9,0-1.3c1,0,2,0,3,0c0.3,0,0.7-0.1,1,0.3C136.3,15,136.6,15.6,136.3,16z"/>
	<path fill-rule="evenodd" clip-rule="evenodd" fill="#FFFFFF" d="M132.7,17.2c1.2,0,2.3,0,3.5,0c0,0.4,0,0.9,0,1.3
		c-1.2,0-2.4,0-3.5,0C132.6,18.1,132.6,17.6,132.7,17.2z"/>
	<path fill-rule="evenodd" clip-rule="evenodd" fill="#FBFBFB" d="M132.7,21.8c0.8,0.1,1.6-0.3,2.4,0.3
		C134.3,21.8,133.5,22.2,132.7,21.8z"/>
	<path fill-rule="evenodd" clip-rule="evenodd" fill="#FFFFFF" d="M70,9.5c0-0.6,0-1.2,0-1.8c0.4-0.4,1-0.3,1.5-0.3
		c10.1,0,20.1-0.1,30.2,0c2.5,0,5-0.3,7.6-0.1c2,0.2,2,0.1,1.8,2.1c-0.4,0.4-1,0.3-1.5,0.3c-11.2,0-22.4,0-33.6,0
		c-1.5,0-2.9,0.1-4.4,0C71,9.9,70.5,9.9,70,9.5z"/>
	<path fill-rule="evenodd" clip-rule="evenodd" fill="#FFFFFF" d="M70,9.5c13.6,0,27.3,0,40.9,0c0.2,0.5,0.2,1.1,0,1.6
		c-1.8,0.4-3.7,0.5-5.5-0.1c-0.1-0.3-0.1-0.5-0.5-0.5c-1.5,0-2.9,0-4.4,0.1c-0.1,0-0.2,0.1-0.2,0.2c-1.1,0.7-2.3,0.8-3.5,0.2
		c0-0.4-0.3-0.5-0.7-0.5c-1.6,0-3.1,0-4.7,0.1c-1,0.7-2,0.7-3.1,0.2c-0.5-0.5-1.1-0.2-1.7-0.3c-1.1,0-2.1,0-3.2,0
		c-0.4,0.5-0.9,0.5-1.5,0.5c-1.1,0-2.1-0.1-3.2,0.1c-3.1-1.6-6.1-1.4-8.8,1.2C70,11.4,70,10.4,70,9.5z"/>
	<path fill-rule="evenodd" clip-rule="evenodd" fill="#FFFFFF" d="M110.9,11.1c0-0.5,0-1,0-1.5c0-0.2,0-0.4,0-0.5
		c0.2-0.9-0.2-1.2-1.2-1.2c-13.2,0-26.5,0-39.7,0c0-0.2,0-0.4,0-0.7c0.6-0.5,1.3-0.3,1.9-0.3c9.1,0,18.2,0,27.2,0
		c1,0,2.1-0.2,3.1-0.1c0.3,0.8,0.9,0.9,1.6,0.9c0.9,0,1.4-0.5,1.7-1.3c1-0.4,2-0.1,3.1-0.2c-0.1,0.9,0.4,1.2,1.2,1
		c1.2-0.2,1.4,0.3,1.4,1.4c-0.1,4.2,0,8.3,0,12.5c0,0.8-0.2,1.2-1.1,1.1c-0.5-0.1-1-0.1-1.5,0.1c0.1-0.4,0.4-0.3,0.7-0.3
		c1.7-0.1,1.7-0.1,1.7-1.7c-0.3-0.5-0.3-1-0.3-1.5c0-0.4,0-0.9,0-1.3c0-0.5,0-1,0-1.5c0-0.4,0-0.8,0-1.1c0-0.5,0-1,0-1.6
		C110.7,12.3,110.5,11.7,110.9,11.1z"/>
	<path fill-rule="evenodd" clip-rule="evenodd" fill="#FFFFFF" d="M102.1,5.3c0,0.4,0,0.7,0,1.1c-0.3,0.2-0.7,0.2-1.1,0.2
		c-9.7,0-19.4,0-29.1,0c-0.6,0-1.3,0.1-1.9-0.3c0-0.3,0-0.6,0-0.9c0.3-0.2,0.6-0.1,0.9-0.1c8.1,0,16.1,0,24.2,0
		c0.3,0,0.6-0.1,0.9,0.1C98,5.3,100,5.3,102.1,5.3z"/>
	<path fill-rule="evenodd" clip-rule="evenodd" fill="#FFFFFF" d="M70,6.2c10.1,0,20.2,0,30.2,0c0.6,0,1.2,0,1.8,0.2
		c0,0.1,0.1,0.2,0.1,0.2c-0.6,0.3-1.3,0.4-2,0.4c-10.1,0-20.1,0-30.2,0C70,6.8,70,6.5,70,6.2z"/>
	<path fill-rule="evenodd" clip-rule="evenodd" fill="#FFFFFF" d="M78.6,15.7c0.3,0.5,0.3,1,0.2,1.5c-0.3,0.3-0.7,0.3-1.1,0.3
		c-2.1,0-4.2,0-6.4,0c-0.4,0-0.8-0.1-1.1-0.3c0-0.5,0-1.1,0.3-1.5c0.3-0.3,0.7-0.3,1.1-0.3c2,0,3.9,0,5.9,0
		C77.9,15.3,78.3,15.4,78.6,15.7z"/>
	<path fill-rule="evenodd" clip-rule="evenodd" fill="#FCFCFC" d="M78,20.3c-1.8,2.6-5.6,2.5-7.2-0.2c0.2-0.5,0.7-0.6,1.1-0.6
		c1.7-0.1,3.4-0.1,5.1,0C77.5,19.5,78.1,19.5,78,20.3z"/>
	<path fill-rule="evenodd" clip-rule="evenodd" fill="#FFFFFF" d="M70.2,17.2c2.9,0,5.8,0,8.6,0c0,0.5,0.2,1.1-0.2,1.6
		c-2.5,0.2-5,0-7.5,0c-0.3,0-0.7-0.1-0.9-0.3C70.1,18.1,70.1,17.6,70.2,17.2z"/>
	<path fill-rule="evenodd" clip-rule="evenodd" fill="#FEFEFE" d="M70.3,18.5c2.4,0,4.9,0,7.3,0c0.4,0,0.8-0.1,1.1,0.3
		c0,0.6-0.3,1.1-0.7,1.5c0-0.3-0.2-0.5-0.5-0.5c-2.1,0-4.1,0-6.1,0c-0.2,0-0.3,0.1-0.5,0.2C70.4,19.6,70.3,19.1,70.3,18.5z"/>
	<path fill-rule="evenodd" clip-rule="evenodd" fill="#FFFFFF" d="M78.6,15.7c-2.7,0-5.4,0-8.1,0c0.1-0.5,0.4-1,0.8-1.3
		c2.2-0.5,4.4-0.6,6.6,0C78.3,14.7,78.6,15.1,78.6,15.7z"/>
	<path fill-rule="evenodd" clip-rule="evenodd" fill="#F8F8F8" d="M85.7,22.5c-1.9,0.4-3.7,0.3-5.6,0c0.3-0.5,0.7-1,1-1.5
		c1.5-0.5,2.9-0.5,4.4,0C85.6,21.4,85.8,21.9,85.7,22.5z"/>
	<path fill-rule="evenodd" clip-rule="evenodd" fill="#FFFFFF" d="M78.9,11.2c0.1-0.6,0.6-0.4,1-0.4c1.2-0.1,2.5,0.1,3.7-0.2
		c0,0.7,0,1.5,0,2.2c-1,0.5-1.9,0.5-2.9,0C80,12.3,79.4,11.8,78.9,11.2z"/>
	<path fill-rule="evenodd" clip-rule="evenodd" fill="#FFFFFF" d="M77.9,14.4c-2.2,0-4.4,0-6.6,0C73.2,12.2,76,12.2,77.9,14.4z"/>
	<path fill-rule="evenodd" clip-rule="evenodd" fill="#FFFFFF" d="M80.6,12.8c1,0,1.9,0,2.9,0c0.2,0.3,0.5,0.3,0.8,0.2
		c1.1-0.2,1.5,0.3,1.2,1.3c-1.3,0.6-2.6,0.3-4,0.2C81.2,14,80.9,13.4,80.6,12.8z"/>
	<path fill-rule="evenodd" clip-rule="evenodd" fill="#FFFFFF" d="M95.9,5.3c-8.6,0-17.3,0-25.9,0c0-0.1,0-0.1,0-0.2
		c8.2,0,16.4,0,24.6,0C95.1,5.1,95.5,5,95.9,5.3z"/>
	<path fill-rule="evenodd" clip-rule="evenodd" fill="#FFFFFF" d="M85.5,17c0,0.5,0,1,0,1.5c-0.5,0.4-1.1,0.3-1.7,0.3
		c-0.7,0-1.4,0.1-2,0.1c0.1-0.7,0.1-1.3,0.2-2C83.1,16.5,84.3,16.5,85.5,17z"/>
	<path fill-rule="evenodd" clip-rule="evenodd" fill="#FFFFFF" d="M81.5,14.6c1.3-0.5,2.6-0.1,4-0.2c0,0.4,0,0.9,0,1.3
		c-1.2,0.5-2.5,0.5-3.7,0C81.7,15.3,81.6,14.9,81.5,14.6z"/>
	<path fill-rule="evenodd" clip-rule="evenodd" fill="#FEFEFE" d="M81.8,19c0.3-0.6,0.9-0.4,1.4-0.4c0.8,0,1.5,0,2.3,0
		c0,0.4,0,0.9,0,1.3c-1.3,0.5-2.6,0.5-3.9,0.2C81.6,19.7,81.7,19.3,81.8,19z"/>
	<path fill-rule="evenodd" clip-rule="evenodd" fill="#FFFFFF" d="M81.8,15.7c1.2,0,2.5,0,3.7,0c0,0.4,0,0.9,0,1.3
		c-1.2,0-2.4,0-3.5,0C81.9,16.5,81.8,16.1,81.8,15.7z"/>
	<path fill-rule="evenodd" clip-rule="evenodd" fill="#FCFCFC" d="M81.5,20.1c1.3-0.3,2.6-0.2,3.9-0.2c0,0.4,0,0.7,0,1.1
		c-1.5,0-2.9,0-4.4,0C81.3,20.6,81.4,20.4,81.5,20.1z"/>
	<path fill-rule="evenodd" clip-rule="evenodd" fill="#FEFEFE" d="M155.5,18.5c0,0.4,0,0.9,0,1.3c-0.3,0.3-0.7,0.3-1,0.3
		c-1.8,0-3.6-0.1-5.4,0c-3,0.1-5.9-0.2-8.9,0.2c-0.5-0.6-0.7-1.3-0.8-2c3.9,0,7.7,0,11.5,0c1.2-0.2,2.4-0.1,3.6-0.1
		C154.8,18.2,155.2,18.3,155.5,18.5z"/>
	<path fill-rule="evenodd" clip-rule="evenodd" fill="#FFFFFF" d="M147.2,14.3C147.2,14.3,147.2,14.4,147.2,14.3
		c0.5,0.5,1,1.1,0.8,1.7c-0.2,0.5-1,0.2-1.5,0.2c-1.9,0-3.8,0-5.7,0c-1.4,0-1.4-0.1-0.8-1.4c0.1-0.2,0.2-0.3,0.3-0.4
		c0.3-0.2,0.7-0.3,1.1-0.3c1.6,0,3.2,0,4.7,0C146.5,14,146.8,14.1,147.2,14.3z"/>
	<path fill-rule="evenodd" clip-rule="evenodd" fill="#FCFCFC" d="M140.2,20.4c0.1-0.7,0.7-0.5,1.1-0.5c4.7,0,9.4,0,14.2,0
		c0,0.4,0,0.7,0,1.1c-1.5,0.1-3-0.3-4.4,0.2c-0.6-0.3-1.3-0.5-1.9-0.8c-0.4-0.2-0.8-0.1-1.1,0.1c-0.3,0.1-0.6,0.3-0.9,0.3
		c-2.2,0-4.4,0.1-6.7-0.1C140.2,20.7,140.2,20.5,140.2,20.4z"/>
	<path fill-rule="evenodd" clip-rule="evenodd" fill="#FAFAFA" d="M140.4,20.7c0.2-0.3,0.6-0.2,0.9-0.2c2.2,0,4.5,0,6.7,0
		C146.5,23,142.5,23.1,140.4,20.7z"/>
	<path fill-rule="evenodd" clip-rule="evenodd" fill="#FFFFFF" d="M147.2,14.3c-2.3,0-4.6,0-6.9,0C142,11.9,145.2,11.8,147.2,14.3z"
		/>
	<path fill-rule="evenodd" clip-rule="evenodd" fill="#FFFFFF" d="M149.5,13c1-0.4,2.1-0.1,3.1-0.2c0.5,0.4,1.1,0.3,1.7,0.2
		c1.2-0.1,1.4,0.4,1.2,1.3c-1.7,0.6-3.4,0.5-5.1,0C150.1,13.9,149.8,13.5,149.5,13z"/>
	<path fill-rule="evenodd" clip-rule="evenodd" fill="#FFFFFF" d="M155.5,18.5c-1.5-0.1-3.1,0.2-4.6-0.2c0.4-0.4,0.1-0.9,0.2-1.3
		c1.5-0.5,2.9-0.5,4.4,0C155.5,17.5,155.5,18,155.5,18.5z"/>
	<path fill-rule="evenodd" clip-rule="evenodd" fill="#FFFFFF" d="M150.3,14.4c1.7,0,3.4,0,5.1,0c0,0.4,0,0.9,0,1.3
		c-1.6,0.6-3.1,0.5-4.7,0C150.6,15.3,150.4,14.8,150.3,14.4z"/>
	<path fill-rule="evenodd" clip-rule="evenodd" fill="#FFFFFF" d="M150.8,15.7c1.6,0,3.1,0,4.7,0c0,0.4,0,0.9,0,1.3
		c-1.5,0-2.9,0-4.4,0C150.9,16.6,150.8,16.1,150.8,15.7z"/>
	<path fill-rule="evenodd" clip-rule="evenodd" fill="#FDFDFD" d="M88.4,20.3c0-0.6,0-1.2,0-1.8c0.3-0.2,0.6-0.3,0.9-0.3
		c1.5,0.1,3.1-0.4,4.6,0.3c0.1,0.6,0.1,1.2,0,1.8C92.1,20.8,90.2,20.9,88.4,20.3z"/>
	<path fill-rule="evenodd" clip-rule="evenodd" fill="#FCFCFC" d="M102.5,21.4c-1.9,0-3.8,0-5.7,0c0-0.5,0-1,0-1.5
		c0.2-0.3,0.6-0.3,0.9-0.3c1.3,0,2.6,0,3.9,0c0.3,0,0.7,0.1,0.9,0.3C102.5,20.4,102.5,20.9,102.5,21.4z"/>
	<path fill-rule="evenodd" clip-rule="evenodd" fill="#FFFFFF" d="M102.5,15.7c0,0.5,0,1,0,1.5c-0.2,0.3-0.6,0.3-0.9,0.3
		c-1.3,0-2.6,0-3.9,0c-0.3,0-0.7-0.1-0.9-0.3c0-0.5,0-1,0-1.5c0.2-0.3,0.6-0.3,0.9-0.3c1.3,0,2.6,0,3.9,0
		C101.9,15.4,102.3,15.4,102.5,15.7z"/>
	<path fill-rule="evenodd" clip-rule="evenodd" fill="#FFFFFF" d="M93.9,15.7c0.1,0.5,0.1,1,0,1.5c-1.1,0.6-2.3,0.3-3.4,0.3
		c-0.7,0-1.5,0.2-2.1-0.3c0-0.5,0-1,0-1.5c0.3-0.2,0.6-0.3,0.9-0.3C90.8,15.5,92.4,15,93.9,15.7z"/>
	<path fill-rule="evenodd" clip-rule="evenodd" fill="#FFFFFF" d="M100.3,12.8c0.3,0.4,0.7,0.3,1,0.2c1.2-0.2,1.4,0.4,1.2,1.3
		c-0.2,0.3-0.6,0.3-0.9,0.3c-1.3,0-2.6,0-3.9,0c-0.3,0-0.7-0.1-0.9-0.3c0-0.5,0-1,0-1.5C98,12.3,99.2,12.3,100.3,12.8z"/>
	<path fill-rule="evenodd" clip-rule="evenodd" fill="#FFFFFF" d="M91.5,12.8c0.4,0.4,0.9,0.2,1.3,0.2c1.1-0.1,1.4,0.3,1.1,1.3
		c-1.1,0.7-2.3,0.3-3.4,0.3c-0.7,0-1.5,0.2-2.1-0.3c0-0.5,0-1,0-1.5C89.4,12.3,90.4,12.3,91.5,12.8z"/>
	<path fill-rule="evenodd" clip-rule="evenodd" fill="#FBFBFB" d="M88.4,20.3c1.8,0,3.7,0,5.5,0c-0.8,1.1-2,1.6-3.3,1.9
		C89.2,22.5,88.4,21.9,88.4,20.3z"/>
	<path fill-rule="evenodd" clip-rule="evenodd" fill="#FFFFFF" d="M96.8,17.2c1.9,0,3.8,0,5.7,0c0,0.4,0,0.9,0,1.3
		c-0.2,0.3-0.6,0.3-0.9,0.3c-1.3,0-2.6,0-3.9,0c-0.3,0-0.7-0.1-0.9-0.3C96.8,18.1,96.8,17.6,96.8,17.2z"/>
	<path fill-rule="evenodd" clip-rule="evenodd" fill="#FFFFFF" d="M96.8,14.4c1.9,0,3.8,0,5.7,0c0,0.4,0,0.9,0,1.3
		c-1.9,0-3.8,0-5.7,0C96.8,15.2,96.8,14.8,96.8,14.4z"/>
	<path fill-rule="evenodd" clip-rule="evenodd" fill="#FEFEFE" d="M96.8,18.5c1.9,0,3.8,0,5.7,0c0,0.4,0,0.9,0,1.3
		c-1.9,0-3.8,0-5.7,0C96.8,19.4,96.8,19,96.8,18.5z"/>
	<path fill-rule="evenodd" clip-rule="evenodd" fill="#FFFFFF" d="M88.4,17.2c1.8,0,3.7,0,5.5,0c0.1,0.4,0.1,0.9,0,1.3
		c-1.8,0-3.7,0-5.5,0C88.4,18.1,88.4,17.6,88.4,17.2z"/>
	<path fill-rule="evenodd" clip-rule="evenodd" fill="#FFFFFF" d="M88.4,14.4c1.8,0,3.7,0,5.5,0c0.1,0.4,0.1,0.9,0,1.3
		c-1.8,0-3.7,0-5.5,0C88.4,15.2,88.4,14.8,88.4,14.4z"/>
	<path fill-rule="evenodd" clip-rule="evenodd" fill="#FFFFFF" d="M100.3,12.8c-1.2,0-2.3,0-3.5,0c0-0.6,0-1.2,0-1.8
		c1.2,0,2.3,0,3.5-0.2C100.3,11.5,100.3,12.2,100.3,12.8z"/>
	<path fill-rule="evenodd" clip-rule="evenodd" fill="#FFFFFF" d="M91.5,12.8c-1,0-2,0-3.1,0c0-0.7,0-1.3,0-2c1,0,2.1,0,3.1-0.2
		C91.5,11.4,91.5,12.1,91.5,12.8z"/>
	<path fill-rule="evenodd" clip-rule="evenodd" fill="#FCFCFC" d="M96.9,21.8c0.8,0.1,1.6-0.3,2.4,0.3
		C98.5,21.8,97.6,22.2,96.9,21.8z"/>
	<path fill-rule="evenodd" clip-rule="evenodd" fill="#FFFFFF" d="M158.4,18.5c0-0.4,0-0.9,0-1.3c0.3-0.3,0.6-0.3,1-0.3
		c2.2,0,4.4,0,6.6,0c0.2,0,0.4,0.1,0.5,0.2c0.8,0.7,1.8,1.1,2.7,1.5c-0.4,0.4-0.9,0.4-1.3,0.4c-2.7,0-5.4,0-8.2,0
		C159.3,18.9,158.8,18.9,158.4,18.5z"/>
	<path fill-rule="evenodd" clip-rule="evenodd" fill="#FFFFFF" d="M166.5,17c-1.6,0.4-3.1,0.1-4.7,0.2c-1.1,0-2.3,0-3.4,0
		c-0.1-0.5,0.1-1,0.2-1.5c0.2-0.3,0.5-0.3,0.7-0.3c1.8,0,3.5,0,5.3,0c0.4,0,0.7,0.1,1,0.3C166,16.1,166.2,16.6,166.5,17z"/>
	<path fill-rule="evenodd" clip-rule="evenodd" fill="#FEFEFE" d="M158.4,18.5c3.6,0,7.2,0,10.9,0c1,0.3,2.1,0.2,3.1,0.6
		c-0.3,0.4-0.7,0.5-1.1,0.5c-1.1,0-2.1,0.1-3.2,0c-0.8,0-1.6,0-2.4,0c-0.3-0.4-0.8-0.2-1.1-0.2c-2.1,0-4.1,0-6.2,0
		C158.4,19.1,158.4,18.8,158.4,18.5z"/>
	<path fill-rule="evenodd" clip-rule="evenodd" fill="#FBFBFB" d="M174.1,20.3c0.2,1-0.3,1.5-1.2,1.8c-1.7,0.5-3.4,0.1-4.4-1
		c-0.1-0.2-0.2-0.3-0.1-0.5c0.1-0.2,0.3-0.4,0.5-0.4C170.6,19.9,172.4,19.7,174.1,20.3z"/>
	<path fill-rule="evenodd" clip-rule="evenodd" fill="#FFFFFF" d="M165.7,15.7c-2.4,0-4.7,0-7.1,0c0.1-0.6,0.3-1.1,0.8-1.5
		c1.7-0.2,3.4-0.1,5.1-0.1c0.6,0,1.1,0.3,1,1C165.6,15.2,165.7,15.4,165.7,15.7z"/>
	<path fill-rule="evenodd" clip-rule="evenodd" fill="#FFFFFF" d="M165.6,15c-0.2-0.5-0.5-0.7-1.1-0.7c-1.3,0-2.6,0-3.9,0
		c-0.4,0-0.8,0-1.2-0.2c1-1,2.4-0.9,3.6-1c0.4,0,0.8,0.2,1-0.4c0.5,0.2,1.2-0.4,1.5,0.5C165.7,13.8,165.6,14.4,165.6,15z"/>
	<path fill-rule="evenodd" clip-rule="evenodd" fill="#FDFDFD" d="M174.1,20.3c-1.9,0.1-3.8-0.2-5.7,0.2c-0.3-0.2-0.2-0.5-0.2-0.9
		c0.4-0.4,0.9-0.2,1.3-0.2c1-0.1,2,0.1,2.9-0.3C173,19.5,173.9,19.4,174.1,20.3z"/>
	<path fill-rule="evenodd" clip-rule="evenodd" fill="#FFFFFF" d="M173.2,13.6c-0.5,0.5-1.1,0.2-1.7,0.3c-1.1,0-2.1,0-3.2,0
		C169.3,12.3,171.6,12.2,173.2,13.6z"/>
	<path fill-rule="evenodd" clip-rule="evenodd" fill="#FBFBFB" d="M158.4,20.3c2.1,0,4.1,0,6.2,0c0.5,0,0.9,0,0.8,0.7
		c-2.3,0-4.7,0-7,0C158.4,20.7,158.4,20.5,158.4,20.3z"/>
	<path fill-rule="evenodd" clip-rule="evenodd" fill="#FBFBFB" d="M158.4,21.8c1,0.2,2.1-0.4,3,0.3
		C160.5,21.7,159.4,22.3,158.4,21.8z"/>
	<path fill-rule="evenodd" clip-rule="evenodd" fill="#FCFCFC" d="M152.6,22.1c0.9-0.6,1.9-0.2,2.8-0.3
		C154.5,22.3,153.5,21.7,152.6,22.1z"/>
	<path fill-rule="evenodd" clip-rule="evenodd" fill="#FFFFFF" d="M110.9,11.1c0,0.7,0,1.3,0,2c-0.2,0.3-0.6,0.3-0.9,0.3
		c-1.5-0.1-3.1,0.4-4.6-0.3c-0.1-0.7-0.1-1.3,0-2C107.3,11.1,109.1,11.1,110.9,11.1z"/>
	<path fill-rule="evenodd" clip-rule="evenodd" fill="#FFFFFF" d="M110.9,15.7c0,0.5,0,1,0,1.5c-0.2,0.3-0.6,0.3-0.9,0.3
		c-1.5-0.1-3.1,0.4-4.6-0.3c-0.1-0.5-0.1-1,0-1.5c1.1-0.6,2.3-0.3,3.4-0.3C109.5,15.3,110.3,15.1,110.9,15.7z"/>
	<path fill-rule="evenodd" clip-rule="evenodd" fill="#FFFFFF" d="M105.4,13c1.8,0,3.7,0,5.5,0c0,0.5,0,1,0,1.5
		c-0.2,0.3-0.6,0.3-0.9,0.3c-1.5-0.1-3.1,0.4-4.6-0.3C105.3,14.1,105.3,13.5,105.4,13z"/>
	<path fill-rule="evenodd" clip-rule="evenodd" fill="#FDFDFD" d="M110.9,18.5c0,0.5,0,1,0,1.5c-1.8,0-3.7,0-5.5,0
		c-0.1-0.5-0.1-1,0-1.5c1.1-0.6,2.3-0.3,3.4-0.3C109.5,18.2,110.3,18,110.9,18.5z"/>
	<path fill-rule="evenodd" clip-rule="evenodd" fill="#FFFFFF" d="M110.9,18.5c-1.8,0-3.7,0-5.5,0c-0.1-0.4-0.1-0.9,0-1.3
		c1.8,0,3.7,0,5.5,0C110.9,17.6,110.9,18.1,110.9,18.5z"/>
	<path fill-rule="evenodd" clip-rule="evenodd" fill="#FFFFFF" d="M105.4,14.6c1.8,0,3.7,0,5.5,0c0,0.4,0,0.7,0,1.1
		c-1.8,0-3.7,0-5.5,0C105.4,15.3,105.4,14.9,105.4,14.6z"/>
	<path fill-rule="evenodd" clip-rule="evenodd" fill="#FCFCFC" d="M100.4,22.1c0.7-0.5,1.4-0.1,2.1-0.3
		C101.8,22.2,101,21.8,100.4,22.1z"/>
</g>
<g>
	<path fill-rule="evenodd" clip-rule="evenodd" fill="#FFFFFF" d="M45.2,21.6c-0.5,0.6-0.9,1-1.3,1.4c-3.6,3.4-10.8,2.3-12.8-1.8
		c-1.5-3-0.6-7,1.9-9.1c2.7-2.2,6.7-2.3,9.4-0.3c2,1.5,3,3.9,2.7,6.8c-3.4,0-6.7,0-10.2,0c-0.1,1.3,0.4,2.2,1.4,2.8
		c1.2,0.7,2.7,1,3.7,0c1.3-1.2,2.5-0.9,3.9-0.3C44.3,21.3,44.6,21.4,45.2,21.6z M40.6,16.1c-0.3-1.8-1.3-2.7-3.1-2.6
		c-1.5,0.1-2.4,1-2.5,2.6C36.9,16.1,38.8,16.1,40.6,16.1z"/>
	<path fill-rule="evenodd" clip-rule="evenodd" fill="#FFFFFF" d="M28.3,18.7c-3.4,0-6.8,0-10.2,0c0.1,2.7,2.9,4.5,5,2.9
		c1.9-1.4,3.4-0.6,5.2,0c-0.5,0.6-0.9,1.1-1.3,1.5c-2.7,2.4-8.4,2.5-11.1,0.2c-2.4-2-2.8-4.7-2-7.5c0.7-2.8,2.6-4.6,5.5-5.1
		C24.6,9.5,28.6,13.1,28.3,18.7z M23.7,16.1c-0.1-1.7-1.3-2.7-3.1-2.6c-1.5,0.1-2.4,1.1-2.4,2.6C20,16.1,21.8,16.1,23.7,16.1z"/>
	<path fill-rule="evenodd" clip-rule="evenodd" fill="#FFFFFF" d="M55.8,13.9C55,14,54.4,14,53.7,14c0,2.4,0,4.8,0,7.3
		c0.7,0,1.4,0.1,2.1,0.1c0,1.1,0,2.1,0,3.1c-2.8,0-5.7,0-8.5,0c0-1,0-2,0-3.1c0.6,0,1.2-0.1,1.9-0.1c0-2.4,0-4.8,0-7.3
		c-0.6,0-1.1-0.1-1.8-0.1c0-1,0-2,0-3.1c0.6,0,1.1-0.1,1.8-0.1c-0.1-2.9,0.6-5.6,4-6.2c2.3-0.4,4.5-0.3,6.2,1.8
		c-1.1,0.8-2.2,1.7-2.9,2.3c-0.8-0.4-1.4-1.1-1.9-1c-1,0.2-0.8,1.2-0.9,2c0,0.4,0,0.7,0,1.2c0.8,0,1.4,0,2.2,0
		C55.8,11.9,55.8,12.8,55.8,13.9z"/>
	<path fill-rule="evenodd" clip-rule="evenodd" fill="#FFFFFF" d="M2.4,14c-0.8,0-1.5,0-2.3,0c0-1.1,0-2.1,0-3.1c2.1,0,4.2,0,6.4,0
		c0,0.8,0,1.6,0,2.5c0.9-0.8,1.5-1.7,2.4-2.2c0.9-0.5,2-0.6,3.2-0.9c0,1,0,1.7,0,2.3c0,0.7,0,1.3,0,2C10.6,14.9,9,14.8,8,16.3
		c-1,1.5-1.1,3.2-1,5.1c0.9,0,1.8,0,2.7,0c0,1.1,0,2.1,0,3.2c-3.2,0-6.4,0-9.7,0c0-1,0-2,0-3.1c0.8,0,1.6,0,2.4,0
		C2.4,18.9,2.4,16.5,2.4,14z"/>
</g>
</svg>
