<?xml version="1.0" encoding="utf-8"?>
<!-- Generator: Adobe Illustrator 16.0.0, SVG Export Plug-In . SVG Version: 6.00 Build 0)  -->
<!DOCTYPE svg PUBLIC "-//W3C//DTD SVG 1.1//EN" "http://www.w3.org/Graphics/SVG/1.1/DTD/svg11.dtd">
<svg version="1.1" id="Layer_1" xmlns="http://www.w3.org/2000/svg" xmlns:xlink="http://www.w3.org/1999/xlink" x="0px" y="0px"
	 width="267.9px" height="30.8px" viewBox="0 0 267.9 30.8" enable-background="new 0 0 267.9 30.8" xml:space="preserve">
<path fill-rule="evenodd" clip-rule="evenodd" fill="#FFFFFF" d="M181.7,9.4c0.2,1.3,0.5,2.6,0.7,3.9c0.7,3.8,1.3,7.6,2,11.4
	c0.3,1.7,0.6,3.3,0.9,4.9c0.1,0.4,0.2,0.5,0.5,0.5c1.2,0,2.3,0,3.5,0c0.3,0,0.5-0.1,0.5-0.4c0.4-2.2,0.7-4.4,1.1-6.6
	c0.5-3.1,1-6.1,1.6-9.2c0.2-1.3,0.4-2.5,0.6-3.8c0-0.2,0.1-0.4,0.2-0.6c0.1,0,0.1,0,0.2,0c0,0.2,0,0.4,0,0.5c0,1.2,0,2.3,0,3.5
	c0,5.3,0.1,10.7,0.1,16c0,0.5,0.1,0.6,0.6,0.6c1,0,2,0,3.1,0c0.4,0,0.6-0.1,0.6-0.5c0-9.5,0-19,0-28.5c0-0.4-0.2-0.5-0.6-0.5
	c-1.9,0-3.8,0-5.7,0c-0.4,0-0.5,0.1-0.6,0.5c-1,5.7-2,11.5-2.9,17.2c-0.1,0.6-0.2,1.3-0.4,1.9c0,0-0.1,0-0.2,0
	c-0.1-0.6-0.2-1.2-0.3-1.9c-0.7-4.2-1.4-8.5-2-12.7c-0.2-1.5-0.5-3-0.7-4.6c-0.1-0.4-0.2-0.5-0.6-0.5c-2,0-4,0-6.1,0
	c-0.4,0-0.5,0.1-0.5,0.5c0,9.5,0,19,0,28.5c0,0.4,0.2,0.5,0.6,0.5c1.1,0,2.1,0,3.2,0c0.5,0,0.6-0.2,0.6-0.6c0-3.7,0-7.3,0-11
	c0-2.9,0.1-5.8,0.1-8.7c0-0.1,0-0.3,0-0.4C181.6,9.4,181.6,9.4,181.7,9.4z"/>
<path fill-rule="evenodd" clip-rule="evenodd" fill="#FFFFFF" d="M74.6,10.9c0.2,1.2,0.3,2.5,0.5,3.7c0.2,1.9,0.5,3.8,0.7,5.7
	c0.2,1.6,0.4,3.2,0.6,4.8c0.2,1.5,0.4,3.1,0.6,4.7c0,0.1,0.3,0.3,0.4,0.3c1.4,0,2.8,0,4.2,0c0.2,0,0.4-0.3,0.4-0.4
	c0.4-3.1,0.8-6.2,1.3-9.2c0.4-3.1,0.9-6.2,1.3-9.3C85.1,8,85.6,4.9,86,1.8c0-0.4,0.1-0.7,0.2-1.2c-1,0-2,0-3,0c-0.3,0-0.6,0-0.8,0
	c-1.1,0-1.1,0-1.2,1.1c-0.2,2.6-0.5,5.3-0.8,7.9c-0.2,2.1-0.4,4.2-0.6,6.3c-0.1,1.2-0.2,2.4-0.4,3.7c0,0.1-0.1,0.2-0.2,0.3
	c-0.1-0.7-0.2-1.4-0.3-2.1c-0.3-2.6-0.7-5.2-1-7.7c-0.3-2.2-0.5-4.4-0.8-6.7c-0.1-0.8-0.2-1.7-0.4-2.5c0-0.1-0.2-0.3-0.4-0.3
	c-1.2,0-2.3,0-3.5,0c-0.1,0-0.4,0.2-0.4,0.4c-0.4,3.3-0.9,6.6-1.3,9.9c-0.4,2.9-0.8,5.9-1.1,8.8c0,0.1-0.1,0.2-0.2,0.3
	c-0.1-0.4-0.1-0.8-0.1-1.2c-0.2-1.8-0.3-3.6-0.5-5.5c-0.2-1.8-0.4-3.6-0.5-5.4c-0.2-1.8-0.3-3.6-0.5-5.5c0-0.2-0.1-0.5-0.1-0.7
	c-0.1-1.2-0.1-1.2-1.4-1.2c-1.1,0-2.1,0-3.2,0c-0.4,0-0.5,0.1-0.4,0.5c0.4,2.6,0.7,5.3,1.1,7.9c0.4,2.6,0.7,5.2,1.1,7.8
	c0.3,2.3,0.6,4.7,0.9,7c0.3,1.9,0.5,3.9,0.8,5.8c0,0.4,0.2,0.6,0.6,0.6c1.3,0,2.6,0,4,0c0.4,0,0.5-0.1,0.6-0.5
	c0.4-3.2,0.8-6.3,1.2-9.5c0.4-2.9,0.7-5.7,1-8.6c0-0.2,0.1-0.4,0.1-0.6C74.5,10.9,74.6,10.9,74.6,10.9z"/>
<path fill-rule="evenodd" clip-rule="evenodd" fill="#FFFFFF" d="M236,30.1c-0.4-1.2-0.8-2.3-1.1-3.4c-1.1-3.4-2.2-6.9-3.3-10.3
	c-0.1-0.4-0.1-0.7,0.3-0.9c2-1,3.1-2.7,3.4-5c0.2-1.6,0.2-3.2-0.1-4.8c-0.7-2.7-2.6-4.2-5.2-4.7c-1.3-0.3-2.6-0.4-3.9-0.5
	c-2-0.1-3.9,0-5.9,0c-0.4,0-0.6,0.1-0.6,0.5c0,9.5,0,19,0,28.4c0,0.5,0.2,0.6,0.6,0.6c1.5,0,3.1,0,4.6,0c0.5,0,0.6-0.2,0.6-0.6
	c0-4.1,0-8.2,0-12.3c0-0.8,0-0.8,0.8-0.8c0.4,0,0.4,0.3,0.5,0.5c0.6,2.4,1.2,4.9,1.8,7.3c0.4,1.7,0.9,3.4,1.3,5.2
	c0.1,0.4,0.3,0.6,0.8,0.6c1.6,0,3.2,0,4.8,0C235.5,30.1,235.7,30.1,236,30.1z M225.4,8.9c0-1.2,0-2.3,0-3.5c0-0.3,0-0.6,0.4-0.6
	c0.6,0,1.2,0,1.8,0.1c0.7,0,1.2,0.5,1.4,1.1c0.7,1.8,0.7,3.7,0,5.6c-0.4,0.9-1.1,1.5-2.1,1.4c-0.3,0-0.6,0-1,0
	c-0.5,0-0.6-0.2-0.6-0.6C225.4,11.2,225.4,10.1,225.4,8.9z"/>
<path fill-rule="evenodd" clip-rule="evenodd" fill="#FFFFFF" d="M150.9,30.1c-0.5-1.7-1.1-3.3-1.6-4.9c-0.9-2.9-1.9-5.9-2.8-8.8
	c-0.1-0.4,0-0.6,0.3-0.8c2.1-1.1,3.2-2.9,3.5-5.2c0.2-1.5,0.2-2.9-0.1-4.4c-0.5-2.2-1.8-3.7-3.9-4.6c-1.2-0.5-2.5-0.8-3.8-0.8
	c-2.4,0-4.7-0.1-7.1-0.1c-0.5,0-0.7,0.1-0.7,0.6c0,9.4,0,18.9,0,28.3c0,0.5,0.2,0.6,0.7,0.6c1.5,0,3,0,4.5,0c0.5,0,0.7-0.1,0.7-0.7
	c0-4.1,0-8.1,0-12.2c0-0.8,0-0.8,0.8-0.8c0.4,0,0.4,0.3,0.5,0.6c0.8,3.3,1.6,6.5,2.4,9.8c0.2,1,0.5,1.9,0.7,2.9
	c0.1,0.3,0.1,0.5,0.5,0.5c1.8,0,3.6,0,5.4,0C150.7,30.1,150.8,30.1,150.9,30.1z M140.4,9c0-1.2,0-2.4,0-3.6c0-0.4,0.1-0.6,0.5-0.5
	c0.4,0,0.8,0,1.1,0c1.2,0,1.8,0.4,2.1,1.5c0.5,1.7,0.5,3.4-0.1,5.1c-0.4,1-1,1.5-2.1,1.5c-0.3,0-0.6,0-1,0c-0.5,0-0.6-0.2-0.6-0.6
	C140.4,11.2,140.4,10.1,140.4,9z"/>
<path fill-rule="evenodd" clip-rule="evenodd" fill="#FFFFFF" d="M8.3,30.8c2.7,0,5-1.1,6.5-3.4c0.9-1.4,1.1-3,1-4.7
	c-0.3-4-2.6-6.7-5.4-9.1c-1.1-1-2.3-1.9-3.3-3C6,9.4,5.5,7.9,5.9,6.3c0.2-1.1,0.9-1.8,1.9-1.8c0.7,0,1.2,0.3,1.5,0.9
	c0.5,0.9,0.5,2,0.5,3c0,0.6,0,0.7,0.7,0.6c1.5-0.2,3-0.4,4.6-0.6c0.6-0.1,0.8-0.2,0.7-0.8c-0.1-3.2-1.6-5.5-4.5-6.9
	C7.8-0.9,1.9,0.3,0.5,5c-1.1,3.5-0.3,6.7,2.4,9.4c1.4,1.4,2.9,2.6,4.3,3.9c1.4,1.3,2.5,2.8,2.9,4.8c0.1,0.6,0,1.2,0,1.7
	c-0.1,0.8-0.6,1.3-1.5,1.5c-0.7,0.1-1.4-0.2-1.8-0.9c-0.6-0.9-0.6-1.9-0.7-2.9c0-0.4,0-0.9,0-1.3c0-0.3-0.1-0.5-0.5-0.4
	c-1.7,0.3-3.4,0.6-5,1c-0.2,0-0.4,0.3-0.4,0.5c-0.2,3.6,2.6,7.5,6.1,8.3C6.8,30.7,7.6,30.7,8.3,30.8z"/>
<path fill-rule="evenodd" clip-rule="evenodd" fill="#FFFFFF" d="M164.6,20.7c-1.8,0.3-3.6,0.7-5.4,1c-0.4,0.1-0.4,0.3-0.3,0.6
	c0.3,3.3,1.9,7.7,6.8,8.3c3,0.4,5.7-0.3,7.6-2.8c1.1-1.5,1.4-3.1,1.3-5c-0.2-2.1-0.8-4-2.1-5.7c-1.3-1.8-2.9-3.2-4.6-4.6
	c-1.2-1-2.4-2-3-3.4c-0.5-1.1-0.6-2.2-0.2-3.3c0.3-0.9,1-1.4,1.9-1.4c0.8,0,1.4,0.5,1.6,1.4c0.2,1,0.3,2,0.5,3.1
	c0.2,0,0.6,0,0.9-0.1c1.5-0.2,2.9-0.4,4.4-0.6c0.3,0,0.5-0.2,0.5-0.6c0.2-3.7-2.6-7.1-6.3-7.6c-2.6-0.3-5.1,0.1-7.1,2
	c-1.5,1.3-2.1,3-2.3,5c-0.1,2.1,0.2,4.1,1.5,5.7c1,1.3,2.2,2.3,3.3,3.5c1.2,1.2,2.5,2.3,3.7,3.6c1.1,1.2,1.6,2.7,1.6,4.3
	c0,0.4-0.1,0.7-0.2,1.1c-0.4,1.2-1.9,1.6-2.8,0.7c-0.7-0.6-0.9-1.5-1.1-2.4c-0.1-0.8-0.1-1.6-0.2-2.4
	C164.6,21,164.6,20.9,164.6,20.7z"/>
<path fill-rule="evenodd" clip-rule="evenodd" fill="#FFFFFF" d="M257.9,20.7c-1.5,0.3-3,0.6-4.5,0.9c0,0-0.1,0-0.1,0
	c-1.4,0.3-1.4,0.3-1.1,1.7c0.4,2.2,1.2,4.1,2.8,5.6c1.2,1.1,2.8,1.7,4.4,1.8c2,0.1,3.8-0.2,5.5-1.4c1.7-1.3,2.7-2.9,2.9-5.2
	c0.2-3.6-1.3-6.5-3.8-9c-1.1-1.1-2.3-2-3.4-3c-0.7-0.7-1.5-1.4-2.1-2.3c-0.9-1.2-1-2.7-0.5-4.1c0.3-0.9,0.9-1.3,1.8-1.3
	c0.8,0,1.4,0.4,1.6,1.3c0.2,0.9,0.2,1.7,0.3,2.6c0,0.6,0.1,0.6,0.7,0.5c1.5-0.2,3.1-0.5,4.6-0.6c0.5-0.1,0.7-0.2,0.7-0.8
	c0-3.7-2.7-6.9-6.4-7.4c-2.8-0.4-5.4,0.2-7.4,2.3c-1.2,1.2-1.8,2.8-1.9,4.6c-0.1,2.3,0.3,4.4,1.7,6.2c1,1.2,2.1,2.1,3.2,3.2
	c1.2,1.2,2.5,2.3,3.6,3.6c1,1.1,1.4,2.5,1.5,4c0.1,1.3-0.5,2.2-1.6,2.4c-0.7,0.1-1.5-0.2-1.9-1c-0.3-0.7-0.5-1.6-0.6-2.4
	C258,22.2,258,21.5,257.9,20.7z"/>
<path fill-rule="evenodd" clip-rule="evenodd" fill="#FFFFFF" d="M86,30.1c0.8,0,1.6,0,2.4,0c0.9,0,1.8,0,2.7,0
	c0.5,0,0.7-0.2,0.7-0.6c0.3-1.7,0.6-3.4,0.9-5.2c0.1-0.4,0.2-0.6,0.7-0.6c0.9,0,1.9,0,2.8,0c0.4,0,0.6,0.1,0.7,0.5
	c0.3,1.7,0.7,3.4,1,5.2c0.1,0.5,0.2,0.7,0.8,0.7c1.5,0,3,0,4.5,0c0.4,0,0.5-0.1,0.4-0.6c-1.8-8.4-3.6-16.7-5.4-25.1
	c-0.2-1.1-0.5-2.2-0.7-3.3c-0.1-0.4-0.2-0.6-0.7-0.6c-1.4,0-2.7,0-4.1,0c-0.5,0-0.6,0.2-0.7,0.6c-0.6,3-1.3,6-1.9,9.1
	c-1.4,6.4-2.8,12.8-4.1,19.2C86.1,29.6,86,29.9,86,30.1z M93.3,20.2c0.5-3.7,1-7.3,1.5-10.9c0.1,0,0.1,0,0.2,0
	c0.5,3.6,1,7.2,1.5,10.8C95.4,20.2,94.4,20.2,93.3,20.2z"/>
<path fill-rule="evenodd" clip-rule="evenodd" fill="#FFFFFF" d="M199.7,30.1c0.6,0,1.2,0,1.8,0c1.1,0,2.2,0,3.3,0
	c0.5,0,0.7-0.2,0.8-0.7c0.3-1.7,0.6-3.4,0.9-5.2c0.1-0.4,0.2-0.5,0.6-0.5c1,0,2,0,3,0c0.3,0,0.5,0.1,0.6,0.5c0.3,1.8,0.7,3.5,1,5.3
	c0.1,0.4,0.2,0.6,0.6,0.6c1.5,0,3.1,0,4.6,0c0.4,0,0.6-0.1,0.5-0.6c-1.8-8.2-3.5-16.4-5.3-24.6c-0.3-1.3-0.6-2.6-0.9-4
	c-0.1-0.4-0.2-0.4-0.6-0.4c-1.4,0-2.7,0-4.1,0c-0.5,0-0.6,0.2-0.7,0.6c-0.8,3.9-1.7,7.9-2.5,11.8c-1.2,5.6-2.4,11.2-3.6,16.8
	C199.7,29.9,199.7,30,199.7,30.1z M208.5,9.3c0.1,0,0.1,0,0.2,0c0.5,3.6,1,7.2,1.5,10.9c-1.1,0-2.1,0-3.2,0
	C207.5,16.5,208,12.9,208.5,9.3z"/>
<path fill-rule="evenodd" clip-rule="evenodd" fill="#FFFFFF" d="M34.6,30.1C34.2,28,33.7,26,33.3,24c-1.4-6.4-2.8-12.9-4.1-19.3
	c-0.3-1.2-0.5-2.4-0.8-3.6c-0.1-0.3-0.2-0.5-0.6-0.5c-1.4,0-2.8,0-4.2,0c-0.3,0-0.5,0.1-0.5,0.4c-1.5,6.8-2.9,13.7-4.4,20.5
	c-0.6,2.7-1.1,5.4-1.7,8.1c-0.1,0.4,0,0.5,0.4,0.5c1.6,0,3.2,0,4.8,0c0.4,0,0.5-0.1,0.6-0.5c0.3-1.8,0.7-3.6,1-5.4
	c0.1-0.4,0.2-0.5,0.6-0.5c1,0,2,0,3,0c0.4,0,0.6,0.2,0.6,0.5c0.3,1.8,0.7,3.5,1,5.3c0.1,0.3,0.2,0.5,0.5,0.5c1.7,0,3.3,0,5,0
	C34.4,30.1,34.4,30.1,34.6,30.1z M24.1,20.2c0.5-3.7,1-7.3,1.6-10.9c0.1,0,0.1,0,0.2,0c0.5,3.6,1,7.2,1.5,10.9
	C26.2,20.2,25.2,20.2,24.1,20.2z"/>
<path fill-rule="evenodd" clip-rule="evenodd" fill="#FFFFFF" d="M120.1,15.4c0,4.7,0,9.4,0,14.1c0,0.5,0.1,0.7,0.7,0.7
	c3.6,0,7.2,0,10.8,0c0.6,0,0.7-0.2,0.7-0.7c0-0.9,0-1.8,0-2.7c0-0.4-0.1-0.6-0.6-0.6c-1.7,0-3.4,0-5.1,0c-0.5,0-0.7-0.1-0.7-0.7
	c0-2.7,0-5.3,0-8c0-0.5,0.2-0.7,0.7-0.7c1.1,0,2.2,0,3.3,0c0.4,0,0.6-0.1,0.6-0.5c0-1,0-2,0-3c0-0.4-0.1-0.5-0.5-0.5
	c-1.2,0-2.3,0-3.5,0c-0.4,0-0.6-0.1-0.6-0.6c0-2.4,0-4.7,0-7.1c0-0.5,0.2-0.6,0.6-0.6c1.7,0,3.4,0,5.1,0c0.4,0,0.6-0.1,0.6-0.6
	c0-1,0-1.9,0-2.9c0-0.4-0.1-0.5-0.5-0.5c-3.7,0-7.4,0-11.1,0c-0.5,0-0.5,0.3-0.5,0.6C120.1,5.9,120.1,10.7,120.1,15.4z"/>
<path fill-rule="evenodd" clip-rule="evenodd" fill="#FFFFFF" d="M52.1,17.6c0,4,0,7.9,0,11.9c0,0.5,0.2,0.7,0.7,0.7
	c1.5,0,3,0,4.5,0c0.6,0,0.7-0.2,0.7-0.7c0-7.8,0-15.6,0-23.4c0-0.2,0-0.4,0-0.6c0-0.4,0.1-0.5,0.5-0.5c1.1,0,2.2,0,3.2,0
	c0.4,0,0.6-0.1,0.6-0.5c0-1.1,0-2.2,0-3.3c0-0.4-0.1-0.5-0.5-0.5c-4.5,0-8.9,0-13.4,0c-0.4,0-0.5,0.1-0.5,0.5c0,1.1,0,2.2,0,3.3
	c0,0.4,0.1,0.5,0.5,0.5c1.1,0,2.2,0,3.2,0c0.5,0,0.6,0.1,0.6,0.6C52.1,9.6,52.1,13.6,52.1,17.6z"/>
<path fill-rule="evenodd" clip-rule="evenodd" fill="#FFFFFF" d="M113.7,17.6c0-4,0-7.9,0-11.9c0-0.6,0.1-0.8,0.7-0.7c1,0,2,0,3.1,0
	c0.4,0,0.5-0.1,0.5-0.5c0-1.1,0-2.2,0-3.3c0-0.4-0.1-0.5-0.5-0.5c-4.5,0-9,0-13.5,0c-0.3,0-0.5,0.1-0.5,0.5c0,1.1,0,2.3,0,3.4
	c0,0.4,0.1,0.5,0.5,0.5c1.1,0,2.1,0,3.2,0c0.6,0,0.7,0.3,0.7,0.7c0,7.8,0,15.5,0,23.3c0,1.2,0,1.2,1.2,1.2c1.3,0,2.6,0,3.9,0
	c0.6,0,0.7-0.2,0.7-0.7C113.7,25.5,113.7,21.5,113.7,17.6z"/>
<path fill-rule="evenodd" clip-rule="evenodd" fill="#FFFFFF" d="M246.7,17.6c0-4,0-7.9,0-11.9c0-0.6,0.2-0.8,0.7-0.7c1,0,2,0,3.1,0
	c0.4,0,0.5-0.1,0.5-0.5c0-1.1,0-2.2,0-3.3c0-0.4-0.1-0.5-0.5-0.5c-4.5,0-8.9,0-13.4,0c-0.4,0-0.5,0.1-0.5,0.5c0,1.1,0,2.2,0,3.3
	c0,0.4,0.1,0.5,0.5,0.5c1.1,0,2.1,0,3.2,0c0.5,0,0.7,0.2,0.7,0.7c0,7.9,0,15.8,0,23.7c0,0.8,0,0.8,0.8,0.8c1.4,0,2.8,0,4.2,0
	c0.7,0,0.7,0,0.7-0.8C246.7,25.5,246.7,21.5,246.7,17.6z"/>
<path fill-rule="evenodd" clip-rule="evenodd" fill="#FFFFFF" d="M36.7,15.4c0,4.7,0,9.3,0,14c0,0.5,0.1,0.7,0.7,0.7
	c3.5,0,6.9,0,10.4,0c0.5,0,0.7-0.1,0.7-0.7c0-0.8-0.1-1.7,0-2.6c0-0.6-0.2-0.7-0.7-0.7c-1.5,0-2.9,0-4.4,0c-0.7,0-0.7,0-0.7-0.8
	c0-8,0-16.1,0-24.1c0-0.8,0-0.8-0.7-0.8c-1.5,0-2.9,0-4.4,0c-0.5,0-0.7,0.1-0.7,0.7C36.7,6,36.7,10.7,36.7,15.4z"/>
</svg>
