<?xml version="1.0" encoding="utf-8"?>
<!-- Generator: Adobe Illustrator 16.0.0, SVG Export Plug-In . SVG Version: 6.00 Build 0)  -->
<!DOCTYPE svg PUBLIC "-//W3C//DTD SVG 1.1//EN" "http://www.w3.org/Graphics/SVG/1.1/DTD/svg11.dtd">
<svg version="1.1" id="Layer_1" xmlns="http://www.w3.org/2000/svg" xmlns:xlink="http://www.w3.org/1999/xlink" x="0px" y="0px"
	 width="267.871px" height="31px" viewBox="0 0 267.871 31" enable-background="new 0 0 267.871 31" xml:space="preserve">
<path fill-rule="evenodd" clip-rule="evenodd" fill="#FFFFFF" d="M181.677,9.43c0.229,1.292,0.464,2.583,0.687,3.876
	c0.655,3.803,1.304,7.606,1.959,11.409c0.285,1.65,0.594,3.296,0.86,4.949c0.057,0.353,0.167,0.494,0.526,0.489
	c1.15-0.015,2.302-0.015,3.451,0.001c0.326,0.004,0.454-0.102,0.508-0.437c0.353-2.212,0.727-4.421,1.1-6.63
	c0.516-3.062,1.042-6.122,1.555-9.185c0.212-1.261,0.397-2.528,0.603-3.791c0.031-0.192,0.101-0.379,0.152-0.568
	c0.051,0.006,0.102,0.012,0.153,0.018c0,0.176,0,0.353,0,0.529c0.001,1.154-0.002,2.308,0.006,3.463
	c0.033,5.332,0.077,10.665,0.098,15.998c0.001,0.477,0.147,0.619,0.612,0.606c1.018-0.031,2.037-0.024,3.056-0.003
	c0.398,0.008,0.569-0.09,0.568-0.533c-0.011-9.498-0.011-18.996,0-28.495c0-0.444-0.169-0.536-0.569-0.533
	c-1.886,0.017-3.771,0.015-5.657,0.001c-0.388-0.003-0.548,0.103-0.617,0.523c-0.967,5.736-1.955,11.467-2.941,17.199
	c-0.109,0.642-0.241,1.28-0.363,1.92c-0.05,0.003-0.1,0.005-0.15,0.008c-0.112-0.618-0.237-1.235-0.336-1.855
	c-0.681-4.237-1.356-8.474-2.029-12.712c-0.243-1.524-0.477-3.05-0.703-4.577c-0.053-0.362-0.205-0.51-0.59-0.508
	c-2.018,0.017-4.036,0.017-6.054,0c-0.405-0.003-0.512,0.145-0.512,0.531c0.009,9.499,0.01,18.997-0.002,28.495
	c-0.001,0.443,0.167,0.542,0.566,0.535c1.056-0.021,2.111-0.029,3.167,0.003c0.479,0.014,0.604-0.15,0.604-0.615
	c-0.009-3.652-0.004-7.304,0.015-10.955c0.017-2.911,0.059-5.822,0.092-8.733c0.002-0.145,0.026-0.291,0.04-0.436
	C181.578,9.423,181.628,9.426,181.677,9.43z"/>
<path fill-rule="evenodd" clip-rule="evenodd" fill="#FFFFFF" d="M74.604,10.929c0.16,1.226,0.322,2.451,0.479,3.677
	c0.244,1.905,0.482,3.811,0.726,5.714c0.206,1.606,0.423,3.211,0.627,4.818c0.197,1.55,0.375,3.103,0.591,4.65
	c0.019,0.135,0.252,0.339,0.388,0.342c1.414,0.026,2.828,0.029,4.242-0.004c0.157-0.003,0.422-0.258,0.445-0.424
	c0.442-3.075,0.848-6.155,1.278-9.231c0.435-3.113,0.897-6.222,1.332-9.336c0.434-3.113,0.849-6.229,1.272-9.344
	c0.05-0.371,0.099-0.741,0.16-1.19c-1.036,0-2.009,0-2.984,0c-0.283,0-0.566,0-0.849,0c-1.145,0-1.124,0.002-1.231,1.145
	c-0.248,2.645-0.524,5.287-0.779,7.93c-0.202,2.101-0.387,4.203-0.584,6.305c-0.113,1.219-0.233,2.438-0.358,3.656
	c-0.01,0.102-0.079,0.196-0.233,0.296c-0.094-0.685-0.191-1.37-0.28-2.056c-0.332-2.578-0.664-5.154-0.989-7.732
	c-0.281-2.223-0.549-4.448-0.828-6.672c-0.106-0.84-0.208-1.682-0.35-2.516c-0.023-0.136-0.244-0.336-0.377-0.339
	c-1.169-0.027-2.338-0.029-3.507,0.001c-0.145,0.003-0.392,0.224-0.411,0.369c-0.439,3.304-0.853,6.61-1.273,9.916
	c-0.375,2.932-0.753,5.864-1.135,8.795c-0.016,0.12-0.083,0.231-0.237,0.345c-0.05-0.39-0.114-0.777-0.148-1.167
	c-0.166-1.821-0.315-3.643-0.486-5.463c-0.168-1.8-0.362-3.598-0.53-5.398c-0.17-1.82-0.323-3.642-0.487-5.462
	c-0.022-0.244-0.072-0.484-0.096-0.728c-0.117-1.224-0.115-1.224-1.359-1.224c-1.056,0-2.112,0.01-3.168-0.005
	c-0.402-0.005-0.493,0.094-0.429,0.53c0.383,2.626,0.715,5.261,1.078,7.891c0.357,2.592,0.738,5.181,1.096,7.772
	c0.322,2.332,0.625,4.666,0.939,6.998c0.263,1.94,0.53,3.879,0.798,5.818c0.049,0.351,0.176,0.563,0.613,0.554
	c1.32-0.032,2.641-0.021,3.96-0.006c0.37,0.004,0.505-0.094,0.555-0.499c0.385-3.178,0.815-6.35,1.213-9.524
	c0.358-2.858,0.692-5.719,1.042-8.578c0.026-0.214,0.099-0.424,0.149-0.636C74.519,10.921,74.562,10.925,74.604,10.929z"/>
<path fill-rule="evenodd" clip-rule="evenodd" fill="#FFFFFF" d="M235.97,30.148c-0.402-1.224-0.765-2.312-1.117-3.403
	c-1.104-3.428-2.198-6.859-3.312-10.284c-0.137-0.421-0.113-0.663,0.336-0.889c2.034-1.023,3.088-2.742,3.374-4.973
	c0.204-1.602,0.247-3.208-0.143-4.785c-0.678-2.738-2.615-4.164-5.221-4.741c-1.257-0.278-2.562-0.404-3.851-0.452
	c-1.959-0.074-3.922-0.009-5.884-0.027c-0.414-0.003-0.556,0.117-0.556,0.546c0.011,9.481,0.012,18.961-0.001,28.443
	c-0.001,0.464,0.151,0.579,0.587,0.574c1.547-0.022,3.094-0.026,4.64,0.001c0.481,0.008,0.604-0.161,0.603-0.62
	c-0.014-4.087-0.009-8.175-0.007-12.263c0-0.782,0.03-0.779,0.793-0.771c0.414,0.004,0.44,0.279,0.506,0.544
	c0.61,2.448,1.216,4.898,1.821,7.349c0.425,1.718,0.854,3.435,1.265,5.156c0.101,0.426,0.264,0.62,0.753,0.608
	c1.583-0.038,3.169-0.014,4.753-0.014C235.492,30.148,235.675,30.148,235.97,30.148z M225.419,8.938c0-1.17,0.002-2.341-0.001-3.512
	c0-0.31,0.039-0.585,0.438-0.576c0.6,0.016,1.199,0.042,1.8,0.063c0.74,0.026,1.182,0.491,1.428,1.112
	c0.729,1.841,0.724,3.71,0.013,5.553c-0.366,0.946-1.061,1.488-2.141,1.401c-0.317-0.026-0.641-0.029-0.958,0.002
	c-0.459,0.046-0.592-0.16-0.585-0.589C225.431,11.242,225.419,10.09,225.419,8.938z"/>
<path fill-rule="evenodd" clip-rule="evenodd" fill="#FFFFFF" d="M150.918,30.071c-0.548-1.677-1.089-3.304-1.612-4.937
	c-0.939-2.925-1.861-5.855-2.812-8.777c-0.127-0.39-0.048-0.577,0.311-0.754c2.135-1.055,3.166-2.86,3.453-5.167
	c0.184-1.471,0.19-2.936-0.122-4.389c-0.479-2.23-1.818-3.721-3.918-4.554c-1.234-0.49-2.516-0.761-3.844-0.785
	c-2.372-0.042-4.746-0.061-7.118-0.114c-0.474-0.011-0.659,0.091-0.658,0.617c0.015,9.441,0.015,18.883,0,28.324
	c-0.001,0.521,0.177,0.631,0.654,0.623c1.489-0.027,2.979-0.032,4.469,0.002c0.538,0.012,0.705-0.135,0.702-0.691
	c-0.021-4.068-0.012-8.137-0.012-12.204c0-0.784,0.019-0.77,0.789-0.761c0.426,0.005,0.435,0.293,0.499,0.552
	c0.81,3.252,1.61,6.504,2.414,9.757c0.234,0.952,0.464,1.905,0.703,2.854c0.064,0.259,0.125,0.493,0.498,0.488
	c1.791-0.019,3.583-0.01,5.375-0.014C150.742,30.142,150.794,30.11,150.918,30.071z M140.411,8.957c0-1.191,0.011-2.383-0.005-3.574
	c-0.005-0.39,0.14-0.555,0.527-0.541c0.376,0.014,0.753-0.002,1.131,0.002c1.182,0.015,1.784,0.419,2.144,1.543
	c0.546,1.705,0.526,3.417-0.097,5.102c-0.388,1.047-1.05,1.485-2.147,1.486c-0.32,0-0.644-0.026-0.96,0.005
	c-0.487,0.049-0.61-0.169-0.601-0.622C140.427,11.227,140.411,10.091,140.411,8.957z"/>
<path fill-rule="evenodd" clip-rule="evenodd" fill="#FFFFFF" d="M8.264,30.8c2.745-0.049,4.963-1.088,6.505-3.385
	c0.941-1.401,1.112-2.998,0.99-4.663c-0.292-3.962-2.634-6.675-5.408-9.148c-1.112-0.991-2.263-1.949-3.281-3.03
	C5.952,9.388,5.544,7.914,5.854,6.28c0.207-1.095,0.935-1.778,1.874-1.8c0.722-0.017,1.231,0.315,1.542,0.944
	C9.733,6.363,9.8,7.377,9.782,8.405c-0.012,0.644,0.045,0.666,0.669,0.573c1.522-0.226,3.047-0.432,4.573-0.633
	c0.617-0.081,0.767-0.218,0.743-0.809C15.636,4.36,14.177,2,11.302,0.671C7.833-0.931,1.88,0.261,0.452,5.032
	c-1.062,3.546-0.253,6.742,2.405,9.354c1.385,1.361,2.921,2.563,4.34,3.893c1.412,1.322,2.55,2.849,2.854,4.83
	c0.087,0.566,0.043,1.166-0.029,1.739c-0.106,0.844-0.617,1.339-1.473,1.473c-0.699,0.109-1.405-0.226-1.848-0.944
	c-0.552-0.896-0.64-1.919-0.732-2.933c-0.04-0.432-0.017-0.87-0.01-1.305c0.006-0.331-0.058-0.469-0.459-0.386
	c-1.672,0.347-3.355,0.639-5.027,0.985c-0.166,0.034-0.395,0.298-0.405,0.467c-0.216,3.629,2.576,7.452,6.08,8.311
	C6.836,30.685,7.558,30.71,8.264,30.8z"/>
<path fill-rule="evenodd" clip-rule="evenodd" fill="#FFFFFF" d="M164.566,20.709c-1.822,0.345-3.606,0.683-5.393,1.017
	c-0.356,0.067-0.369,0.32-0.347,0.601c0.263,3.301,1.902,7.669,6.801,8.335c2.999,0.408,5.67-0.326,7.614-2.834
	c1.129-1.457,1.399-3.146,1.269-4.967c-0.152-2.102-0.841-3.963-2.06-5.662c-1.28-1.786-2.884-3.236-4.566-4.616
	c-1.186-0.972-2.352-1.978-2.973-3.434c-0.455-1.071-0.572-2.185-0.169-3.31c0.327-0.914,0.981-1.384,1.863-1.356
	c0.79,0.025,1.394,0.48,1.604,1.418c0.219,0.979,0.297,1.99,0.454,3.106c0.198-0.02,0.554-0.048,0.907-0.094
	c1.471-0.192,2.939-0.389,4.409-0.586c0.345-0.047,0.495-0.211,0.512-0.596c0.159-3.713-2.625-7.111-6.298-7.592
	c-2.629-0.345-5.064,0.144-7.109,1.953c-1.48,1.31-2.149,3.015-2.258,4.963c-0.114,2.053,0.18,4.051,1.452,5.696
	c0.974,1.258,2.19,2.33,3.326,3.457c1.218,1.207,2.542,2.313,3.679,3.589c1.063,1.192,1.631,2.669,1.606,4.311
	c-0.005,0.354-0.068,0.718-0.177,1.054c-0.386,1.195-1.852,1.571-2.801,0.744c-0.723-0.629-0.932-1.492-1.051-2.377
	c-0.108-0.801-0.146-1.611-0.22-2.418C164.631,20.987,164.597,20.866,164.566,20.709z"/>
<path fill-rule="evenodd" clip-rule="evenodd" fill="#FFFFFF" d="M257.938,20.695c-1.516,0.291-2.983,0.573-4.452,0.856
	c-0.036,0.007-0.071,0.022-0.108,0.03c-1.381,0.281-1.358,0.277-1.111,1.711c0.378,2.177,1.169,4.146,2.846,5.649
	c1.248,1.12,2.75,1.663,4.418,1.775c1.971,0.134,3.829-0.176,5.467-1.37c1.746-1.273,2.73-2.947,2.856-5.152
	c0.206-3.631-1.299-6.53-3.759-9.01c-1.062-1.069-2.273-1.986-3.368-3.025c-0.748-0.711-1.504-1.449-2.09-2.292
	c-0.859-1.239-1.034-2.661-0.522-4.105c0.316-0.894,0.938-1.295,1.794-1.28c0.77,0.014,1.385,0.433,1.604,1.341
	c0.206,0.85,0.234,1.746,0.3,2.624c0.044,0.58,0.094,0.634,0.674,0.549c1.541-0.227,3.082-0.454,4.628-0.645
	c0.508-0.063,0.742-0.204,0.739-0.789c-0.021-3.744-2.65-6.894-6.383-7.421c-2.798-0.396-5.368,0.223-7.419,2.306
	c-1.227,1.247-1.776,2.808-1.888,4.552c-0.145,2.266,0.271,4.39,1.739,6.151c0.96,1.153,2.119,2.14,3.192,3.197
	c1.208,1.188,2.482,2.315,3.612,3.575c0.991,1.106,1.432,2.502,1.531,3.996c0.089,1.306-0.506,2.192-1.624,2.396
	c-0.698,0.127-1.518-0.231-1.851-1.009c-0.319-0.748-0.499-1.569-0.644-2.377C257.991,22.216,257.996,21.479,257.938,20.695z"/>
<path fill-rule="evenodd" clip-rule="evenodd" fill="#FFFFFF" d="M85.986,30.148c0.84,0,1.627,0,2.414,0
	c0.906,0,1.813-0.039,2.715,0.015c0.506,0.03,0.653-0.194,0.727-0.619c0.3-1.724,0.628-3.443,0.912-5.171
	c0.073-0.445,0.248-0.604,0.696-0.592c0.942,0.027,1.885,0.021,2.827,0.003c0.391-0.006,0.602,0.07,0.681,0.529
	c0.299,1.725,0.668,3.437,0.976,5.159c0.086,0.485,0.24,0.704,0.784,0.688c1.507-0.04,3.017-0.022,4.525-0.007
	c0.445,0.005,0.541-0.132,0.446-0.574c-1.806-8.373-3.596-16.749-5.39-25.124c-0.237-1.104-0.495-2.205-0.714-3.312
	c-0.079-0.401-0.232-0.563-0.667-0.553c-1.357,0.03-2.715,0.035-4.072-0.002c-0.458-0.013-0.588,0.197-0.667,0.565
	c-0.643,3.019-1.286,6.038-1.936,9.056c-1.379,6.404-2.764,12.807-4.144,19.211C86.053,29.637,86.03,29.857,85.986,30.148z
	 M93.258,20.208c0.52-3.658,1.03-7.258,1.542-10.857c0.068,0.003,0.137,0.006,0.206,0.009c0.49,3.601,0.978,7.201,1.474,10.848
	C95.394,20.208,94.386,20.208,93.258,20.208z"/>
<path fill-rule="evenodd" clip-rule="evenodd" fill="#FFFFFF" d="M199.721,30.148c0.624,0,1.203,0,1.782,0
	c1.094,0,2.188-0.037,3.279,0.015c0.543,0.027,0.716-0.189,0.798-0.667c0.294-1.727,0.623-3.447,0.91-5.175
	c0.066-0.4,0.225-0.545,0.624-0.537c0.998,0.019,1.998,0.014,2.998,0.002c0.335-0.003,0.496,0.096,0.563,0.463
	c0.317,1.777,0.675,3.549,1.007,5.324c0.069,0.377,0.183,0.596,0.646,0.587c1.545-0.031,3.092-0.021,4.638-0.007
	c0.426,0.004,0.558-0.098,0.458-0.562c-1.769-8.189-3.52-16.382-5.276-24.574c-0.285-1.326-0.604-2.644-0.865-3.974
	c-0.074-0.373-0.237-0.449-0.568-0.446c-1.356,0.012-2.716,0.029-4.072-0.008c-0.488-0.014-0.647,0.179-0.739,0.614
	c-0.836,3.942-1.688,7.88-2.536,11.819c-1.208,5.613-2.415,11.226-3.622,16.839C199.733,29.916,199.735,29.972,199.721,30.148z
	 M208.534,9.312c0.064,0.002,0.129,0.005,0.193,0.007c0.492,3.616,0.983,7.232,1.479,10.878c-1.108,0-2.13,0-3.22,0
	C207.508,16.531,208.021,12.922,208.534,9.312z"/>
<path fill-rule="evenodd" clip-rule="evenodd" fill="#FFFFFF" d="M34.598,30.09c-0.442-2.059-0.875-4.06-1.303-6.062
	c-1.38-6.441-2.759-12.883-4.14-19.325c-0.26-1.215-0.532-2.427-0.784-3.643c-0.07-0.336-0.224-0.468-0.576-0.465
	c-1.414,0.017-2.828,0.013-4.242,0.003c-0.317-0.002-0.465,0.105-0.535,0.433c-1.462,6.828-2.936,13.653-4.404,20.48
	c-0.582,2.705-1.146,5.414-1.748,8.114c-0.1,0.448,0.029,0.53,0.424,0.527c1.583-0.01,3.167-0.013,4.751,0.002
	c0.381,0.003,0.509-0.144,0.573-0.517c0.31-1.8,0.666-3.591,0.978-5.391c0.063-0.365,0.223-0.465,0.559-0.461
	c1,0.013,2,0.02,2.998-0.003c0.412-0.011,0.559,0.172,0.628,0.546c0.329,1.776,0.684,3.548,1.006,5.325
	c0.062,0.337,0.167,0.502,0.532,0.499c1.659-0.013,3.318-0.007,4.978-0.01C34.363,30.144,34.435,30.119,34.598,30.09z
	 M24.062,20.212c0.524-3.685,1.038-7.301,1.552-10.918c0.065,0.006,0.13,0.01,0.196,0.016c0.489,3.619,0.978,7.239,1.473,10.903
	C26.177,20.212,25.171,20.212,24.062,20.212z"/>
<path fill-rule="evenodd" clip-rule="evenodd" fill="#FFFFFF" d="M120.122,15.371c0,4.693,0.008,9.385-0.011,14.078
	c-0.002,0.528,0.116,0.717,0.681,0.712c3.603-0.024,7.205-0.023,10.807,0c0.556,0.004,0.716-0.167,0.691-0.708
	c-0.04-0.887-0.028-1.778-0.005-2.666c0.012-0.426-0.145-0.556-0.558-0.552c-1.698,0.017-3.396-0.009-5.092,0.015
	c-0.526,0.008-0.728-0.136-0.722-0.7c0.025-2.668,0.024-5.337,0-8.003c-0.005-0.544,0.193-0.686,0.691-0.674
	c1.093,0.024,2.188-0.005,3.281,0.014c0.397,0.006,0.581-0.092,0.569-0.537c-0.029-1.002-0.022-2.006-0.002-3.009
	c0.006-0.376-0.135-0.493-0.497-0.488c-1.15,0.016-2.302-0.01-3.451,0.013c-0.443,0.008-0.591-0.146-0.588-0.591
	c0.016-2.365,0.02-4.73-0.002-7.095c-0.004-0.496,0.189-0.598,0.634-0.593c1.716,0.02,3.433-0.006,5.148,0.017
	c0.443,0.006,0.602-0.122,0.589-0.576c-0.027-0.964-0.019-1.93-0.004-2.895c0.007-0.375-0.092-0.541-0.507-0.54
	c-3.715,0.014-7.431,0.018-11.146-0.002c-0.528-0.003-0.512,0.278-0.512,0.644C120.123,5.948,120.122,10.659,120.122,15.371z"/>
<path fill-rule="evenodd" clip-rule="evenodd" fill="#FFFFFF" d="M52.114,17.577c0,3.974,0.011,7.948-0.013,11.922
	c-0.003,0.543,0.17,0.669,0.676,0.66c1.49-0.03,2.981-0.036,4.47,0.001c0.561,0.015,0.69-0.175,0.689-0.709
	c-0.015-7.815-0.01-15.631-0.01-23.447c0-0.189,0.008-0.379,0.001-0.568c-0.015-0.359,0.144-0.504,0.508-0.5
	c1.075,0.014,2.15-0.011,3.226,0.012c0.413,0.009,0.567-0.115,0.557-0.545c-0.025-1.097-0.022-2.195-0.001-3.292
	c0.008-0.403-0.14-0.517-0.527-0.516c-4.451,0.011-8.902,0.011-13.354,0c-0.378-0.001-0.545,0.092-0.537,0.506
	c0.022,1.116,0.019,2.233,0.001,3.349c-0.006,0.369,0.119,0.502,0.489,0.496c1.075-0.017,2.151,0.015,3.226-0.015
	c0.468-0.013,0.609,0.137,0.608,0.61C52.107,9.554,52.114,13.565,52.114,17.577z"/>
<path fill-rule="evenodd" clip-rule="evenodd" fill="#FFFFFF" d="M113.703,17.587c0-3.972,0.01-7.943-0.012-11.915
	c-0.003-0.565,0.144-0.769,0.729-0.743c1.015,0.044,2.035,0,3.052,0.018c0.381,0.007,0.541-0.099,0.532-0.511
	c-0.023-1.116-0.019-2.232-0.001-3.347c0.006-0.371-0.122-0.494-0.491-0.493c-4.486,0.009-8.973,0.009-13.459,0.001
	c-0.337,0-0.476,0.108-0.473,0.456c0.011,1.134,0.014,2.27-0.001,3.404c-0.006,0.372,0.134,0.496,0.499,0.49
	c1.056-0.017,2.111,0.026,3.165-0.018c0.599-0.025,0.665,0.251,0.664,0.747c-0.011,7.753-0.007,15.508-0.007,23.262
	c0,1.211,0,1.211,1.234,1.211c1.301,0,2.603-0.029,3.901,0.013c0.573,0.019,0.68-0.193,0.677-0.717
	C113.694,25.492,113.703,21.539,113.703,17.587z"/>
<path fill-rule="evenodd" clip-rule="evenodd" fill="#FFFFFF" d="M246.679,17.586c0-3.972,0.01-7.945-0.013-11.917
	c-0.003-0.57,0.153-0.764,0.732-0.74c1.016,0.043,2.035-0.001,3.053,0.018c0.384,0.007,0.538-0.105,0.53-0.513
	c-0.023-1.116-0.02-2.232-0.002-3.348c0.006-0.374-0.127-0.491-0.494-0.49c-4.469,0.009-8.937,0.01-13.404-0.001
	c-0.392-0.001-0.535,0.121-0.528,0.519c0.018,1.115,0.017,2.232,0.001,3.348c-0.005,0.376,0.144,0.49,0.503,0.484
	c1.056-0.016,2.112,0.02,3.167-0.016c0.525-0.018,0.667,0.158,0.666,0.676c-0.015,7.907-0.01,15.815-0.01,23.721
	c0,0.819,0,0.82,0.831,0.82c1.415,0,2.828,0.001,4.243,0c0.724-0.001,0.725-0.002,0.725-0.76
	C246.679,25.455,246.679,21.521,246.679,17.586z"/>
<path fill-rule="evenodd" clip-rule="evenodd" fill="#FFFFFF" d="M36.716,15.439c0,4.672,0.008,9.345-0.012,14.016
	c-0.002,0.539,0.133,0.709,0.688,0.705c3.45-0.024,6.9-0.021,10.351-0.001c0.513,0.002,0.699-0.129,0.672-0.664
	c-0.043-0.849-0.052-1.705,0.001-2.552c0.038-0.604-0.193-0.728-0.743-0.714c-1.47,0.033-2.941,0.013-4.412,0.01
	c-0.741-0.001-0.744-0.005-0.744-0.77c0-8.038,0-16.077,0-24.116c0-0.75-0.001-0.751-0.731-0.751c-1.47,0-2.941,0.021-4.411-0.011
	c-0.517-0.012-0.675,0.131-0.673,0.663C36.725,5.982,36.716,10.711,36.716,15.439z"/>
</svg>
