<?xml version="1.0" encoding="utf-8"?>
<!-- Generator: Adobe Illustrator 16.0.0, SVG Export Plug-In . SVG Version: 6.00 Build 0)  -->
<!DOCTYPE svg PUBLIC "-//W3C//DTD SVG 1.1//EN" "http://www.w3.org/Graphics/SVG/1.1/DTD/svg11.dtd">
<svg version="1.1" id="Layer_1" xmlns="http://www.w3.org/2000/svg" xmlns:xlink="http://www.w3.org/1999/xlink" x="0px" y="0px"
	 width="278.546px" height="31px" viewBox="0 0 278.546 31" enable-background="new 0 0 278.546 31" xml:space="preserve">
<g>
	<path fill="#FFFFFF" d="M35.034,8.728c1.189,0.386,2.622,1.818,2.726,3.286l3.425-3.286c0,0,1.016,0.629,1.853,1.539
		c0.701,0.735,1.154,1.781,1.154,2.935v6.147c0,1.293,0.977,1.572,1.362,1.888l-2.797,2.937c0,0-1.014-0.596-1.886-1.541
		c-0.697-0.768-1.118-1.642-1.118-2.792v-5.38c0-1.678-0.909-2.062-1.574-2.34l-0.42,0.348v7.056c0,1.257,0.736,1.434,1.047,1.747
		l-2.899,2.902c0,0-2.585-1.437-2.585-3.216v-6.813c0-1.432-0.699-1.815-1.362-2.234L35.034,8.728z M38.426,11.84
		c0.767,0.383,1.643,0.873,1.643,2.479v5.484c0,1.921,1.327,3.073,2.655,3.981l0.63-0.666c-1.015-0.661-2.446-1.673-2.446-3.35v-5.8
		c0-1.676-1.086-2.514-1.746-2.794L38.426,11.84z M32.378,11.84c0.7,0.348,1.259,1.048,1.259,2.34v6.706
		c0,1.152,1.015,2.096,2.272,2.899l0.594-0.628c-0.943-0.699-2.027-1.224-2.027-2.586v-6.564c0-1.678-0.734-2.517-1.434-2.796
		L32.378,11.84"/>
	<path fill="#FFFFFF" d="M22.454,24.135c-1.153-0.907-3.077-2.41-3.077-5.52c0-2.445,2.061-4.855,6.187-4.471h0.314
		c0-0.561,0.139-2.061-0.839-2.271c-0.035,0.037-1.187,1.154-2.691,1.154c-1.468,0-2.062-0.663-2.376-1.013l3.425-3.286
		c0.526,0.875,1.33,1.643,2.446,1.643c0.593,0,1.398-0.591,2.203-1.643c-0.071,0,2.269,0.422,2.269,4.333v5.833
		c0,1.261,1.084,1.959,1.468,2.168l-3.074,3.073c0,0-2.797-1.432-2.797-3.318v-0.245L22.454,24.135z M25.879,20.154v-5.626
		c-0.314,0.036-1.537-0.14-2.131,0.244c-0.421,0.28-1.259,1.154-0.909,2.761c0.348,1.642,2.027,2.758,2.586,3.038L25.879,20.154z
		 M19.972,17.043c-0.175,0.313-0.279,1.153-0.279,1.711c0.036,2.899,1.992,4.365,2.726,4.962l0.805-0.839
		c-0.805-0.523-1.818-1.431-2.307-2.306c-0.421-0.731-1.051-2.199-0.873-3.599L19.972,17.043z M25.354,11.665
		c0.769,0.383,0.841,0.976,0.841,2.27v6.707c0,1.223,1.222,2.375,2.48,3.144l0.699-0.698c-0.944-0.56-2.343-1.292-2.343-2.654
		v-6.426c0-1.678-0.139-2.551-1.013-2.936L25.354,11.665z M22.209,12.047c-0.525-0.138-1.118-0.732-1.118-0.732l-0.7,0.665
		c0.209,0.349,0.979,0.732,1.888,0.765c0.629,0.036,1.396-0.313,1.678-0.452l-0.035-0.105
		C23.571,12.293,22.838,12.223,22.209,12.047"/>
	<path fill="#FFFFFF" d="M80.118,12.539v6.566c0,1.294,1.261,1.853,1.574,2.061l-3.077,3.074c0,0-2.935-1.431-2.935-3.213v-6.813
		c0-1.36-0.769-1.85-1.363-2.233l3.074-3.214c1.05,0.349,2.378,1.501,2.657,2.792l2.902-2.792l2.445,2.549l-3.424,3.145
		L80.118,12.539z M74.738,11.91c0.665,0.35,1.258,1.045,1.258,2.339v6.604c0,1.361,1.503,2.407,2.586,3.003l0.664-0.664
		c-0.944-0.525-2.412-1.223-2.412-2.586v-6.532c0-1.676-0.698-2.269-1.537-2.723L74.738,11.91z M82.006,14.039l0.699-0.661
		l-1.92-1.994l-0.666,0.663L82.006,14.039"/>
	<path fill="#FFFFFF" d="M118.459,8.728c0.487,0.457,0.942,1.086,2.235,1.191c0.455,0.035,1.084-0.139,1.504-0.49l0.105,0.068
		c-0.071,1.154-0.911,2.445-1.924,3.041c-0.56,0.315-1.921,0.768-2.759,0.278v6.567c0,0.522,0.523,1.258,1.258,1.258
		c0.662,0,1.011-0.419,1.501-0.872l0.244,0.245l-4.125,4.12c0,0-1.324-0.558-2.2-1.503c-0.698-0.768-1.119-1.432-1.119-2.828v-5.031
		c0-0.593-0.104-1.118-0.733-1.293v-0.102l1.923-1.888C114.335,11.456,116.885,11.769,118.459,8.728z M112.901,13.341
		c0.664,0.384,0.594,1.013,0.594,1.397v5.102c0,1.92,1.118,3.003,2.971,3.945l0.594-0.628c-1.152-0.664-2.725-1.433-2.725-3.317
		v-5.521c0-0.313-0.141-1.292-0.875-1.538L112.901,13.341z M117.621,11.419v1.083c0.384,0.139,0.627,0.21,1.048,0.21
		c0.559,0,1.361-0.315,1.78-0.593v-0.072c-0.629,0.036-0.976,0.105-1.57-0.034C118.39,11.91,117.899,11.595,117.621,11.419"/>
	<path fill="#FFFFFF" d="M70.613,0.521c-1.363,2.235-3.669,3.946-6.708,3.946c-2.553,0-3.114-0.767-5.209-0.767
		c-1.887,0-3.041,1.118-2.901,2.235h-0.069c-0.35-0.488-0.594-1.187-0.594-1.991c0.035-1.781,1.783-3.388,4.228-3.598
		c2.238-0.174,6.292,0.837,8.283,0.803c1.224-0.034,2.342-0.349,2.831-0.734L70.613,0.521z M56.949,3.771
		c0.489-0.279,1.152-0.35,1.712-0.385c1.503-0.069,3.39,0.769,5.244,0.769c1.57,0,2.758-0.56,3.178-0.733l-0.036-0.14
		c-0.942,0.07-1.922,0-3.18-0.209c-1.817-0.315-3.811-0.697-4.543-0.697c-1.362,0-2.271,0.558-2.48,1.396H56.949"/>
	<path fill="#FFFFFF" d="M78.163,0.207c-0.489,2.688-2.691,4.193-5.102,4.612c-0.839,0.14-1.502,0.104-2.412-0.07v3.387h4.963
		l-4.299,4.717h-0.665v3.596c0,1.398-0.628,3.391-1.817,5.171c-1.048,1.607-2.726,2.862-4.123,3.809c0,0-3.148-3.109-6.676-3.109
		c-1.645,0-4.439,0.872-4.439,3.423c0,2.096,2.445,4.156,5.871,4.156c2.307,0,3.39-0.734,4.16-1.119l0.209,0.28
		c-0.523,0.35-2.098,1.293-4.438,1.293c-3.88,0-6.991-2.061-6.991-5.799c0-3.948,3.88-6.496,7.83-6.496
		c1.78,0,2.795,0.244,5.593,1.501V6.04l1.919-1.85c0.664-0.177,1.538-0.386,2.657-1.33c1.154-0.977,1.956-2.444,1.956-2.444
		c0.7,0.663,2.306,1.292,3.075,1.258c1.572-0.104,2.098-0.769,2.551-1.538L78.163,0.207z M67.083,5.306l-0.944,0.911V19.77
		c0,0,0.315,0.209,0.491,0.348c0.174,0.142,0.454,0.454,0.454,0.454V5.306z M70.929,2.86l-0.316,0.28V4.33
		c0.49,0.173,1.502,0.313,2.447,0.173c0.978-0.173,1.921-0.594,2.096-0.732l0.035-0.105C73.618,3.805,72.36,3.594,70.929,2.86z
		 M54.431,23.191l0.036,0.068c0.874-0.94,2.517-1.256,3.565-1.291c3.074-0.069,6.01,2.376,6.745,3.039l1.051-0.769
		c-1.539-1.607-4.057-3.213-7.586-3.213C56.914,21.026,55.098,21.76,54.431,23.191z M70.648,12.539h0.523l0.944-1.048h-1.467V12.539
		"/>
	<path fill="#FFFFFF" d="M128.243,19.034c0,1.364,1.259,1.852,1.574,2.059l-3.076,3.042c0,0-2.937-1.398-2.937-3.178v-6.744
		c0-1.36-0.77-1.85-1.363-2.233l3.076-3.252c1.189,0.457,2.726,1.643,2.726,3.391V19.034z M122.861,11.91
		c0.664,0.35,1.258,1.045,1.258,2.339v6.637c0,1.224,1.538,2.306,2.588,2.899l0.663-0.698c-0.944-0.699-2.411-1.327-2.411-2.688
		v-6.325c0-1.571-0.734-2.409-1.503-2.723L122.861,11.91"/>
	<path fill="#FFFFFF" d="M135.023,24.135c-0.034-0.034-0.07,0-0.07,0c-0.383-0.454-1.013-1.048-2.235-1.153
		c-0.454-0.034-1.643-0.069-2.097,1.153h-0.106c-0.419-1.607,0.944-3.424,2.518-3.98c1.746-0.631,3.178-0.107,3.178-0.107v-3.914
		c-1.465,0.491-3.178,1.4-4.366,1.155c-0.49-0.105-0.875-0.421-0.875-1.22c0,0,0-2.623,0-2.658c0-0.243,0-0.315-0.068-0.456
		c-0.106-0.174-0.314-0.243-0.314-0.243v-0.106l1.468-1.431c0,0,2.62,0.175,4.682-2.447c0.489,0.422,0.942,1.086,2.237,1.191
		c0.453,0.035,1.536-0.105,1.956-0.525l0.105,0.07c-0.069,1.152-1.573,2.584-2.62,3.039c-1.679,0.734-3.182,0.104-3.182,0.104v2.621
		c1.956-0.314,3.984-1.433,4.72-1.188c0.453,0.141,0.732,0.315,0.732,1.221V19c0,0.349,0,1.047,0,1.047s-0.84,0.035-1.33,0.176
		c-0.382,0.104-0.804,0.279-1.43,0.663C136.034,22.038,135.023,24.101,135.023,24.135z M134.953,23.646c0,0,0.141-0.246,0.244-0.419
		c0.105-0.176,0.281-0.419,0.281-0.419c-0.351-0.281-0.943-0.875-2.027-0.875c-1.397,0-1.854,0.665-1.923,0.837l0.069,0.038
		c0.63-0.281,1.435-0.143,2.133,0.068C134.325,23.052,134.745,23.4,134.953,23.646z M135.232,11.105v1.154
		c0.488,0.173,1.223,0.243,1.643,0.243c0.561,0,1.397-0.173,1.818-0.488v-0.071c-0.735,0-1.295,0.104-1.993-0.103
		C136.106,11.665,135.479,11.281,135.232,11.105z M130.935,12.606c0.351,0.247,0.351,0.489,0.351,0.873v1.958
		c0,0.663,0,1.081,0.209,1.328c0.42,0.488,1.432,0.173,1.432,0.173c-0.662-0.384-0.803-0.731-0.803-1.467v-2.27
		c0-0.314,0-0.979-0.629-1.118L130.935,12.606z M136.979,20.433c0.21,0.103,0.385,0.278,0.385,0.278v-4.262
		c0-0.175,0.035-0.454-0.103-0.56c-0.072-0.034-0.14-0.104-0.209-0.104l-0.527,0.21v4.227
		C136.524,20.223,136.805,20.327,136.979,20.433"/>
	<path fill="#FFFFFF" d="M126.603,1.918l2.235,2.235l-3.32,3.249l-2.201-2.2L126.603,1.918z M123.771,5.203l1.746,1.747l0.733-0.701
		l-1.782-1.782L123.771,5.203"/>
	<path fill="#FFFFFF" d="M101.018,8.728c1.188,0.386,2.623,1.818,2.729,3.286l3.425-3.286c0,0,1.012,0.629,1.851,1.539
		c0.698,0.735,1.153,1.781,1.153,2.935v6.147c0,1.293,0.98,1.572,1.364,1.888l-2.796,2.937c0,0-1.014-0.596-1.889-1.541
		c-0.699-0.768-1.117-1.642-1.117-2.792v-5.38c0-1.678-0.908-2.062-1.573-2.34l-0.418,0.348v7.056c0,1.257,0.73,1.434,1.047,1.747
		l-2.899,2.902c0,0-2.587-1.437-2.587-3.216v-6.813c0-1.432-0.699-1.815-1.363-2.234L101.018,8.728z M104.409,11.84
		c0.769,0.383,1.642,0.873,1.642,2.479v5.484c0,1.921,1.328,3.073,2.656,3.981l0.628-0.666c-1.012-0.661-2.444-1.673-2.444-3.35
		v-5.8c0-1.676-1.084-2.514-1.748-2.794L104.409,11.84z M98.362,11.84c0.698,0.348,1.259,1.048,1.259,2.34v6.706
		c0,1.152,1.013,2.096,2.272,2.899l0.593-0.628c-0.943-0.699-2.027-1.224-2.027-2.586v-6.564c0-1.678-0.733-2.517-1.433-2.796
		L98.362,11.84"/>
	<path fill="#FFFFFF" d="M88.436,24.135c-1.152-0.907-3.075-2.41-3.075-5.52c0-2.445,2.063-4.855,6.186-4.471h0.315
		c0-0.561,0.14-2.061-0.839-2.271c-0.033,0.037-1.188,1.154-2.69,1.154c-1.468,0-2.063-0.663-2.375-1.013l3.424-3.286
		c0.522,0.875,1.327,1.643,2.446,1.643c0.593,0,1.397-0.591,2.201-1.643c-0.07,0,2.272,0.422,2.272,4.333v5.833
		c0,1.261,1.082,1.959,1.468,2.168l-3.077,3.073c0,0-2.795-1.432-2.795-3.318v-0.245L88.436,24.135z M91.862,20.154v-5.626
		c-0.315,0.036-1.537-0.14-2.131,0.244c-0.419,0.28-1.258,1.154-0.91,2.761c0.351,1.642,2.028,2.758,2.586,3.038L91.862,20.154z
		 M85.958,17.043c-0.175,0.313-0.281,1.153-0.281,1.711c0.034,2.899,1.991,4.365,2.726,4.962l0.803-0.839
		c-0.803-0.523-1.817-1.431-2.306-2.306c-0.418-0.731-1.047-2.199-0.874-3.599L85.958,17.043z M91.339,11.665
		c0.768,0.383,0.837,0.976,0.837,2.27v6.707c0,1.223,1.224,2.375,2.483,3.144l0.698-0.698c-0.944-0.56-2.34-1.292-2.34-2.654v-6.426
		c0-1.678-0.142-2.551-1.014-2.936L91.339,11.665z M88.192,12.047c-0.524-0.138-1.119-0.732-1.119-0.732l-0.699,0.665
		c0.21,0.349,0.979,0.732,1.888,0.765c0.629,0.036,1.397-0.313,1.676-0.452l-0.034-0.105C89.555,12.293,88.821,12.223,88.192,12.047
		"/>
	<path fill="#FFFFFF" d="M196.425,2.827c1.153,0.384,2.273,1.992,2.273,4.086v5.101l3.423-3.286c0,0,1.017,0.666,1.853,1.573
		c0.7,0.734,1.153,1.783,1.153,2.935v10.62c0,0.384-0.105,7.16-5.555,7.16c-2.133,0-2.799-1.711-2.799-1.711l0.246-0.175
		c0,0,0.593,1.189,1.991,1.189c1.82,0,1.679-2.064,1.679-3.183V14.493c0-1.639-0.979-2.233-1.573-2.445l-0.418,0.385v7.021
		c0,1.258,0.733,1.433,1.048,1.747l-2.901,2.9c0,0-2.585-1.435-2.585-3.215V8.555c0-1.363-0.456-2.062-1.049-2.444L196.425,2.827z
		 M199.396,11.769c0.768,0.351,1.61,1.048,1.61,2.586v12.679c0,1.54,0,1.992-0.386,2.726h0.069c0.524-0.313,1.152-0.979,1.152-3.18
		V14.073c0-1.676-0.979-2.654-1.782-2.934L199.396,11.769z M193.663,6.074c0.597,0.352,0.91,1.224,0.91,2.516v12.122
		c0,1.223,1.013,2.166,2.271,2.97l0.665-0.699c-0.944-0.698-2.099-1.222-2.099-2.583V8.415c0-1.675-0.418-2.584-1.186-2.9
		L193.663,6.074"/>
	<path fill="#FFFFFF" d="M186.499,0.696l-0.033,0.14c-1.468,0-3.461,0.174-5.56,1.606c-2.793,1.919-4.435,5.415-4.471,8.732
		c-0.037,4.958,2.796,8.208,3.599,8.557c-0.313-0.628-0.559-1.746-0.559-2.655c0-1.779,1.258-2.758,1.888-3.038V7.474
		c0-0.352,0.033-0.561-0.105-0.91c-0.107-0.281-0.42-0.419-0.42-0.419V6.074l1.854-2.234c1.294,0.034,2.587-0.174,3.287-0.524
		c0.905-0.456,2.375-2.655,2.375-2.655c1.047,0.874,1.746,1.362,3.214,1.433c1.399,0.07,2.343-0.91,2.692-1.642l0.174,0.069
		c-0.455,2.13-1.502,3.739-3.879,4.576c-2.692,0.943-4.37,0.279-4.37,0.279v10.409c0,0.489,0.035,0.944-0.245,1.223
		c-0.524,0.489-1.782-0.173-2.935,0.175c-1.155,0.351-2.621,1.711-2.515,2.864c0,0,1.921,1.467,5.766,1.467
		c3.006,0,4.473-0.908,6.326-2.339l0.138,0.104c-1.779,4.367-5.522,6.603-9.61,6.603c-6.012,0-11.601-5.102-11.601-12.402
		c0-6.566,4.751-11.806,9.959-12.819C184.927-0.003,186.499,0.696,186.499,0.696z M175.491,4.538l-0.105-0.071
		c-1.889,1.888-3.492,5.347-3.492,9.049c0,5.763,3.598,9.921,7.722,11.386c3.322,1.19,6.324,0.315,6.921,0.105l0.105-0.14
		c-1.539,0.104-5.208-0.14-7.41-1.361c-2.621-1.469-3.986-2.972-5.137-5.414c-0.944-1.992-1.154-5.138-0.839-7.301
		C173.883,6.635,175.491,4.538,175.491,4.538z M186.185,4.993c0,0,0.594,0.278,1.924,0.246c1.012-0.036,2.2-0.42,2.653-0.63
		l0.036-0.071c-0.767,0-1.747-0.208-2.517-0.418c-0.661-0.21-1.293-0.595-1.571-0.734l-0.525,0.349V4.993z M181.258,6.074
		c0,0,0.21,0.209,0.279,0.352c0.142,0.277,0.142,0.454,0.142,0.767v7.09c-0.421,0.21-0.772,0.456-1.049,0.735
		c-0.385,0.42-0.805,1.115-0.735,1.886l0.07,0.104c0,0,0.594-0.977,1.469-1.396c0.487-0.244,1.118-0.352,1.327-0.384V6.913
		c0-0.454-0.106-0.802-0.28-1.187c-0.104-0.246-0.522-0.524-0.522-0.524L181.258,6.074"/>
	<path fill="#FFFFFF" d="M162.212,19.068c0,0-2.027,1.33-3.146,2.273c-1.154,0.941-2.832,2.793-2.832,2.793s-2.168-1.153-3.04-2.097
		c-0.7-0.768-1.397-1.467-1.397-2.827v-4.473c0-0.769-0.141-1.048-0.492-1.187v-0.106l1.923-1.887
		c-0.033-0.034,2.658-0.556,5.069-2.792c0.526,0.384,1.084,0.767,1.815,1.327c0.701,0.523,2.1,1.189,2.1,2.795
		C162.212,12.888,162.212,19.034,162.212,19.068z M157.771,20.117v-5.065c0-1.292-0.769-1.781-1.537-2.199v5.101
		c0,0.521,0.351,1.187,0.91,1.677C157.388,19.84,157.527,19.944,157.771,20.117z M151.727,13.445
		c0.455,0.28,0.386,0.978,0.386,1.363v4.54c0,1.852,2.2,3.317,4.088,4.4l0.593-0.63c-1.154-0.661-3.843-2.026-3.843-3.908v-4.822
		c0-0.315,0-1.328-0.63-1.535L151.727,13.445z M156.234,11.419v1.048c0.351,0.209,0.699,0.349,1.014,0.628
		c0.523,0.456,0.838,1.048,0.838,1.887v5.344l0.77,0.594l0.068-0.068v-6.01c0-1.083-0.313-1.713-0.872-2.304
		C157.318,11.733,156.234,11.419,156.234,11.419"/>
	<path fill="#FFFFFF" d="M147.812,8.728c0.491,0.457,0.942,1.086,2.238,1.191c0.453,0.035,1.083-0.139,1.502-0.49l0.104,0.068
		c-0.069,1.154-0.908,2.445-1.922,3.041c-0.56,0.315-1.923,0.768-2.761,0.278v6.567c0,0.522,0.521,1.258,1.258,1.258
		c0.665,0,1.013-0.419,1.503-0.872l0.245,0.245l-4.125,4.12c0,0-1.327-0.558-2.2-1.503c-0.701-0.768-1.121-1.432-1.121-2.828v-5.031
		c0-0.593-0.104-1.118-0.731-1.293v-0.102l1.92-1.888C143.688,11.456,146.237,11.769,147.812,8.728z M142.255,13.341
		c0.663,0.384,0.595,1.013,0.595,1.397v5.102c0,1.92,1.12,2.969,2.97,3.945l0.595-0.628c-1.154-0.664-2.727-1.433-2.727-3.317
		v-5.521c0-0.313-0.139-1.292-0.874-1.538L142.255,13.341z M146.974,11.419v1.083c0.385,0.139,0.628,0.21,1.049,0.21
		c0.559,0,1.362-0.315,1.78-0.593v-0.072c-0.628,0.036-0.977,0.105-1.571-0.034C147.742,11.91,147.255,11.595,146.974,11.419"/>
	<path fill="#FFFFFF" d="M212.152,12.364v6.567c0,1.292,1.26,1.85,1.572,2.06l-3.076,3.076c0,0-2.932-1.435-2.932-3.214v-6.813
		c0-1.362-0.77-1.852-1.366-2.234l3.074-3.215c1.05,0.352,2.378,1.503,2.657,2.795l2.9-2.795l2.445,2.55l-3.423,3.143
		L212.152,12.364z M206.771,11.733c0.663,0.35,1.259,1.048,1.259,2.34v6.603c0,1.362,1.501,2.411,2.585,3.005l0.665-0.664
		c-0.944-0.523-2.412-1.222-2.412-2.584v-6.533c0-1.676-0.697-2.27-1.537-2.724L206.771,11.733z M214.039,13.867l0.699-0.665
		l-1.922-1.991l-0.664,0.663L214.039,13.867"/>
	<path fill="#FFFFFF" d="M227.637,19c0,0-2.026,1.327-3.146,2.271c-1.154,0.943-2.835,2.796-2.835,2.796s-2.166-1.154-3.038-2.098
		c-0.698-0.769-1.397-1.467-1.397-2.828v-4.473c0-0.768-0.143-1.047-0.489-1.188v-0.102l1.923-1.888
		c-0.036-0.035,2.653-0.562,5.067-2.795c0.522,0.386,1.084,0.769,1.813,1.328c0.7,0.524,2.102,1.188,2.102,2.794
		C227.637,12.816,227.637,18.966,227.637,19z M223.195,20.047v-5.064c0-1.293-0.769-1.781-1.539-2.202v5.101
		c0,0.523,0.35,1.187,0.911,1.677C222.811,19.77,222.954,19.872,223.195,20.047z M217.149,13.378
		c0.457,0.277,0.384,0.977,0.384,1.36v4.541c0,1.852,2.205,3.319,4.089,4.401l0.594-0.629c-1.151-0.664-3.845-2.025-3.845-3.911
		v-4.821c0-0.313,0-1.327-0.625-1.538L217.149,13.378z M221.656,11.35v1.047c0.35,0.209,0.7,0.348,1.015,0.629
		c0.524,0.453,0.84,1.046,0.84,1.887v5.345l0.77,0.594l0.069-0.072v-6.008c0-1.083-0.313-1.712-0.874-2.305
		C222.741,11.665,221.656,11.35,221.656,11.35"/>
	<path fill="#FFFFFF" d="M266.036,18.966c0,1.467,1.256,1.887,1.571,2.061l-3.076,3.074c0,0-2.934-1.435-2.934-3.215V8.451
		c0-1.363-0.456-1.923-1.121-2.306l3.078-3.213c1.188,0.384,2.481,2.026,2.481,3.561V18.966z M260.965,6.111
		c0.598,0.349,0.949,1.082,0.949,2.374v12.227c0,1.363,1.325,2.201,2.58,3.005l0.632-0.629c-0.945-0.699-2.379-1.257-2.379-2.688
		V8.379c0-1.677-0.453-2.548-1.255-2.828L260.965,6.111"/>
	<path fill="#FFFFFF" d="M273.301,16.381v2.935c0,0.524,0.527,1.256,1.261,1.256c0.666,0,1.011-0.417,1.501-0.874l0.317,0.281
		l-4.191,4.156c0,0-1.366-0.593-2.239-1.536c-0.699-0.769-1.082-1.746-1.082-2.866v-4.994c0-0.594-0.247-1.083-0.734-1.187v-0.106
		l1.919-1.887c-0.034-0.034,3.148,0.037,4.998-2.792c0,0,0.56,0.732,1.505,1.678c0.803,0.801,1.676,1.78,1.991,2.059
		C278.546,12.502,274.214,15.681,273.301,16.381z M274.598,14.983l-1.297-1.642v2.585L274.598,14.983z M268.553,13.411
		c0.661,0.384,0.627,1.013,0.627,1.398v4.961c0,1.955,1.152,3.039,2.973,3.979l0.663-0.63c-1.154-0.626-2.798-1.289-2.798-3.422
		v-5.309c0-0.315-0.173-1.362-0.908-1.535L268.553,13.411z M273.301,11.456v1.29l1.575,2.027l0.733-0.559l-2.236-2.829
		L273.301,11.456"/>
	<path fill="#FFFFFF" d="M256.669,8.728c0.489,0.457,0.944,1.086,2.236,1.191c0.453,0.035,1.083-0.139,1.501-0.49l0.104,0.068
		c-0.067,1.154-0.911,2.445-1.922,3.041c-0.559,0.315-1.92,0.768-2.762,0.278v6.567c0,0.522,0.524,1.258,1.259,1.258
		c0.664,0,1.015-0.419,1.503-0.872l0.245,0.245l-4.123,4.12c0,0-1.328-0.558-2.203-1.503c-0.696-0.768-1.118-1.432-1.118-2.828
		v-5.031c0-0.593-0.102-1.118-0.733-1.293v-0.102l1.924-1.888C252.546,11.456,255.098,11.769,256.669,8.728z M251.11,13.341
		c0.666,0.384,0.598,1.013,0.598,1.397v5.102c0,1.92,1.149,3.003,2.968,3.945l0.596-0.628c-1.152-0.664-2.726-1.433-2.726-3.317
		v-5.521c0-0.313-0.141-1.292-0.874-1.538L251.11,13.341z M255.827,11.419v1.083c0.385,0.139,0.631,0.21,1.05,0.21
		c0.561,0,1.362-0.315,1.784-0.593v-0.072c-0.631,0.036-0.979,0.105-1.575-0.034C256.599,11.91,256.11,11.595,255.827,11.419"/>
	<path fill="#FFFFFF" d="M248.558,19.034c0,1.364,1.261,1.852,1.574,2.059l-3.073,3.042c0,0-2.938-1.398-2.938-3.178v-6.744
		c0-1.36-0.769-1.85-1.362-2.233l3.072-3.252c1.191,0.457,2.727,1.643,2.727,3.391V19.034z M243.181,11.91
		c0.663,0.35,1.257,1.045,1.257,2.339v6.637c0,1.224,1.537,2.306,2.585,2.899l0.664-0.698c-0.944-0.699-2.413-1.327-2.413-2.688
		v-6.325c0-1.571-0.735-2.409-1.501-2.723L243.181,11.91"/>
	<path fill="#FFFFFF" d="M246.917,1.918l2.234,2.235l-3.32,3.249l-2.198-2.2L246.917,1.918z M244.084,5.203l1.747,1.747l0.735-0.701
		l-1.781-1.782L244.084,5.203"/>
	<path fill="#FFFFFF" d="M232.135,8.728c1.188,0.386,2.619,1.818,2.723,3.286l3.427-3.286c0,0,1.015,0.629,1.854,1.539
		c0.699,0.735,1.154,1.781,1.154,2.935v6.147c0,1.293,0.975,1.572,1.361,1.888l-2.796,2.937c0,0-1.014-0.596-1.885-1.541
		c-0.701-0.768-1.12-1.642-1.12-2.792v-5.38c0-1.678-0.911-2.062-1.572-2.34l-0.423,0.348v7.056c0,1.257,0.734,1.434,1.051,1.747
		l-2.901,2.902c0,0-2.588-1.437-2.588-3.216v-6.813c0-1.432-0.696-1.815-1.36-2.234L232.135,8.728z M235.523,11.84
		c0.77,0.383,1.645,0.873,1.645,2.479v5.484c0,1.921,1.327,3.073,2.655,3.981l0.627-0.666c-1.014-0.661-2.442-1.673-2.442-3.35v-5.8
		c0-1.676-1.086-2.514-1.75-2.794L235.523,11.84z M229.478,11.84c0.702,0.348,1.258,1.048,1.258,2.34v6.706
		c0,1.152,1.015,2.096,2.271,2.899l0.594-0.628c-0.942-0.699-2.028-1.224-2.028-2.586v-6.564c0-1.678-0.732-2.517-1.433-2.796
		L229.478,11.84"/>
	<path fill="#FFFFFF" d="M61.585,5.614h3.246v6.137c0,3.174-1.779,4.845-4.395,5.299v-4.462c0,0-0.909,0-1.119,0.035
		c-1.116,0.209-1.116,0.522-1.255,1.01h-0.07c-0.558-0.522-0.907-1.361-0.907-2.126c0-1.745,1.432-3.139,3.351-3.208V6.73
		L61.585,5.614z M60.713,6.834v1.465h0.872V5.997L60.713,6.834z M58.691,12.485c0.452-0.247,1.081-0.247,2.058-0.212v4.395
		c0,0,0.348-0.071,0.487-0.106c0.14-0.033,0.453-0.171,0.453-0.171s0-3.767,0-5.059H60.4c-0.419,0-0.908,0.103-1.116,0.209
		c-0.384,0.176-0.699,0.523-0.699,0.906L58.691,12.485"/>
	<path fill="#FFFFFF" d="M3.557,9.293c1.641,1.603,3.908,2.265,6.421,2.615c3.453,0.488,6.873,1.221,6.733,4.777
		c-0.071,1.638-1.152,2.649-1.745,3.139l-0.106-0.07c0.071-0.174,0.036-0.453-0.034-0.662C13.57,15.255,1.988,18.221,2.231,11.28
		c0.036-0.975,0.525-1.955,0.942-2.476C3.173,8.805,3.244,9.014,3.557,9.293z M2.614,10.792c-0.068,0.452-0.138,1.673,0.595,2.86
		c0.802,1.29,3.104,2.092,5.408,2.439c2.232,0.351,4.22,0.768,5.338,1.395c0.628,0.35,1.255,1.117,1.186,1.746h0.069
		c0.559-0.455,0.804-2.27-1.081-3.21c-1.255-0.628-3.245-0.941-5.336-1.253c-1.537-0.246-2.688-0.35-3.944-1.117
		c-0.978-0.593-1.814-1.22-2.162-2.86H2.614"/>
	<path fill="#FFFFFF" d="M3.103,4.376c1.117-3.452,4.781-4.395,7.363-4.359c2.407,0.035,5.267,1.429,6,2.057l-2.511,3.138
		c-0.838-0.558-3.908-2.615-6.524-2.615c-1.711,0-3.595,0.525-3.629,1.989C3.731,6.714,9.14,6.852,11.756,7.447
		c6.804,1.567,7.154,4.705,6.908,7.354c-0.453,4.849-4.85,9.067-6.767,10.568c0,0-2.617-3.454-6.771-3.454
		c-1.812,0-4.115,1.048-4.115,3.07c0,2.685,2.755,4.288,5.442,4.394c1.605,0.07,3.141-0.733,3.419-0.873l0.14,0.314
		c-0.979,0.42-2.059,0.943-3.699,0.943C3.557,29.764,0,27.949,0,24.321c0-4.464,4.22-6.658,7.326-6.658
		c4.778,0,6.767,2.614,7.466,3.276c0.105,0.07,2.406-1.848,2.618-4.045c0.488-5.301-5.374-5.58-7.05-5.858
		C7.465,10.546,1.325,9.851,3.103,4.376z M1.988,22.405l0.069,0.104c0.349-0.417,1.954-1.048,3.245-0.978
		c3.837,0.176,5.758,2.514,6.663,3.385l1.012-0.871c-1.432-1.502-4.15-3.35-6.942-3.35C3.906,20.695,2.546,21.499,1.988,22.405z
		 M7.988,2.32c1.152,0.137,2.163,0.417,3.038,0.802c1.359,0.626,2.441,1.394,2.894,1.671l0.698-0.906
		c-0.594-0.382-1.991-1.186-3.175-1.638c-0.837-0.315-2.408-0.628-3.455,0V2.32"/>
</g>
</svg>
