<?xml version="1.0" encoding="utf-8"?>
<!-- Generator: Adobe Illustrator 16.0.0, SVG Export Plug-In . SVG Version: 6.00 Build 0)  -->
<!DOCTYPE svg PUBLIC "-//W3C//DTD SVG 1.1//EN" "http://www.w3.org/Graphics/SVG/1.1/DTD/svg11.dtd">
<svg version="1.1" id="Layer_1" xmlns="http://www.w3.org/2000/svg" xmlns:xlink="http://www.w3.org/1999/xlink" x="0px" y="0px"
	 width="278.5px" height="31px" viewBox="0 0 278.5 31" enable-background="new 0 0 278.5 31" xml:space="preserve">
<g>
	<path fill="#FFFFFF" d="M35,8.7c1.2,0.4,2.6,1.8,2.7,3.3l3.4-3.3c0,0,1,0.6,1.9,1.5c0.7,0.7,1.2,1.8,1.2,2.9v6.1
		c0,1.3,1,1.6,1.4,1.9l-2.8,2.9c0,0-1-0.6-1.9-1.5c-0.7-0.8-1.1-1.6-1.1-2.8v-5.4c0-1.7-0.9-2.1-1.6-2.3l-0.4,0.3v7.1
		c0,1.3,0.7,1.4,1,1.7l-2.9,2.9c0,0-2.6-1.4-2.6-3.2v-6.8c0-1.4-0.7-1.8-1.4-2.2L35,8.7z M38.4,11.8c0.8,0.4,1.6,0.9,1.6,2.5v5.5
		c0,1.9,1.3,3.1,2.7,4l0.6-0.7c-1-0.7-2.4-1.7-2.4-3.3V14c0-1.7-1.1-2.5-1.7-2.8L38.4,11.8z M32.4,11.8c0.7,0.3,1.3,1,1.3,2.3v6.7
		c0,1.2,1,2.1,2.3,2.9l0.6-0.6c-0.9-0.7-2-1.2-2-2.6V14c0-1.7-0.7-2.5-1.4-2.8L32.4,11.8"/>
	<path fill="#FFFFFF" d="M22.5,24.1c-1.2-0.9-3.1-2.4-3.1-5.5c0-2.4,2.1-4.9,6.2-4.5h0.3c0-0.6,0.1-2.1-0.8-2.3c0,0-1.2,1.2-2.7,1.2
		c-1.5,0-2.1-0.7-2.4-1l3.4-3.3c0.5,0.9,1.3,1.6,2.4,1.6c0.6,0,1.4-0.6,2.2-1.6c-0.1,0,2.3,0.4,2.3,4.3v5.8c0,1.3,1.1,2,1.5,2.2
		l-3.1,3.1c0,0-2.8-1.4-2.8-3.3v-0.2L22.5,24.1z M25.9,20.1v-5.6c-0.3,0-1.5-0.1-2.1,0.2c-0.4,0.3-1.3,1.2-0.9,2.8
		c0.3,1.6,2,2.8,2.6,3L25.9,20.1z M20,17c-0.2,0.3-0.3,1.2-0.3,1.7c0,2.9,2,4.4,2.7,5l0.8-0.8c-0.8-0.5-1.8-1.4-2.3-2.3
		C20.5,19.8,19.9,18.4,20,17L20,17z M25.4,11.6c0.8,0.4,0.8,1,0.8,2.3v6.7c0,1.2,1.2,2.4,2.5,3.1l0.7-0.7c-0.9-0.6-2.3-1.3-2.3-2.7
		V14c0-1.7-0.1-2.6-1-2.9L25.4,11.6z M22.2,12c-0.5-0.1-1.1-0.7-1.1-0.7L20.4,12c0.2,0.3,1,0.7,1.9,0.8c0.6,0,1.4-0.3,1.7-0.5l0-0.1
		C23.6,12.3,22.8,12.2,22.2,12"/>
	<path fill="#FFFFFF" d="M80.1,12.5v6.6c0,1.3,1.3,1.9,1.6,2.1l-3.1,3.1c0,0-2.9-1.4-2.9-3.2v-6.8c0-1.4-0.8-1.8-1.4-2.2l3.1-3.2
		c1,0.3,2.4,1.5,2.7,2.8L83,8.8l2.4,2.5L82,14.4L80.1,12.5z M74.7,11.9c0.7,0.3,1.3,1,1.3,2.3v6.6c0,1.4,1.5,2.4,2.6,3l0.7-0.7
		c-0.9-0.5-2.4-1.2-2.4-2.6v-6.5c0-1.7-0.7-2.3-1.5-2.7L74.7,11.9z M82,14l0.7-0.7l-1.9-2L80.1,12L82,14"/>
	<path fill="#FFFFFF" d="M118.5,8.7c0.5,0.5,0.9,1.1,2.2,1.2c0.5,0,1.1-0.1,1.5-0.5l0.1,0.1c-0.1,1.2-0.9,2.4-1.9,3
		c-0.6,0.3-1.9,0.8-2.8,0.3v6.6c0,0.5,0.5,1.3,1.3,1.3c0.7,0,1-0.4,1.5-0.9l0.2,0.2l-4.1,4.1c0,0-1.3-0.6-2.2-1.5
		c-0.7-0.8-1.1-1.4-1.1-2.8v-5c0-0.6-0.1-1.1-0.7-1.3v-0.1l1.9-1.9C114.3,11.4,116.9,11.8,118.5,8.7z M112.9,13.3
		c0.7,0.4,0.6,1,0.6,1.4v5.1c0,1.9,1.1,3,3,3.9l0.6-0.6c-1.2-0.7-2.7-1.4-2.7-3.3v-5.5c0-0.3-0.1-1.3-0.9-1.5L112.9,13.3z
		 M117.6,11.4v1.1c0.4,0.1,0.6,0.2,1,0.2c0.6,0,1.4-0.3,1.8-0.6V12c-0.6,0-1,0.1-1.6,0C118.4,11.9,117.9,11.6,117.6,11.4"/>
	<path fill="#FFFFFF" d="M70.6,0.5c-1.4,2.2-3.7,3.9-6.7,3.9c-2.6,0-3.1-0.8-5.2-0.8c-1.9,0-3,1.1-2.9,2.2h-0.1
		c-0.3-0.5-0.6-1.2-0.6-2c0-1.8,1.8-3.4,4.2-3.6c2.2-0.2,6.3,0.8,8.3,0.8c1.2,0,2.3-0.3,2.8-0.7L70.6,0.5z M56.9,3.8
		c0.5-0.3,1.2-0.3,1.7-0.4c1.5-0.1,3.4,0.8,5.2,0.8c1.6,0,2.8-0.6,3.2-0.7l0-0.1c-0.9,0.1-1.9,0-3.2-0.2c-1.8-0.3-3.8-0.7-4.5-0.7
		c-1.4,0-2.3,0.6-2.5,1.4H56.9"/>
	<path fill="#FFFFFF" d="M78.2,0.2c-0.5,2.7-2.7,4.2-5.1,4.6c-0.8,0.1-1.5,0.1-2.4-0.1v3.4h5l-4.3,4.7h-0.7v3.6
		c0,1.4-0.6,3.4-1.8,5.2c-1,1.6-2.7,2.9-4.1,3.8c0,0-3.1-3.1-6.7-3.1c-1.6,0-4.4,0.9-4.4,3.4c0,2.1,2.4,4.2,5.9,4.2
		c2.3,0,3.4-0.7,4.2-1.1l0.2,0.3c-0.5,0.3-2.1,1.3-4.4,1.3c-3.9,0-7-2.1-7-5.8c0-3.9,3.9-6.5,7.8-6.5c1.8,0,2.8,0.2,5.6,1.5V6
		l1.9-1.8c0.7-0.2,1.5-0.4,2.7-1.3c1.2-1,2-2.4,2-2.4c0.7,0.7,2.3,1.3,3.1,1.3C77,1.6,77.5,0.9,78,0.1L78.2,0.2z M67.1,5.3l-0.9,0.9
		v13.6c0,0,0.3,0.2,0.5,0.3c0.2,0.1,0.5,0.5,0.5,0.5V5.3z M70.9,2.8l-0.3,0.3v1.2c0.5,0.2,1.5,0.3,2.4,0.2c1-0.2,1.9-0.6,2.1-0.7
		l0-0.1C73.6,3.8,72.4,3.6,70.9,2.8z M54.4,23.2L54.4,23.2C55.3,22.3,57,22,58,22c3.1-0.1,6,2.4,6.7,3l1.1-0.8
		c-1.5-1.6-4.1-3.2-7.6-3.2C56.9,21,55.1,21.7,54.4,23.2z M70.6,12.5h0.5l0.9-1h-1.5V12.5"/>
	<path fill="#FFFFFF" d="M128.2,19c0,1.4,1.3,1.9,1.6,2.1l-3.1,3c0,0-2.9-1.4-2.9-3.2v-6.7c0-1.4-0.8-1.8-1.4-2.2l3.1-3.3
		c1.2,0.5,2.7,1.6,2.7,3.4V19z M122.9,11.9c0.7,0.3,1.3,1,1.3,2.3v6.6c0,1.2,1.5,2.3,2.6,2.9l0.7-0.7c-0.9-0.7-2.4-1.3-2.4-2.7v-6.3
		c0-1.6-0.7-2.4-1.5-2.7L122.9,11.9"/>
	<path fill="#FFFFFF" d="M135,24.1C135,24.1,135,24.1,135,24.1c-0.5-0.5-1.1-1-2.3-1.2c-0.5,0-1.6-0.1-2.1,1.2h-0.1
		c-0.4-1.6,0.9-3.4,2.5-4c1.7-0.6,3.2-0.1,3.2-0.1v-3.9c-1.5,0.5-3.2,1.4-4.4,1.2c-0.5-0.1-0.9-0.4-0.9-1.2c0,0,0-2.6,0-2.7
		c0-0.2,0-0.3-0.1-0.5c-0.1-0.2-0.3-0.2-0.3-0.2v-0.1l1.5-1.4c0,0,2.6,0.2,4.7-2.4c0.5,0.4,0.9,1.1,2.2,1.2c0.5,0,1.5-0.1,2-0.5
		l0.1,0.1c-0.1,1.2-1.6,2.6-2.6,3c-1.7,0.7-3.2,0.1-3.2,0.1v2.6c2-0.3,4-1.4,4.7-1.2c0.5,0.1,0.7,0.3,0.7,1.2V19c0,0.3,0,1,0,1
		s-0.8,0-1.3,0.2c-0.4,0.1-0.8,0.3-1.4,0.7C136,22,135,24.1,135,24.1z M135,23.6c0,0,0.1-0.2,0.2-0.4c0.1-0.2,0.3-0.4,0.3-0.4
		c-0.4-0.3-0.9-0.9-2-0.9c-1.4,0-1.9,0.7-1.9,0.8l0.1,0c0.6-0.3,1.4-0.1,2.1,0.1C134.3,23,134.7,23.4,135,23.6z M135.2,11.1v1.2
		c0.5,0.2,1.2,0.2,1.6,0.2c0.6,0,1.4-0.2,1.8-0.5v-0.1c-0.7,0-1.3,0.1-2-0.1C136.1,11.6,135.5,11.3,135.2,11.1z M130.9,12.6
		c0.4,0.2,0.4,0.5,0.4,0.9v2c0,0.7,0,1.1,0.2,1.3c0.4,0.5,1.4,0.2,1.4,0.2c-0.7-0.4-0.8-0.7-0.8-1.5v-2.3c0-0.3,0-1-0.6-1.1
		L130.9,12.6z M137,20.4c0.2,0.1,0.4,0.3,0.4,0.3v-4.3c0-0.2,0-0.5-0.1-0.6c-0.1,0-0.1-0.1-0.2-0.1l-0.5,0.2v4.2
		C136.5,20.2,136.8,20.3,137,20.4"/>
	<path fill="#FFFFFF" d="M126.6,1.9l2.2,2.2l-3.3,3.2l-2.2-2.2L126.6,1.9z M123.8,5.2l1.7,1.7l0.7-0.7l-1.8-1.8L123.8,5.2"/>
	<path fill="#FFFFFF" d="M101,8.7c1.2,0.4,2.6,1.8,2.7,3.3l3.4-3.3c0,0,1,0.6,1.9,1.5c0.7,0.7,1.2,1.8,1.2,2.9v6.1
		c0,1.3,1,1.6,1.4,1.9l-2.8,2.9c0,0-1-0.6-1.9-1.5c-0.7-0.8-1.1-1.6-1.1-2.8v-5.4c0-1.7-0.9-2.1-1.6-2.3l-0.4,0.3v7.1
		c0,1.3,0.7,1.4,1,1.7l-2.9,2.9c0,0-2.6-1.4-2.6-3.2v-6.8c0-1.4-0.7-1.8-1.4-2.2L101,8.7z M104.4,11.8c0.8,0.4,1.6,0.9,1.6,2.5v5.5
		c0,1.9,1.3,3.1,2.7,4l0.6-0.7c-1-0.7-2.4-1.7-2.4-3.3V14c0-1.7-1.1-2.5-1.7-2.8L104.4,11.8z M98.4,11.8c0.7,0.3,1.3,1,1.3,2.3v6.7
		c0,1.2,1,2.1,2.3,2.9l0.6-0.6c-0.9-0.7-2-1.2-2-2.6V14c0-1.7-0.7-2.5-1.4-2.8L98.4,11.8"/>
	<path fill="#FFFFFF" d="M88.4,24.1c-1.2-0.9-3.1-2.4-3.1-5.5c0-2.4,2.1-4.9,6.2-4.5h0.3c0-0.6,0.1-2.1-0.8-2.3c0,0-1.2,1.2-2.7,1.2
		c-1.5,0-2.1-0.7-2.4-1l3.4-3.3c0.5,0.9,1.3,1.6,2.4,1.6c0.6,0,1.4-0.6,2.2-1.6c-0.1,0,2.3,0.4,2.3,4.3v5.8c0,1.3,1.1,2,1.5,2.2
		l-3.1,3.1c0,0-2.8-1.4-2.8-3.3v-0.2L88.4,24.1z M91.9,20.1v-5.6c-0.3,0-1.5-0.1-2.1,0.2c-0.4,0.3-1.3,1.2-0.9,2.8
		c0.4,1.6,2,2.8,2.6,3L91.9,20.1z M86,17c-0.2,0.3-0.3,1.2-0.3,1.7c0,2.9,2,4.4,2.7,5l0.8-0.8c-0.8-0.5-1.8-1.4-2.3-2.3
		C86.5,19.8,85.9,18.4,86,17L86,17z M91.3,11.6c0.8,0.4,0.8,1,0.8,2.3v6.7c0,1.2,1.2,2.4,2.5,3.1l0.7-0.7c-0.9-0.6-2.3-1.3-2.3-2.7
		V14c0-1.7-0.1-2.6-1-2.9L91.3,11.6z M88.2,12c-0.5-0.1-1.1-0.7-1.1-0.7L86.4,12c0.2,0.3,1,0.7,1.9,0.8c0.6,0,1.4-0.3,1.7-0.5l0-0.1
		C89.6,12.3,88.8,12.2,88.2,12"/>
	<path fill="#FFFFFF" d="M196.4,2.8c1.2,0.4,2.3,2,2.3,4.1V12l3.4-3.3c0,0,1,0.7,1.9,1.6c0.7,0.7,1.2,1.8,1.2,2.9v10.6
		c0,0.4-0.1,7.2-5.6,7.2c-2.1,0-2.8-1.7-2.8-1.7l0.2-0.2c0,0,0.6,1.2,2,1.2c1.8,0,1.7-2.1,1.7-3.2V14.5c0-1.6-1-2.2-1.6-2.4
		l-0.4,0.4v7c0,1.3,0.7,1.4,1,1.7l-2.9,2.9c0,0-2.6-1.4-2.6-3.2V8.5c0-1.4-0.5-2.1-1-2.4L196.4,2.8z M199.4,11.8
		c0.8,0.4,1.6,1,1.6,2.6V27c0,1.5,0,2-0.4,2.7h0.1c0.5-0.3,1.2-1,1.2-3.2V14.1c0-1.7-1-2.7-1.8-2.9L199.4,11.8z M193.7,6.1
		c0.6,0.4,0.9,1.2,0.9,2.5v12.1c0,1.2,1,2.2,2.3,3l0.7-0.7c-0.9-0.7-2.1-1.2-2.1-2.6v-12c0-1.7-0.4-2.6-1.2-2.9L193.7,6.1"/>
	<path fill="#FFFFFF" d="M186.5,0.7l0,0.1c-1.5,0-3.5,0.2-5.6,1.6c-2.8,1.9-4.4,5.4-4.5,8.7c0,5,2.8,8.2,3.6,8.6
		c-0.3-0.6-0.6-1.7-0.6-2.7c0-1.8,1.3-2.8,1.9-3V7.5c0-0.4,0-0.6-0.1-0.9c-0.1-0.3-0.4-0.4-0.4-0.4V6.1l1.9-2.2
		c1.3,0,2.6-0.2,3.3-0.5c0.9-0.5,2.4-2.7,2.4-2.7c1,0.9,1.7,1.4,3.2,1.4c1.4,0.1,2.3-0.9,2.7-1.6l0.2,0.1c-0.5,2.1-1.5,3.7-3.9,4.6
		c-2.7,0.9-4.4,0.3-4.4,0.3v10.4c0,0.5,0,0.9-0.2,1.2c-0.5,0.5-1.8-0.2-2.9,0.2c-1.2,0.4-2.6,1.7-2.5,2.9c0,0,1.9,1.5,5.8,1.5
		c3,0,4.5-0.9,6.3-2.3l0.1,0.1c-1.8,4.4-5.5,6.6-9.6,6.6c-6,0-11.6-5.1-11.6-12.4c0-6.6,4.8-11.8,10-12.8
		C184.9,0,186.5,0.7,186.5,0.7z M175.5,4.5l-0.1-0.1c-1.9,1.9-3.5,5.3-3.5,9c0,5.8,3.6,9.9,7.7,11.4c3.3,1.2,6.3,0.3,6.9,0.1
		l0.1-0.1c-1.5,0.1-5.2-0.1-7.4-1.4c-2.6-1.5-4-3-5.1-5.4c-0.9-2-1.2-5.1-0.8-7.3C173.9,6.6,175.5,4.5,175.5,4.5z M186.2,5
		c0,0,0.6,0.3,1.9,0.2c1,0,2.2-0.4,2.7-0.6l0-0.1c-0.8,0-1.7-0.2-2.5-0.4c-0.7-0.2-1.3-0.6-1.6-0.7l-0.5,0.3V5z M181.3,6.1
		c0,0,0.2,0.2,0.3,0.4c0.1,0.3,0.1,0.5,0.1,0.8v7.1c-0.4,0.2-0.8,0.5-1,0.7c-0.4,0.4-0.8,1.1-0.7,1.9L180,17c0,0,0.6-1,1.5-1.4
		c0.5-0.2,1.1-0.4,1.3-0.4V6.9c0-0.5-0.1-0.8-0.3-1.2c-0.1-0.2-0.5-0.5-0.5-0.5L181.3,6.1"/>
	<path fill="#FFFFFF" d="M162.2,19.1c0,0-2,1.3-3.1,2.3c-1.2,0.9-2.8,2.8-2.8,2.8s-2.2-1.2-3-2.1c-0.7-0.8-1.4-1.5-1.4-2.8v-4.5
		c0-0.8-0.1-1-0.5-1.2v-0.1l1.9-1.9c0,0,2.7-0.6,5.1-2.8c0.5,0.4,1.1,0.8,1.8,1.3c0.7,0.5,2.1,1.2,2.1,2.8
		C162.2,12.9,162.2,19,162.2,19.1z M157.8,20.1V15c0-1.3-0.8-1.8-1.5-2.2v5.1c0,0.5,0.4,1.2,0.9,1.7
		C157.4,19.8,157.5,19.9,157.8,20.1z M151.7,13.4c0.5,0.3,0.4,1,0.4,1.4v4.5c0,1.9,2.2,3.3,4.1,4.4l0.6-0.6c-1.2-0.7-3.8-2-3.8-3.9
		v-4.8c0-0.3,0-1.3-0.6-1.5L151.7,13.4z M156.2,11.4v1c0.4,0.2,0.7,0.3,1,0.6c0.5,0.5,0.8,1,0.8,1.9v5.3l0.8,0.6l0.1-0.1v-6
		c0-1.1-0.3-1.7-0.9-2.3C157.3,11.7,156.2,11.4,156.2,11.4"/>
	<path fill="#FFFFFF" d="M147.8,8.7c0.5,0.5,0.9,1.1,2.2,1.2c0.5,0,1.1-0.1,1.5-0.5l0.1,0.1c-0.1,1.2-0.9,2.4-1.9,3
		c-0.6,0.3-1.9,0.8-2.8,0.3v6.6c0,0.5,0.5,1.3,1.3,1.3c0.7,0,1-0.4,1.5-0.9L150,20l-4.1,4.1c0,0-1.3-0.6-2.2-1.5
		c-0.7-0.8-1.1-1.4-1.1-2.8v-5c0-0.6-0.1-1.1-0.7-1.3v-0.1l1.9-1.9C143.7,11.4,146.2,11.8,147.8,8.7z M142.3,13.3
		c0.7,0.4,0.6,1,0.6,1.4v5.1c0,1.9,1.1,3,3,3.9l0.6-0.6c-1.2-0.7-2.7-1.4-2.7-3.3v-5.5c0-0.3-0.1-1.3-0.9-1.5L142.3,13.3z M147,11.4
		v1.1c0.4,0.1,0.6,0.2,1,0.2c0.6,0,1.4-0.3,1.8-0.6V12c-0.6,0-1,0.1-1.6,0C147.7,11.9,147.3,11.6,147,11.4"/>
	<path fill="#FFFFFF" d="M212.2,12.3v6.6c0,1.3,1.3,1.8,1.6,2.1l-3.1,3.1c0,0-2.9-1.4-2.9-3.2V14c0-1.4-0.8-1.9-1.4-2.2l3.1-3.2
		c1,0.4,2.4,1.5,2.7,2.8l2.9-2.8l2.4,2.6l-3.4,3.1L212.2,12.3z M206.8,11.7c0.7,0.4,1.3,1,1.3,2.3v6.6c0,1.4,1.5,2.4,2.6,3l0.7-0.7
		c-0.9-0.5-2.4-1.2-2.4-2.6v-6.5c0-1.7-0.7-2.3-1.5-2.7L206.8,11.7z M214,13.9l0.7-0.7l-1.9-2l-0.7,0.7L214,13.9"/>
	<path fill="#FFFFFF" d="M227.6,19c0,0-2,1.3-3.1,2.3c-1.2,0.9-2.8,2.8-2.8,2.8s-2.2-1.2-3-2.1c-0.7-0.8-1.4-1.5-1.4-2.8v-4.5
		c0-0.8-0.1-1-0.5-1.2v-0.1l1.9-1.9c0,0,2.7-0.6,5.1-2.8c0.5,0.4,1.1,0.8,1.8,1.3c0.7,0.5,2.1,1.2,2.1,2.8
		C227.6,12.8,227.6,19,227.6,19z M223.2,20V15c0-1.3-0.8-1.8-1.5-2.2v5.1c0,0.5,0.3,1.2,0.9,1.7C222.8,19.8,223,19.9,223.2,20z
		 M217.1,13.4c0.5,0.3,0.4,1,0.4,1.4v4.5c0,1.9,2.2,3.3,4.1,4.4l0.6-0.6c-1.2-0.7-3.8-2-3.8-3.9v-4.8c0-0.3,0-1.3-0.6-1.5
		L217.1,13.4z M221.7,11.3v1c0.3,0.2,0.7,0.3,1,0.6c0.5,0.5,0.8,1,0.8,1.9v5.3l0.8,0.6l0.1-0.1v-6c0-1.1-0.3-1.7-0.9-2.3
		C222.7,11.6,221.7,11.3,221.7,11.3"/>
	<path fill="#FFFFFF" d="M266,19c0,1.5,1.3,1.9,1.6,2.1l-3.1,3.1c0,0-2.9-1.4-2.9-3.2V8.4c0-1.4-0.5-1.9-1.1-2.3l3.1-3.2
		c1.2,0.4,2.5,2,2.5,3.6V19z M261,6.1c0.6,0.3,0.9,1.1,0.9,2.4v12.2c0,1.4,1.3,2.2,2.6,3l0.6-0.6c-0.9-0.7-2.4-1.3-2.4-2.7v-12
		c0-1.7-0.5-2.5-1.3-2.8L261,6.1"/>
	<path fill="#FFFFFF" d="M273.3,16.4v2.9c0,0.5,0.5,1.3,1.3,1.3c0.7,0,1-0.4,1.5-0.9l0.3,0.3l-4.2,4.2c0,0-1.4-0.6-2.2-1.5
		c-0.7-0.8-1.1-1.7-1.1-2.9v-5c0-0.6-0.2-1.1-0.7-1.2v-0.1l1.9-1.9c0,0,3.1,0,5-2.8c0,0,0.6,0.7,1.5,1.7c0.8,0.8,1.7,1.8,2,2.1
		C278.5,12.5,274.2,15.7,273.3,16.4z M274.6,15l-1.3-1.6v2.6L274.6,15z M268.6,13.4c0.7,0.4,0.6,1,0.6,1.4v5c0,2,1.2,3,3,4l0.7-0.6
		c-1.2-0.6-2.8-1.3-2.8-3.4v-5.3c0-0.3-0.2-1.4-0.9-1.5L268.6,13.4z M273.3,11.4v1.3l1.6,2l0.7-0.6L273.3,11.4L273.3,11.4"/>
	<path fill="#FFFFFF" d="M256.7,8.7c0.5,0.5,0.9,1.1,2.2,1.2c0.5,0,1.1-0.1,1.5-0.5l0.1,0.1c-0.1,1.2-0.9,2.4-1.9,3
		c-0.6,0.3-1.9,0.8-2.8,0.3v6.6c0,0.5,0.5,1.3,1.3,1.3c0.7,0,1-0.4,1.5-0.9l0.2,0.2l-4.1,4.1c0,0-1.3-0.6-2.2-1.5
		c-0.7-0.8-1.1-1.4-1.1-2.8v-5c0-0.6-0.1-1.1-0.7-1.3v-0.1l1.9-1.9C252.5,11.4,255.1,11.8,256.7,8.7z M251.1,13.3
		c0.7,0.4,0.6,1,0.6,1.4v5.1c0,1.9,1.1,3,3,3.9l0.6-0.6c-1.2-0.7-2.7-1.4-2.7-3.3v-5.5c0-0.3-0.1-1.3-0.9-1.5L251.1,13.3z
		 M255.8,11.4v1.1c0.4,0.1,0.6,0.2,1,0.2c0.6,0,1.4-0.3,1.8-0.6V12c-0.6,0-1,0.1-1.6,0C256.6,11.9,256.1,11.6,255.8,11.4"/>
	<path fill="#FFFFFF" d="M248.6,19c0,1.4,1.3,1.9,1.6,2.1l-3.1,3c0,0-2.9-1.4-2.9-3.2v-6.7c0-1.4-0.8-1.8-1.4-2.2l3.1-3.3
		c1.2,0.5,2.7,1.6,2.7,3.4V19z M243.2,11.9c0.7,0.3,1.3,1,1.3,2.3v6.6c0,1.2,1.5,2.3,2.6,2.9l0.7-0.7c-0.9-0.7-2.4-1.3-2.4-2.7v-6.3
		c0-1.6-0.7-2.4-1.5-2.7L243.2,11.9"/>
	<path fill="#FFFFFF" d="M246.9,1.9l2.2,2.2l-3.3,3.2l-2.2-2.2L246.9,1.9z M244.1,5.2l1.7,1.7l0.7-0.7l-1.8-1.8L244.1,5.2"/>
	<path fill="#FFFFFF" d="M232.1,8.7c1.2,0.4,2.6,1.8,2.7,3.3l3.4-3.3c0,0,1,0.6,1.9,1.5c0.7,0.7,1.2,1.8,1.2,2.9v6.1
		c0,1.3,1,1.6,1.4,1.9l-2.8,2.9c0,0-1-0.6-1.9-1.5c-0.7-0.8-1.1-1.6-1.1-2.8v-5.4c0-1.7-0.9-2.1-1.6-2.3l-0.4,0.3v7.1
		c0,1.3,0.7,1.4,1.1,1.7l-2.9,2.9c0,0-2.6-1.4-2.6-3.2v-6.8c0-1.4-0.7-1.8-1.4-2.2L232.1,8.7z M235.5,11.8c0.8,0.4,1.6,0.9,1.6,2.5
		v5.5c0,1.9,1.3,3.1,2.7,4l0.6-0.7c-1-0.7-2.4-1.7-2.4-3.3V14c0-1.7-1.1-2.5-1.8-2.8L235.5,11.8z M229.5,11.8c0.7,0.3,1.3,1,1.3,2.3
		v6.7c0,1.2,1,2.1,2.3,2.9l0.6-0.6c-0.9-0.7-2-1.2-2-2.6V14c0-1.7-0.7-2.5-1.4-2.8L229.5,11.8"/>
	<path fill="#FFFFFF" d="M61.6,5.6h3.2v6.1c0,3.2-1.8,4.8-4.4,5.3v-4.5c0,0-0.9,0-1.1,0c-1.1,0.2-1.1,0.5-1.3,1H58
		c-0.6-0.5-0.9-1.4-0.9-2.1c0-1.7,1.4-3.1,3.4-3.2V6.7L61.6,5.6z M60.7,6.8v1.5h0.9V6L60.7,6.8z M58.7,12.5c0.5-0.2,1.1-0.2,2.1-0.2
		v4.4c0,0,0.3-0.1,0.5-0.1c0.1,0,0.5-0.2,0.5-0.2s0-3.8,0-5.1h-1.3c-0.4,0-0.9,0.1-1.1,0.2c-0.4,0.2-0.7,0.5-0.7,0.9L58.7,12.5"/>
	<path fill="#FFFFFF" d="M3.6,9.3c1.6,1.6,3.9,2.3,6.4,2.6c3.5,0.5,6.9,1.2,6.7,4.8c-0.1,1.6-1.2,2.6-1.7,3.1l-0.1-0.1
		c0.1-0.2,0-0.5,0-0.7C13.6,15.2,2,18.2,2.2,11.3c0-1,0.5-2,0.9-2.5C3.2,8.8,3.2,9,3.6,9.3z M2.6,10.8c-0.1,0.5-0.1,1.7,0.6,2.9
		c0.8,1.3,3.1,2.1,5.4,2.4c2.2,0.4,4.2,0.8,5.3,1.4c0.6,0.3,1.3,1.1,1.2,1.7h0.1c0.6-0.5,0.8-2.3-1.1-3.2c-1.3-0.6-3.2-0.9-5.3-1.3
		c-1.5-0.2-2.7-0.3-3.9-1.1C3.9,13,3,12.4,2.6,10.8L2.6,10.8"/>
	<path fill="#FFFFFF" d="M3.1,4.4C4.2,0.9,7.9,0,10.5,0c2.4,0,5.3,1.4,6,2.1L14,5.2C13.1,4.6,10,2.6,7.4,2.6c-1.7,0-3.6,0.5-3.6,2
		c-0.1,2.1,5.3,2.3,8,2.9c6.8,1.6,7.2,4.7,6.9,7.4c-0.5,4.8-4.8,9.1-6.8,10.6c0,0-2.6-3.5-6.8-3.5c-1.8,0-4.1,1-4.1,3.1
		c0,2.7,2.8,4.3,5.4,4.4c1.6,0.1,3.1-0.7,3.4-0.9l0.1,0.3c-1,0.4-2.1,0.9-3.7,0.9c-2.8,0-6.3-1.8-6.3-5.4c0-4.5,4.2-6.7,7.3-6.7
		c4.8,0,6.8,2.6,7.5,3.3c0.1,0.1,2.4-1.8,2.6-4c0.5-5.3-5.4-5.6-7-5.9C7.5,10.5,1.3,9.8,3.1,4.4z M2,22.4l0.1,0.1c0.3-0.4,2-1,3.2-1
		c3.8,0.2,5.8,2.5,6.7,3.4l1-0.9c-1.4-1.5-4.2-3.3-6.9-3.3C3.9,20.7,2.5,21.5,2,22.4z M8,2.3c1.2,0.1,2.2,0.4,3,0.8
		c1.4,0.6,2.4,1.4,2.9,1.7l0.7-0.9c-0.6-0.4-2-1.2-3.2-1.6C10.6,1.9,9,1.6,8,2.3L8,2.3"/>
</g>
</svg>
